<?xml version="1.0" encoding="utf-8"?>
<!-- Generator: Adobe Illustrator 23.0.6, SVG Export Plug-In . SVG Version: 6.00 Build 0)  -->
<svg version="1.1" id="Ebene_1" xmlns="http://www.w3.org/2000/svg" xmlns:xlink="http://www.w3.org/1999/xlink" x="0px" y="0px"
	 viewBox="0 0 306.5 156.9" width="306.5" height="156.9" style="enable-background:new 0 0 306.5 156.9;" xml:space="preserve">
<g>
	<path d="M44.7,44c0,1.4-0.3,2.7-1,3.9c-0.6,1.1-1.5,2.1-2.6,2.9c-1.1,0.8-2.2,1.5-3.5,2c-1.3,0.5-2.6,0.9-3.8,1.1
		c-0.2,8.6-0.5,16.9-1,24.9c-0.5,8-1.3,16.2-2.3,24.8h0.7c1.2,0,2.4,0.1,3.6,0.4c1.2,0.3,2.2,0.7,3.2,1.4c1,0.6,1.7,1.4,2.3,2.4
		c0.6,1,0.9,2.1,0.9,3.5c0,1.8-0.6,3.3-1.7,4.6c-1.1,1.3-2.6,2.4-4.3,3.3c-1.8,0.9-3.8,1.7-6,2.3c-2.2,0.6-4.4,1.1-6.6,1.4
		c-2.2,0.3-4.3,0.6-6.3,0.7c-2,0.2-3.6,0.2-4.8,0.2c-0.9,0-2,0-3.4-0.1c-1.3-0.1-2.6-0.3-3.8-0.7c-1.2-0.4-2.2-1-3-1.7
		c-0.8-0.8-1.3-1.8-1.3-3.1c0-1.6,0.3-3,1-4.3c0.6-1.3,1.5-2.4,2.6-3.4c1.1-1,2.3-1.8,3.6-2.4c1.3-0.6,2.7-1.1,4.1-1.4
		c0.5-4.2,1-8.4,1.5-12.5c0.5-4.1,0.8-8.3,0.9-12.6c0.2-4.3,0.3-8.6,0.5-12.8c0.2-4.2,0.3-8.5,0.5-12.7c-0.5,0.1-1,0.1-1.5,0.2
		c-0.5,0-0.9,0.1-1.3,0.1c-1.1,0-2.2-0.1-3.4-0.3c-1.2-0.2-2.4-0.6-3.4-1.2c-1.1-0.6-2-1.3-2.7-2.1c-0.7-0.8-1.1-1.9-1.1-3.2
		c0-2.6,1.1-4.7,3.3-6.4c2.2-1.7,4.8-3,7.8-3.9c3-0.9,6.1-1.5,9.2-1.9c3.1-0.3,5.6-0.5,7.5-0.5c1.1,0,2.5,0.1,4.2,0.2
		c1.7,0.2,3.5,0.5,5.2,1c1.7,0.5,3.2,1.3,4.5,2.2S44.7,42.4,44.7,44z"/>
	<path d="M78.7,124.7c-1.3,0-2.3-0.6-3.1-1.8c-0.8-1.2-1.3-2.5-1.7-4.1c-0.4-1.5-0.6-3.1-0.7-4.6c-0.1-1.6-0.2-2.8-0.2-3.6
		c0-2.3,0.1-4.6,0.4-6.8c0.3-2.3,0.6-4.6,0.9-6.8c0.3-2.3,0.6-4.6,0.9-6.8c0.3-2.3,0.4-4.6,0.4-6.8c0-0.9,0-1.9-0.1-3
		c-0.1-1.1-0.2-2.1-0.5-3c-0.3-1-0.7-1.7-1.3-2.3c-0.6-0.6-1.4-0.9-2.4-0.9c-0.7,0-1.4,0.6-2.3,1.7c-0.8,1.1-1.6,2.4-2.3,3.8
		c-0.7,1.4-1.3,2.8-1.8,4.2c-0.5,1.4-0.7,2.5-0.7,3.1c0,1.7,0,3.4,0.1,5.1c0,1.7,0.1,3.4,0.1,5.2v6.6c-0.1,1.4-0.2,2.8-0.3,4.2
		c-0.2,1.4-0.4,2.9-0.7,4.2c-0.2,1.4-0.6,2.7-1,3.9c-0.5,1.3-1,2.4-1.8,3.3c-0.7,1-1.6,1.7-2.6,2.3c-1,0.6-2.2,0.9-3.5,0.9
		c-1.5,0-2.8-0.5-3.8-1.5c-1-1-1.8-2.3-2.4-3.8c-0.6-1.6-1-3.3-1.3-5.3c-0.3-1.9-0.5-3.8-0.6-5.7c-0.1-1.9-0.2-3.6-0.1-5.1
		c0-1.6,0.1-2.8,0.1-3.7v-5.4c0-2.9-0.1-5.7-0.2-8.6c-0.1-2.8-0.2-5.6-0.2-8.4c0-1.5,0-3.5,0.1-5.8c0-2.4,0.3-4.7,0.9-6.9
		c0.5-2.2,1.4-4.2,2.6-5.8c1.2-1.6,3-2.4,5.4-2.4c1.1,0,2,0.3,2.9,1c0.8,0.7,1.6,1.5,2.2,2.5c0.6,1,1.2,2.1,1.6,3.2
		c0.4,1.1,0.7,2.1,1,3c0.8-1.1,1.7-2.1,2.7-3.1c1-1,2.2-1.9,3.5-2.6c1.3-0.8,2.7-1.4,4.3-1.8c1.6-0.5,3.4-0.7,5.5-0.7
		c3.9,0,6.9,0.9,9.1,2.8c2.2,1.9,3.8,4.2,4.8,7c1,2.8,1.7,5.8,1.9,9c0.2,3.2,0.3,6.1,0.3,8.7c0,1.3-0.1,3.2-0.3,5.8
		c-0.2,2.6-0.6,5.4-1.1,8.4c-0.5,3.1-1.2,6.2-2,9.5c-0.8,3.2-1.8,6.2-3,8.8c-1.1,2.7-2.5,4.8-4.1,6.5
		C82.4,123.9,80.7,124.7,78.7,124.7z"/>
	<path d="M153.1,87.5c0,3.3-0.4,7-1.1,11c-0.7,4-1.9,7.7-3.7,11.1c-1.7,3.4-4,6.3-6.7,8.6c-2.8,2.3-6.3,3.4-10.4,3.4
		c-1.1,0-2.2-0.1-3.3-0.2c-1.1-0.2-2.2-0.4-3.3-0.8c-1-0.4-2-0.9-2.8-1.5c-0.8-0.6-1.5-1.5-1.9-2.6l-1,16.4
		c-0.1,1.8-0.1,3.8-0.2,6.3c0,2.4-0.3,4.8-0.9,7c-0.6,2.2-1.5,4.1-2.9,5.6c-1.3,1.6-3.3,2.3-5.8,2.3c-1.4,0-2.7-0.7-3.7-2.2
		c-1-1.5-1.8-3.4-2.3-5.6c-0.6-2.3-1-4.8-1.3-7.6c-0.3-2.8-0.5-5.5-0.6-8.1c-0.1-2.6-0.1-4.9-0.1-7.1c0-2.1,0-3.7,0-4.7
		c0-5.1,0-10.2-0.1-15.2c-0.1-5.1-0.1-10.1-0.1-15.2c0-0.9,0-2.3,0-4.3c0-1.9,0.1-4.1,0.2-6.3c0.2-2.3,0.4-4.6,0.7-7.1
		c0.3-2.4,0.9-4.7,1.5-6.7c0.7-2,1.6-3.7,2.6-4.9c1.1-1.3,2.4-1.9,3.9-1.9c1,0,1.9,0.3,2.7,0.9c0.8,0.6,1.5,1.3,2.1,2.2
		c0.6,0.9,1,1.8,1.4,2.8c0.4,1,0.7,1.9,0.9,2.7c2.4-2.7,5.1-4.7,8.2-6s6.4-2.1,9.9-2.1c3.7,0,6.6,1,9,3.1c2.3,2.1,4.1,4.6,5.5,7.6
		c1.3,3,2.3,6.3,2.8,9.8C152.8,81.6,153.1,84.7,153.1,87.5z M136.8,86.6c0-1.1-0.1-2.3-0.3-3.5c-0.2-1.2-0.5-2.3-1-3.3
		c-0.5-1-1.2-1.9-2.1-2.5c-0.9-0.6-2.1-1-3.4-1c-1.8,0-3.7,0.6-5.8,1.8c-2,1.2-3.5,2.5-4.5,4.1c-0.4,0.6-0.6,1.6-0.7,3
		c-0.1,1.4-0.1,2.4-0.1,3.1c0,0.5,0,1.2,0.1,2.1c0,0.9,0.1,1.8,0.2,2.7c0.1,0.9,0.2,1.8,0.3,2.6c0.1,0.8,0.3,1.5,0.5,1.9
		c0.2,0.7,0.7,1.3,1.5,1.9c0.8,0.6,1.6,1.1,2.5,1.5s1.8,0.8,2.8,1c1,0.2,1.8,0.3,2.5,0.3c1.6,0,2.9-0.6,3.9-1.8
		c1-1.2,1.8-2.7,2.3-4.3c0.6-1.7,1-3.4,1.1-5.2C136.7,89.2,136.8,87.7,136.8,86.6z"/>
	<path d="M210.1,88.9c0,4.2-0.4,8.3-1.3,12.4c-0.8,4.1-2.2,7.8-4.2,11c-2,3.2-4.6,5.8-7.9,7.8c-3.3,2-7.4,3-12.4,3
		c-4.9,0-8.9-1-12.2-2.9c-3.3-1.9-5.9-4.5-7.8-7.7s-3.3-6.8-4.1-10.8c-0.8-4-1.2-8.1-1.2-12.3c0-4.6,0.5-9.1,1.6-13.6
		c0.2-1.2,0.7-2.9,1.3-5.1c0.6-2.2,1.5-4.3,2.5-6.4c1-2.1,2.2-3.9,3.5-5.4c1.3-1.5,2.8-2.3,4.4-2.3c1.5,0,2.7,0.4,3.7,1.3
		c0.9,0.8,1.6,1.9,2.2,3.1c0.5,1.3,0.9,2.6,1,4c0.2,1.4,0.2,2.7,0.2,3.8c0,1.8-0.1,3.5-0.4,5.1c-0.3,1.7-0.6,3.3-0.9,5
		c-0.3,2.3-0.6,4.6-0.9,6.8c-0.3,2.3-0.4,4.6-0.4,6.8c0,1.1,0.1,2.4,0.2,3.8c0.1,1.4,0.4,2.8,0.9,4.1c0.5,1.3,1.1,2.4,1.9,3.3
		c0.8,0.9,2,1.3,3.5,1.3c2,0,3.6-0.5,4.7-1.6c1.2-1.1,2.1-2.4,2.6-4c0.6-1.6,0.9-3.3,1.1-5.1c0.2-1.8,0.2-3.5,0.2-5
		c0-3.3-0.2-6.6-0.7-9.9c-0.5-3.2-0.9-6.5-1.3-9.9c-0.1-0.4-0.1-0.9-0.1-1.6c0-1.1,0.2-2.3,0.6-3.4c0.4-1.1,0.9-2.2,1.6-3.1
		c0.7-0.9,1.5-1.7,2.5-2.2c1-0.6,2.1-0.9,3.3-0.9c1.7,0,3.2,0.6,4.5,1.8c1.3,1.2,2.4,2.7,3.3,4.6c0.9,1.9,1.6,4,2.2,6.3
		c0.6,2.3,1,4.6,1.4,6.8c0.3,2.2,0.6,4.4,0.7,6.3C210,86.2,210.1,87.7,210.1,88.9z"/>
	<path d="M243.6,125.6c-5.4,0-9.6-0.7-12.6-2.1c-3-1.4-5.3-3.4-6.7-6c-1.5-2.6-2.4-5.7-2.7-9.4c-0.3-3.7-0.5-7.7-0.5-12.2
		c0-3.6,0.1-7.2,0.3-10.8c0.2-3.6,0.6-7.5,1-11.6c-1.1,0-1.9,0-2.5,0.1c-0.6,0-1.1,0.1-1.5,0.1c-2.4,0-4.5-0.5-6.3-1.6
		c-1.8-1.1-2.7-2.7-2.7-4.9c0-1.4,0.5-2.6,1.5-3.7c1-1.1,2.3-2,3.9-2.7c1.6-0.8,3.3-1.4,5.2-1.8c1.9-0.5,3.6-0.8,5.3-0.9
		c0-2.1,0.2-4.5,0.5-7.1c0.3-2.6,0.9-5,1.7-7.2c0.8-2.2,1.9-4.1,3.3-5.6c1.4-1.5,3.1-2.3,5.3-2.3c1.2,0,2.3,0.4,3.3,1.1
		c1,0.7,1.7,1.6,2.3,2.7c0.6,1.1,1.1,2.3,1.4,3.7c0.3,1.4,0.5,2.7,0.5,4c0,1.5-0.1,3.1-0.3,4.7c-0.2,1.6-0.6,3.6-1.3,5.9
		c1.3-0.2,2.2-0.2,2.6-0.3c0.5,0,0.9-0.1,1.3-0.1c1.3,0,2.6,0.1,4.1,0.3c1.4,0.2,2.7,0.6,3.9,1.1c1.2,0.5,2.1,1.2,2.9,2.1
		c0.8,0.9,1.1,1.9,1.1,3.1c0,1.4-0.6,2.6-1.7,3.7c-1.1,1.1-2.5,2-4.2,2.7c-1.7,0.8-3.5,1.4-5.4,1.8c-1.9,0.4-3.7,0.7-5.4,0.9
		c-0.5,3.1-0.8,6-1,8.6c-0.2,2.6-0.4,5.3-0.6,7.9c-0.2,1.3-0.3,2.6-0.4,3.9c-0.1,1.3-0.2,2.7-0.2,4.1c0,1,0,2.2,0.1,3.5
		c0.1,1.3,0.3,2.6,0.8,3.8c0.5,1.2,1.2,2.3,2.2,3.1c1,0.9,2.4,1.3,4.1,1.3c1.1,0,2.2-0.1,3.3-0.3c1.1-0.2,2.3-0.3,3.4-0.3
		c2,0,3.4,0.7,4.3,2.1c0.9,1.4,1.3,3.1,1.3,5.3c0,1.6-0.5,3-1.4,4.2c-1,1.2-2.2,2.1-3.6,2.9c-1.4,0.7-3.1,1.3-4.9,1.7
		C246.9,125.4,245.2,125.6,243.6,125.6z"/>
</g>
<path d="M205.5,37.5c0,0,29.9-28.4,53.1-14.5c8.6,5.2,13.5,14.1,18.4,18.6l-5.4,11.2l34.9-2.3L296.3,1.8l-6,12.5
	C274.1-2.2,229.1-14.6,205.5,37.5z"/>
<g>
</g>
<g>
</g>
<g>
</g>
<g>
</g>
<g>
</g>
<g>
</g>
</svg>
