<?xml version="1.0" encoding="utf-8"?>
<!-- Generator: Adobe Illustrator 23.0.6, SVG Export Plug-In . SVG Version: 6.00 Build 0)  -->
<svg version="1.1" id="Ebene_1" xmlns="http://www.w3.org/2000/svg" xmlns:xlink="http://www.w3.org/1999/xlink" x="0px" y="0px"
	 viewBox="0 0 373.9 164.1" width="373.9" height="164.1" style="enable-background:new 0 0 373.9 164.1;" xml:space="preserve">
<g>
	<path d="M29.6,106c-4.6,0-8.7-1.2-12.1-3.5c-3.4-2.3-6.3-5.4-8.5-9.4c-2.2-3.9-3.9-8.5-5-13.6c-1.1-5.2-1.7-10.6-1.7-16.3
		c0-5.3,0.6-10.7,1.8-16.2c1.2-5.5,3-10.4,5.4-14.8c2.4-4.4,5.5-8,9.2-10.8c3.7-2.8,8.2-4.2,13.4-4.2c5,0,9.2,1.4,12.6,4.1
		c3.4,2.7,6.1,6.2,8.1,10.5c2,4.3,3.5,9.1,4.3,14.4c0.9,5.3,1.3,10.7,1.3,16c0,5.9-0.6,11.5-1.8,16.8c-1.2,5.3-3,9.9-5.4,14
		c-2.4,4-5.4,7.2-9,9.6C38.7,104.9,34.4,106,29.6,106z M30.9,42.3c-1.4,0-2.7,0.6-3.7,1.7c-1,1.1-1.9,2.6-2.6,4.5
		c-0.7,1.9-1.2,4-1.5,6.3c-0.3,2.3-0.5,4.7-0.5,7c0,2.7,0.2,5.3,0.5,8c0.3,2.7,0.9,5.1,1.5,7.2c0.7,2.1,1.5,3.8,2.6,5.1
		c1,1.3,2.3,1.9,3.7,1.9c1.7,0,3-0.8,4-2.5c1-1.7,1.8-3.7,2.3-6c0.6-2.4,1-4.8,1.1-7.3c0.2-2.5,0.3-4.6,0.3-6.3
		c0-2.1-0.1-4.2-0.4-6.5c-0.3-2.3-0.7-4.4-1.3-6.3c-0.6-1.9-1.4-3.6-2.4-4.9C33.7,43,32.5,42.3,30.9,42.3z"/>
	<path d="M114.8,69.6c0,4.2-0.4,8.3-1.3,12.4c-0.8,4.1-2.2,7.8-4.2,11c-2,3.2-4.6,5.8-7.9,7.8c-3.3,2-7.4,3-12.4,3
		c-4.9,0-8.9-1-12.2-2.9c-3.3-1.9-5.9-4.5-7.8-7.7s-3.3-6.8-4.1-10.8c-0.8-4-1.2-8.1-1.2-12.3c0-4.6,0.5-9.1,1.6-13.6
		c0.2-1.2,0.7-2.9,1.3-5.1c0.6-2.2,1.5-4.3,2.5-6.4c1-2.1,2.2-3.9,3.5-5.4c1.3-1.5,2.8-2.3,4.4-2.3c1.5,0,2.7,0.4,3.7,1.3
		c0.9,0.8,1.6,1.9,2.2,3.1c0.5,1.3,0.9,2.6,1,4c0.2,1.4,0.2,2.7,0.2,3.8c0,1.8-0.1,3.5-0.4,5.1c-0.3,1.7-0.6,3.3-0.9,5
		c-0.3,2.3-0.6,4.6-0.9,6.8c-0.3,2.3-0.4,4.6-0.4,6.8c0,1.1,0.1,2.4,0.2,3.8c0.1,1.4,0.4,2.8,0.9,4.1c0.5,1.3,1.1,2.4,1.9,3.3
		c0.8,0.9,2,1.3,3.5,1.3c2,0,3.6-0.5,4.7-1.6c1.2-1.1,2.1-2.4,2.6-4c0.6-1.6,0.9-3.3,1.1-5.1c0.2-1.8,0.2-3.5,0.2-5
		c0-3.3-0.2-6.6-0.7-9.9c-0.5-3.2-0.9-6.5-1.3-9.9c-0.1-0.4-0.1-0.9-0.1-1.6c0-1.1,0.2-2.3,0.6-3.4c0.4-1.1,0.9-2.2,1.6-3.1
		c0.7-0.9,1.5-1.7,2.5-2.2c1-0.6,2.1-0.9,3.3-0.9c1.7,0,3.2,0.6,4.5,1.8c1.3,1.2,2.4,2.7,3.3,4.6c0.9,1.9,1.6,4,2.2,6.3
		c0.6,2.3,1,4.6,1.4,6.8c0.3,2.2,0.6,4.4,0.7,6.3C114.8,66.9,114.8,68.5,114.8,69.6z"/>
	<path d="M148.4,106.4c-5.4,0-9.6-0.7-12.6-2.1c-3-1.4-5.3-3.4-6.7-6c-1.5-2.6-2.4-5.7-2.7-9.4c-0.3-3.7-0.5-7.7-0.5-12.2
		c0-3.6,0.1-7.2,0.3-10.8c0.2-3.6,0.6-7.5,1-11.6c-1.1,0-1.9,0-2.5,0.1c-0.6,0-1.1,0.1-1.5,0.1c-2.4,0-4.5-0.5-6.3-1.6
		c-1.8-1.1-2.7-2.7-2.7-4.9c0-1.4,0.5-2.6,1.5-3.7c1-1.1,2.3-2,3.9-2.7c1.6-0.8,3.3-1.4,5.2-1.8c1.9-0.5,3.6-0.8,5.3-0.9
		c0-2.1,0.2-4.5,0.5-7.1c0.3-2.6,0.9-5,1.7-7.2c0.8-2.2,1.9-4.1,3.3-5.6c1.4-1.5,3.1-2.3,5.3-2.3c1.2,0,2.3,0.4,3.3,1.1
		c1,0.7,1.7,1.6,2.3,2.7c0.6,1.1,1.1,2.3,1.4,3.7c0.3,1.4,0.5,2.7,0.5,4c0,1.5-0.1,3.1-0.3,4.7s-0.6,3.6-1.3,5.9
		c1.3-0.2,2.2-0.2,2.6-0.3c0.5,0,0.9-0.1,1.3-0.1c1.3,0,2.6,0.1,4.1,0.3c1.4,0.2,2.7,0.6,3.9,1.1c1.2,0.5,2.1,1.2,2.9,2.1
		c0.8,0.9,1.1,1.9,1.1,3.1c0,1.4-0.6,2.6-1.7,3.7c-1.1,1.1-2.5,2-4.2,2.7c-1.7,0.8-3.5,1.4-5.4,1.8c-1.9,0.4-3.7,0.7-5.4,0.9
		c-0.5,3.1-0.8,6-1,8.6c-0.2,2.6-0.4,5.3-0.6,7.9c-0.2,1.3-0.3,2.6-0.4,3.9c-0.1,1.3-0.2,2.7-0.2,4.1c0,1,0,2.2,0.1,3.5
		c0.1,1.3,0.3,2.6,0.8,3.8c0.5,1.2,1.2,2.3,2.2,3.1c1,0.9,2.4,1.3,4.1,1.3c1.1,0,2.2-0.1,3.3-0.3c1.1-0.2,2.3-0.3,3.4-0.3
		c2,0,3.4,0.7,4.3,2.1c0.9,1.4,1.3,3.1,1.3,5.3c0,1.6-0.5,3-1.4,4.2c-1,1.2-2.2,2.1-3.6,2.9c-1.4,0.7-3.1,1.3-4.9,1.7
		C151.7,106.2,150,106.4,148.4,106.4z"/>
	<path d="M217.9,68.3c0,3.3-0.4,7-1.1,11c-0.7,4-1.9,7.7-3.7,11.1c-1.7,3.4-4,6.3-6.7,8.6c-2.8,2.3-6.3,3.4-10.4,3.4
		c-1.1,0-2.2-0.1-3.3-0.2c-1.1-0.2-2.2-0.4-3.3-0.8c-1-0.4-2-0.9-2.8-1.5c-0.8-0.6-1.5-1.5-1.9-2.6l-1,16.4
		c-0.1,1.8-0.1,3.8-0.2,6.3c0,2.4-0.3,4.8-0.9,7c-0.6,2.2-1.5,4.1-2.9,5.6c-1.3,1.6-3.3,2.3-5.8,2.3c-1.4,0-2.7-0.7-3.7-2.2
		c-1-1.5-1.8-3.4-2.3-5.6c-0.6-2.3-1-4.8-1.3-7.6c-0.3-2.8-0.5-5.5-0.6-8.1c-0.1-2.6-0.1-4.9-0.1-7.1c0-2.1,0-3.7,0-4.7
		c0-5.1,0-10.2-0.1-15.2c-0.1-5.1-0.1-10.1-0.1-15.2c0-0.9,0-2.3,0-4.3c0-1.9,0.1-4.1,0.2-6.3c0.2-2.3,0.4-4.6,0.7-7.1
		c0.3-2.4,0.9-4.7,1.5-6.7c0.7-2,1.6-3.7,2.6-4.9c1.1-1.3,2.4-1.9,3.9-1.9c1,0,1.9,0.3,2.7,0.9s1.5,1.3,2.1,2.2
		c0.6,0.9,1,1.8,1.4,2.8c0.4,1,0.7,1.9,0.9,2.7c2.4-2.7,5.1-4.7,8.2-6c3.1-1.4,6.4-2.1,9.9-2.1c3.7,0,6.6,1,9,3.1
		c2.3,2.1,4.1,4.6,5.5,7.6c1.3,3,2.3,6.3,2.8,9.8C217.6,62.3,217.9,65.4,217.9,68.3z M201.6,67.3c0-1.1-0.1-2.3-0.3-3.5
		c-0.2-1.2-0.5-2.3-1-3.3c-0.5-1-1.2-1.9-2.1-2.5c-0.9-0.6-2.1-1-3.4-1c-1.8,0-3.7,0.6-5.8,1.8c-2,1.2-3.5,2.5-4.5,4.1
		c-0.4,0.6-0.6,1.6-0.7,3c-0.1,1.4-0.1,2.4-0.1,3.1c0,0.5,0,1.2,0.1,2.1c0,0.9,0.1,1.8,0.2,2.7c0.1,0.9,0.2,1.8,0.3,2.6
		c0.1,0.8,0.3,1.5,0.5,1.9c0.2,0.7,0.7,1.3,1.5,1.9c0.8,0.6,1.6,1.1,2.5,1.5s1.8,0.8,2.8,1c1,0.2,1.8,0.3,2.5,0.3
		c1.6,0,2.9-0.6,3.9-1.8c1-1.2,1.8-2.7,2.3-4.3c0.6-1.7,1-3.4,1.1-5.2C201.5,69.9,201.6,68.5,201.6,67.3z"/>
	<path d="M274.8,69.6c0,4.2-0.4,8.3-1.3,12.4c-0.8,4.1-2.2,7.8-4.2,11c-2,3.2-4.6,5.8-7.9,7.8c-3.3,2-7.4,3-12.4,3
		c-4.9,0-8.9-1-12.2-2.9c-3.3-1.9-5.9-4.5-7.8-7.7s-3.3-6.8-4.1-10.8c-0.8-4-1.2-8.1-1.2-12.3c0-4.6,0.5-9.1,1.6-13.6
		c0.2-1.2,0.7-2.9,1.3-5.1c0.6-2.2,1.5-4.3,2.5-6.4c1-2.1,2.2-3.9,3.5-5.4c1.3-1.5,2.8-2.3,4.4-2.3c1.5,0,2.7,0.4,3.7,1.3
		c0.9,0.8,1.6,1.9,2.2,3.1c0.5,1.3,0.9,2.6,1,4c0.2,1.4,0.2,2.7,0.2,3.8c0,1.8-0.1,3.5-0.4,5.1c-0.3,1.7-0.6,3.3-0.9,5
		c-0.3,2.3-0.6,4.6-0.9,6.8c-0.3,2.3-0.4,4.6-0.4,6.8c0,1.1,0.1,2.4,0.2,3.8c0.1,1.4,0.4,2.8,0.9,4.1c0.5,1.3,1.1,2.4,1.9,3.3
		c0.8,0.9,2,1.3,3.5,1.3c2,0,3.6-0.5,4.7-1.6c1.2-1.1,2.1-2.4,2.6-4c0.6-1.6,0.9-3.3,1.1-5.1c0.2-1.8,0.2-3.5,0.2-5
		c0-3.3-0.2-6.6-0.7-9.9c-0.5-3.2-0.9-6.5-1.3-9.9c-0.1-0.4-0.1-0.9-0.1-1.6c0-1.1,0.2-2.3,0.6-3.4c0.4-1.1,0.9-2.2,1.6-3.1
		s1.5-1.7,2.5-2.2c1-0.6,2.1-0.9,3.3-0.9c1.7,0,3.2,0.6,4.5,1.8c1.3,1.2,2.4,2.7,3.3,4.6c0.9,1.9,1.6,4,2.2,6.3
		c0.6,2.3,1,4.6,1.4,6.8c0.3,2.2,0.6,4.4,0.7,6.3C274.8,66.9,274.8,68.5,274.8,69.6z"/>
	<path d="M308.4,106.4c-5.4,0-9.6-0.7-12.6-2.1c-3-1.4-5.3-3.4-6.7-6c-1.5-2.6-2.4-5.7-2.7-9.4c-0.3-3.7-0.5-7.7-0.5-12.2
		c0-3.6,0.1-7.2,0.3-10.8c0.2-3.6,0.6-7.5,1-11.6c-1.1,0-1.9,0-2.5,0.1c-0.6,0-1.1,0.1-1.5,0.1c-2.4,0-4.5-0.5-6.3-1.6
		c-1.8-1.1-2.7-2.7-2.7-4.9c0-1.4,0.5-2.6,1.5-3.7c1-1.1,2.3-2,3.9-2.7c1.6-0.8,3.3-1.4,5.2-1.8c1.9-0.5,3.6-0.8,5.3-0.9
		c0-2.1,0.2-4.5,0.5-7.1c0.3-2.6,0.9-5,1.7-7.2c0.8-2.2,1.9-4.1,3.3-5.6c1.4-1.5,3.1-2.3,5.3-2.3c1.2,0,2.3,0.4,3.3,1.1
		c1,0.7,1.7,1.6,2.3,2.7c0.6,1.1,1.1,2.3,1.4,3.7c0.3,1.4,0.5,2.7,0.5,4c0,1.5-0.1,3.1-0.3,4.7c-0.2,1.6-0.6,3.6-1.3,5.9
		c1.3-0.2,2.2-0.2,2.6-0.3c0.5,0,0.9-0.1,1.3-0.1c1.3,0,2.6,0.1,4.1,0.3c1.4,0.2,2.7,0.6,3.9,1.1c1.2,0.5,2.1,1.2,2.9,2.1
		c0.8,0.9,1.1,1.9,1.1,3.1c0,1.4-0.6,2.6-1.7,3.7c-1.1,1.1-2.5,2-4.2,2.7c-1.7,0.8-3.5,1.4-5.4,1.8c-1.9,0.4-3.7,0.7-5.4,0.9
		c-0.5,3.1-0.8,6-1,8.6c-0.2,2.6-0.4,5.3-0.6,7.9c-0.2,1.3-0.3,2.6-0.4,3.9c-0.1,1.3-0.2,2.7-0.2,4.1c0,1,0,2.2,0.1,3.5
		c0.1,1.3,0.3,2.6,0.8,3.8c0.5,1.2,1.2,2.3,2.2,3.1c1,0.9,2.4,1.3,4.1,1.3c1.1,0,2.2-0.1,3.3-0.3c1.1-0.2,2.3-0.3,3.4-0.3
		c2,0,3.4,0.7,4.3,2.1c0.9,1.4,1.3,3.1,1.3,5.3c0,1.6-0.5,3-1.4,4.2c-1,1.2-2.2,2.1-3.6,2.9c-1.4,0.7-3.1,1.3-4.9,1.7
		C311.7,106.2,310,106.4,308.4,106.4z"/>
</g>
<path d="M273,126.6c0,0,29.9,28.4,53.1,14.5c8.6-5.2,13.5-14.1,18.4-18.6l-5.4-11.2l34.9,2.3l-10.2,48.7l-6-12.5
	C341.5,166.3,296.5,178.6,273,126.6z"/>
<g>
</g>
<g>
</g>
<g>
</g>
<g>
</g>
<g>
</g>
<g>
</g>
</svg>
