<svg xmlns="http://www.w3.org/2000/svg" width="415" height="290" viewBox="0 0 415 289.5"><defs><style>.cls-1{fill:gray;}.cls-2{fill:#333;}.cls-3{fill:#e6e6e6;}.cls-4{fill:#ccc;}</style></defs><title>Element 7</title><g id="Ebene_2" data-name="Ebene 2"><g id="Ebene_1-2" data-name="Ebene 1"><rect class="cls-1" x="8" y="7" width="407" height="222.5" rx="25.44" ry="25.44"/><rect class="cls-1" x="142" y="271.5" width="138" height="18"/><rect class="cls-1" x="190" y="229.5" width="42" height="42"/><rect class="cls-2" x="10" y="10" width="387" height="202.5" rx="15.44" ry="15.44"/><path class="cls-3" d="M381.56,20A5.51,5.51,0,0,1,387,25.44V197.06a5.51,5.51,0,0,1-5.44,5.44H25.44A5.51,5.51,0,0,1,20,197.06V25.44A5.51,5.51,0,0,1,25.44,20H381.56m0-20H25.44A25.52,25.52,0,0,0,0,25.44V197.06A25.52,25.52,0,0,0,25.44,222.5H381.56A25.52,25.52,0,0,0,407,197.06V25.44A25.52,25.52,0,0,0,381.56,0Z"/><rect class="cls-3" x="134" y="264.5" width="138" height="18"/><rect class="cls-4" x="182" y="222.5" width="42" height="42"/><polygon class="cls-1" points="142 289.5 134 282.5 142 282.5 142 289.5"/><polygon class="cls-1" points="272 264.5 280 271.5 272 271.5 272 264.5"/></g></g></svg>