<?xml version="1.0" encoding="utf-8"?>
<!-- Generator: Adobe Illustrator 23.0.3, SVG Export Plug-In . SVG Version: 6.00 Build 0)  -->
<svg version="1.1" id="Ebene_1" xmlns="http://www.w3.org/2000/svg" xmlns:xlink="http://www.w3.org/1999/xlink" x="0px" y="0px"
	 viewBox="0 0 725.7 725.7" style="enable-background:new 0 0 725.7 725.7;" xml:space="preserve">
<style type="text/css">
	.st0{fill:#F9B667;}
	.st1{fill:#A5663C;}
	.st2{fill:#3F1804;}
	.st3{fill:#A91B33;}
	.st4{opacity:0.2;}
</style>
<path class="st0" d="M331.7,4.7c-83.7,1.4-134.4,2.2-187.1,35.8C86.5,77.4,60.9,131.9,40,176.2C24.7,208.8-4.4,272.3,0.6,357.8
	c4.7,81.4,37.6,138.6,56,169.7c25.7,43.4,80.2,135.8,195.4,176.1c147.7,51.8,276.5-23.8,291.7-33c105.6-64.3,141.1-165.2,155-204.5
	c14.3-40.6,46.5-132,11-240.3C703.5,207.2,664.3,93.6,550,35C485.9,2.1,430.4,3.1,331.7,4.7z"/>
<path class="st1" d="M398.6,146.6c-4.8-24.3,50.3-78.7,97.3-58.1c31.2,13.7,48.5,56.1,36.3,75.5C512.1,196,404.7,177,398.6,146.6z"
	/>
<path class="st1" d="M135,219c-19.8-26.1,13.6-91.7,46.8-91.7c17.3,0,32.2,17.8,38.5,32.1c7.6,17.2,7.5,40.6-6.4,56.9
	C192.6,241.2,148.9,237.4,135,219z"/>
<path class="st1" d="M164.2,444.1c-26.7,3.1-57.8,22.4-62.4,51.4c-5.8,37.1,34.1,75,75.2,76.1c36.1,1,74.3-26.6,76.1-59.6
	C255.3,473.1,206.5,439.2,164.2,444.1z"/>
<path class="st1" d="M302.3,31.9c-21,3-35.4,43.5-22,58.7c12.8,14.5,52.7,7.9,59.6-12.8C346.6,57.8,321.6,29.1,302.3,31.9z"/>
<path class="st1" d="M642.3,407.2c-22.2-16.4-58.9-11.3-72.5,13.8c-10.9,20.1-3.5,46.7,13.8,59.6c24.7,18.5,66.1,6.4,76.1-21.1
	C666.4,441,658,418.7,642.3,407.2z"/>
<path class="st1" d="M81.5,321.2c-2.3,2-15.4,13.3-12.8,22.9c3.2,12.1,30.7,20.1,41.3,9.2c10.4-10.8,1.8-37.4-10.1-40.4
	C93,311.3,85.8,317.4,81.5,321.2z"/>
<path class="st1" d="M646.7,274.4c-6.7-10.2-57.1-3.8-66,26.6c-3.6,12.3-1,30.4,8.3,33.9C608.1,342.2,655,287,646.7,274.4z"/>
<path class="st1" d="M450.1,630.2c-10,3-22.1,11.8-21.1,20.2c1.3,10.9,25.1,22.1,39.4,12.8c9-5.8,14.8-19.9,9.2-28.4
	C470.6,624.2,451.1,629.8,450.1,630.2z"/>
<path class="st1" d="M504.6,494c-14.7-4.1-32.1,6.9-33,22c-0.8,12.2,9.4,23.8,22,25.7c13,2,27.2-6.6,29.4-20.2
	C525,508.9,515.8,497.1,504.6,494z"/>
<path class="st2" d="M300.7,341.5h141.6C442.3,533.3,300.7,625.1,300.7,341.5z"/>
<ellipse class="st3" cx="364.4" cy="479.8" rx="40.7" ry="32.1"/>
<path class="st4" d="M479.1,684.5c-202.4,0-366.4-160.5-366.4-358.4C112.7,185,196,63,317.2,4.5c-75.2,1.4-123.1,4-172.6,35.5
	C86.5,77,60.9,131.4,40,175.8C24.7,208.3-4.4,271.9,0.6,357.4c4.7,81.4,37.6,138.6,56,169.7c25.7,43.4,80.2,135.8,195.4,176.1
	c118.3,41.4,224.3,1.3,269.8-21.1C507.7,683.7,493.5,684.5,479.1,684.5z"/>
<path class="st2" d="M221.6,341.5h-13.8c-9,0-16.4-7.4-16.4-16.4V220.7c0-9,7.4-16.4,16.4-16.4h13.8c9,0,16.4,7.4,16.4,16.4v104.4
	C238,334.2,230.6,341.5,221.6,341.5z"/>
<path class="st2" d="M519.7,341.5H506c-9,0-16.4-7.4-16.4-16.4V220.7c0-9,7.4-16.4,16.4-16.4h13.8c9,0,16.4,7.4,16.4,16.4v104.4
	C536.1,334.2,528.7,341.5,519.7,341.5z"/>
<g>
</g>
<g>
</g>
<g>
</g>
<g>
</g>
<g>
</g>
<g>
</g>
</svg>
