<?xml version="1.0" encoding="utf-8"?>
<!-- Generator: Adobe Illustrator 23.0.3, SVG Export Plug-In . SVG Version: 6.00 Build 0)  -->
<svg version="1.1" id="Ebene_1" xmlns="http://www.w3.org/2000/svg" xmlns:xlink="http://www.w3.org/1999/xlink" x="0px" y="0px"
	 viewBox="0 0 283.5 337.9" width="283.5" height="337.9" style="enable-background:new 0 0 283.5 337.9;" xml:space="preserve">
<style type="text/css">
	.st0{fill:#A48A7B;}
	.st1{fill:#7B6A58;}
</style>
<g>
	<path class="st0" d="M178.4,188.9c2.3-1.9,3.5-4.7,3.5-8.2c0-6.1-4-9.2-12.1-9.2h-8.5v20.3h7.6C172.9,191.8,176,190.8,178.4,188.9z
		"/>
	<path class="st0" d="M169.7,198.4h-8.5v22.7h10c4.3,0,7.7-1,10.1-3.1c2.4-2.1,3.6-4.9,3.6-8.4C185,202.2,179.9,198.4,169.7,198.4z"
		/>
	<path class="st0" d="M108,171.5h-9.8v49.7h9.4c8.3,0,14.7-2.2,19.3-6.6c4.6-4.4,6.9-10.7,6.9-18.8
		C133.8,179.5,125.2,171.5,108,171.5z"/>
	<path class="st0" d="M141.7,0C63.5,0,0,15.9,0,35.4v267c0,19.6,63.5,35.4,141.7,35.4s141.7-15.9,141.7-35.4v-267
		C283.5,15.9,220,0,141.7,0z M132.2,218.9c-6.2,5.9-14.4,8.9-24.8,8.9H90.8v-63h17.4c22.2,0,33.3,10.2,33.3,30.7
		C141.5,205.2,138.4,213,132.2,218.9z M186.9,222.8c-3.9,3.3-8.7,5-14.6,5h-18.4v-63h17.9c5.4,0,9.8,1.3,13,4
		c3.2,2.7,4.8,6.1,4.8,10.4c0,3.6-1,6.7-2.9,9.3s-4.6,4.5-8,5.6v0.2c4.2,0.5,7.6,2.1,10.2,4.8c2.5,2.7,3.8,6.2,3.8,10.6
		C192.7,215.1,190.8,219.4,186.9,222.8z"/>
</g>
<ellipse class="st1" cx="141.7" cy="35.4" rx="141.7" ry="35.4"/>
<g>
</g>
<g>
</g>
<g>
</g>
<g>
</g>
<g>
</g>
<g>
</g>
</svg>
