<?xml version="1.0" encoding="utf-8"?>
<!-- Generator: Adobe Illustrator 23.0.1, SVG Export Plug-In . SVG Version: 6.00 Build 0)  -->
<svg version="1.1" xmlns="http://www.w3.org/2000/svg" xmlns:xlink="http://www.w3.org/1999/xlink" x="0px" y="0px"
	 viewBox="0 0 232.28 142.6" style="enable-background:new 0 0 232.28 142.6;" xml:space="preserve">
<style type="text/css">
	.st0{fill:#3C444D;}
	.st1{fill:#323840;}
	.st2{fill:#464F5A;}
	.st3{fill:#505B66;stroke:#323940;stroke-width:3;stroke-miterlimit:10;}
	.st4{fill:#505B66;stroke:#323940;stroke-miterlimit:10;}
	.st5{fill:none;stroke:#323940;stroke-width:3;stroke-miterlimit:10;}
	.st6{fill:#BF4717;stroke:#323940;stroke-width:3;stroke-miterlimit:10;}
	.st7{fill:#FFFFFF;}
	.st8{fill:#76B7D6;}
	.st9{fill:#282D33;}
</style>
<g id="Ebene_1">
</g>
<g id="Ebene_2">
	<g>
		<g>
			<path class="st0" d="M232.28,132.47c0,3.12-1,6.17-2.23,6.78s-3.23,1.62-4.46,2.23s-4.78,1.11-7.9,1.11h-10.94
				c-3.12,0-8.22,0-11.34,0h-10.94c-3.12,0-6.67-0.5-7.9-1.11s-3.23-1.62-4.46-2.23s-2.23-3.67-2.23-6.78v-55.5
				c0-3.12,0-8.22,0-11.34v-55.5c0-3.12,1-6.17,2.23-6.78s3.23-1.62,4.46-2.23S181.36,0,184.48,0h10.94c3.12,0,8.22,0,11.34,0h10.94
				c3.12,0,6.67,0.5,7.9,1.11s3.23,1.62,4.46,2.23s2.23,3.67,2.23,6.78v55.5c0,3.12,0,8.22,0,11.34V132.47z"/>
		</g>
		<g>
			<path class="st1" d="M225.6,133.83c-1.23,0.61-4.78,1.11-7.9,1.11h-10.94c-3.12,0-8.22,0-11.34,0h-10.94
				c-3.12,0-6.67-0.5-7.9-1.11c-1.23-0.61-3.23-1.62-4.46-2.23s-2.23,0.61-2.23,2.71s1,4.33,2.23,4.94
				c1.23,0.61,3.23,1.62,4.46,2.23c1.23,0.61,4.78,1.11,7.9,1.11h10.94c3.12,0,8.22,0,11.34,0h10.94c3.12,0,6.67-0.5,7.9-1.11
				c1.23-0.61,3.23-1.62,4.46-2.23c1.23-0.61,2.23-2.84,2.23-4.94s-1-3.33-2.23-2.71C228.83,132.21,226.82,133.21,225.6,133.83z"/>
		</g>
		<g>
			<path class="st2" d="M230.05,3.34c-1.23-0.61-3.23-1.62-4.46-2.23C224.37,0.5,220.82,0,217.7,0h-10.94c-3.12,0-8.22,0-11.34,0
				h-10.94c-3.12,0-6.67,0.5-7.9,1.11c-1.23,0.61-3.23,1.62-4.46,2.23s-2.23,2.11-2.23,3.34s1,1.72,2.23,1.11s3.23-1.62,4.46-2.23
				c1.23-0.61,4.78-1.11,7.9-1.11h10.94c3.12,0,8.22,0,11.34,0h10.94c3.12,0,6.67,0.5,7.9,1.11c1.23,0.61,3.23,1.62,4.46,2.23
				c1.23,0.61,2.23,0.11,2.23-1.11S231.28,3.95,230.05,3.34z"/>
		</g>
		<rect x="174.07" y="32.78" class="st3" width="54.03" height="11.58"/>
		<rect x="174.07" y="49.01" class="st3" width="54.03" height="11.58"/>
		<rect x="186.01" y="14.59" class="st4" width="13.37" height="4.46"/>
		<rect x="202.8" y="14.59" class="st4" width="13.37" height="4.46"/>
		<line class="st5" x1="176.27" y1="112.79" x2="193.2" y2="129.72"/>
		<line class="st5" x1="176.66" y1="100.79" x2="203.86" y2="128"/>
		<line class="st5" x1="176.63" y1="88.83" x2="214.52" y2="126.72"/>
		<circle class="st6" cx="212.62" cy="88.21" r="10.1"/>
		<path class="st7" d="M214.59,84.14v1.52c0.76,0.59,1.26,1.51,1.26,2.55c0,1.79-1.45,3.24-3.24,3.24c-1.79,0-3.24-1.45-3.24-3.24
			c0-1.04,0.5-1.96,1.26-2.55v-1.52c-1.51,0.73-2.55,2.28-2.55,4.07c0,2.5,2.03,4.53,4.53,4.53s4.53-2.03,4.53-4.53
			C217.14,86.42,216.1,84.87,214.59,84.14z"/>
		<rect x="211.92" y="81.71" class="st7" width="1.4" height="6.49"/>
	</g>
	<g>
		<g>
			<path class="st0" d="M137.89,116.7c0,3.12-2.55,5.67-5.67,5.67H5.67c-3.12,0-5.67-2.55-5.67-5.67V41.11
				c0-3.12,2.55-5.67,5.67-5.67h126.56c3.12,0,5.67,2.55,5.67,5.67V116.7z"/>
		</g>
		<g>
			<path class="st8" d="M137.89,109.7c0,3.12-2.55,5.67-5.67,5.67H5.67c-3.12,0-5.67-2.55-5.67-5.67V43.47
				c0-3.12,2.55-5.67,5.67-5.67h126.56c3.12,0,5.67,2.55,5.67,5.67V109.7z"/>
		</g>
		<rect x="53.43" y="122.36" class="st9" width="31.04" height="15.31"/>
		<rect x="45.54" y="137.67" class="st0" width="46.81" height="4.92"/>
	</g>
</g>
</svg>
