<?xml version="1.0" encoding="utf-8"?>
<!-- Generator: Adobe Illustrator 23.0.3, SVG Export Plug-In . SVG Version: 6.00 Build 0)  -->
<svg version="1.1" id="Ebene_1" xmlns="http://www.w3.org/2000/svg" xmlns:xlink="http://www.w3.org/1999/xlink" x="0px" y="0px"
	 viewBox="0 0 355.4 157.8" width="355.4" height="157.8" style="enable-background:new 0 0 355.4 157.8;" xml:space="preserve">
<style type="text/css">
	.st0{fill:#FFD332;}
	.st1{fill:#FCBF33;}
	.st2{fill:#F28D67;}
</style>
<path class="st0" d="M276.5,0c-33.6,0-62.3,21-73.7,50.7c-70.6,0-179.9,0-181.8,0c-2.8,0-21,16.9-21,21s23.1,35.5,25.3,35.5
	s6.5,0,8.3,0s16.7-16.7,20.3-16.7s14.7,16.7,18,16.7s21.1-16.7,24.2-16.7s13.7,16.7,17.2,16.7s22.5-16.7,25.8-16.7
	s15.2,16.7,18.8,16.7c1.6,0,22.4,0,45,0c11.4,29.6,40.1,50.7,73.7,50.7c43.6,0,78.9-35.3,78.9-78.9S320.1,0,276.5,0z M307.9,76.8
	c-10.8,0-19.5-8.7-19.5-19.5s8.7-19.5,19.5-19.5s19.5,8.7,19.5,19.5S318.7,76.8,307.9,76.8z"/>
<path class="st1" d="M197.2,79.4c0-10.1,1.8-19.8,5.1-28.7c-6.2,0-12.7,0-19.5,0c-3.4,8.8-5.2,18.3-5.2,28.3s1.9,19.5,5.2,28.3
	c5.9,0,12.4,0,19.1,0C198.9,98.5,197.2,89.1,197.2,79.4z"/>
<path class="st2" d="M25.3,107.2c2.1,0,6.5,0,8.3,0s16.7-16.7,20.3-16.7s14.7,16.7,18,16.7s21.1-16.7,24.2-16.7s13.7,16.7,17.2,16.7
	s22.5-16.7,25.8-16.7s15.2,16.7,18.8,16.7c0.5,0,3.3,0,7.6,0c-5,0-22.1-28.3-25.7-28.3s-22,16.5-25.4,16.5S98.4,78.9,95.9,78.9
	c-2.5,0-20.4,16.5-23.4,16.5S57.3,78.9,54.1,78.9c-3.1,0-21.2,16.5-23.9,16.5S0,71.7,0,71.7C0,75.8,23.1,107.2,25.3,107.2z"/>
<g>
</g>
<g>
</g>
<g>
</g>
<g>
</g>
<g>
</g>
<g>
</g>
</svg>
