<?xml version="1.0" encoding="utf-8"?>
<!-- Generator: Adobe Illustrator 23.0.3, SVG Export Plug-In . SVG Version: 6.00 Build 0)  -->
<svg version="1.1" id="Ebene_1" xmlns="http://www.w3.org/2000/svg" xmlns:xlink="http://www.w3.org/1999/xlink" x="0px" y="0px"
	 viewBox="0 0 283.5 161" width="283.5" height="161" style="enable-background:new 0 0 283.5 161;" xml:space="preserve">
<style type="text/css">
	.st0{fill:#6FBE95;}
	.st1{fill:#50B792;}
</style>
<path class="st0" d="M242,17.3C186.6-5.8,96.9-5.8,41.5,17.3c-55.3,23.1-55.3,60.5,0,83.5c55.3,23.1,145.1,23.1,200.4,0
	C297.3,77.8,297.3,40.4,242,17.3z M171.5,39.9l40.7-17l16.2,6.7l-40.7,17l0.7,0.3l10.8,4.5l-48.4,3.8l9.1-20.2L171.5,39.9z
	 M83.1,41.9l-10.8,4.5l-9.1-20.2l48.4,3.8L100,34.9l40.7,17l-16.2,6.7l-40.7-17L83.1,41.9z M112,78.2l-40.7,17l-16.2-6.7l40.7-17
	l-0.7-0.3l-10.8-4.5l48.4-3.8L123.5,83L112,78.2z M171.9,88l11.6-4.8l-40.7-17l16.2-6.7l40.7,17l0.7-0.3l10.8-4.5l9.1,20.2L171.9,88
	z"/>
<path class="st1" d="M141.7,124.9C63.5,124.9,0,98.5,0,65.9v0V102C0,134.6,63.5,161,141.7,161s141.7-26.4,141.7-59.1V65.9v0
	C283.5,98.5,220,124.9,141.7,124.9z"/>
</svg>
