<?xml version="1.0" encoding="utf-8"?>
<!-- Generator: Adobe Illustrator 22.1.0, SVG Export Plug-In . SVG Version: 6.00 Build 0)  -->
<svg version="1.1" id="Ebene_1" xmlns="http://www.w3.org/2000/svg" xmlns:xlink="http://www.w3.org/1999/xlink" x="0px" y="0px"
	 viewBox="0 0 536.1 221.3" width="536" height="221" style="enable-background:new 0 0 536.1 221.3;" xml:space="preserve">
<style type="text/css">
	.st0{enable-background:new    ;}
	.st1{clip-path:url(#SVGID_2_);enable-background:new    ;}
	.st2{fill:#787878;}
	.st3{fill:#7C7C7C;}
	.st4{fill:#818181;}
	.st5{fill:#858585;}
	.st6{fill:#8A8A8A;}
	.st7{fill:#8F8F8F;}
	.st8{fill:#939393;}
	.st9{fill:#989898;}
	.st10{clip-path:url(#SVGID_4_);enable-background:new    ;}
	.st11{fill:#7E7E7E;}
	.st12{clip-path:url(#SVGID_6_);enable-background:new    ;}
	.st13{clip-path:url(#SVGID_8_);enable-background:new    ;}
	.st14{clip-path:url(#SVGID_10_);enable-background:new    ;}
	.st15{fill:#8C8C8C;}
	.st16{fill:#888888;}
	.st17{fill:#838383;}
	.st18{clip-path:url(#SVGID_12_);enable-background:new    ;}
	.st19{fill:#DCDCDC;}
	.st20{clip-path:url(#SVGID_14_);enable-background:new    ;}
	.st21{fill:#919191;}
	.st22{fill:#969696;}
	.st23{fill:#9B9B9B;}
	.st24{fill:#A0A0A0;}
	.st25{clip-path:url(#SVGID_16_);enable-background:new    ;}
	.st26{fill:#D1D1D1;}
	.st27{fill:#1A8B59;}
	.st28{fill:#1D9961;}
	.st29{fill:#1FA669;}
	.st30{fill:#1A8D59;}
	.st31{fill:#1A8C59;}
	.st32{fill:#1FA367;}
	.st33{fill:#1FA368;}
</style>
<g>
	<g>
		<g class="st0">
			<g class="st0">
				<defs>
					<path id="SVGID_1_" class="st0" d="M535,60.1c-3.1,34.5-6.2,69-9.3,103.4c0-0.2,0-0.4,0-0.6c0-0.2,0-0.4,0-0.6
						c0-0.2,0-0.4,0-0.6c0-0.2,0-0.4,0-0.6c-0.2-1.9-0.8-3.8-1.8-5.7c-1-1.9-2.4-3.8-4.2-5.6c-1.8-1.9-4-3.7-6.7-5.5
						c-2.6-1.8-5.7-3.6-9.1-5.3c-3.3-1.7-7-3.4-11.1-5c-4-1.6-8.4-3.2-13-4.7c-4.7-1.5-9.7-3-15-4.4c-5.3-1.4-10.9-2.8-16.8-4.1
						c-12.2-2.7-25.3-5.1-39.2-7.2c-13.9-2.1-28.5-3.8-43.8-5.2c-15.2-1.4-31.1-2.5-47.3-3.2c-16.2-0.7-32.9-1.1-49.8-1.1
						s-33.6,0.4-49.8,1.1c-16.2,0.7-32.1,1.8-47.3,3.2c-15.2,1.4-29.9,3.2-43.8,5.2c-13.9,2.1-27,4.5-39.2,7.2
						c-5.9,1.3-11.5,2.7-16.8,4.1c-5.3,1.4-10.3,2.9-15,4.4c-4.7,1.5-9,3.1-13,4.7c-4,1.6-7.7,3.3-11.1,5c-3.4,1.8-6.5,3.5-9.1,5.3
						c-2.6,1.8-4.9,3.6-6.7,5.5c-1.8,1.9-3.2,3.7-4.2,5.6c-1,1.9-1.6,3.8-1.8,5.7c0,0.2,0,0.4,0,0.6c0,0.2,0,0.4,0,0.6
						c0,0.2,0,0.4,0,0.6c0,0.2,0,0.4,0,0.6L1,60.1c0-0.2,0-0.4,0-0.6c0-0.2,0-0.4,0-0.6c0-0.2,0-0.4,0-0.6c0-0.2,0-0.4,0-0.6
						c0.2-1.9,0.8-3.8,1.8-5.7c1-1.9,2.5-3.8,4.4-5.6c1.9-1.9,4.2-3.7,6.9-5.5c2.7-1.8,5.9-3.6,9.4-5.3c3.5-1.7,7.3-3.4,11.5-5
						c4.2-1.6,8.7-3.2,13.5-4.7c4.8-1.5,10-3,15.5-4.4c5.5-1.4,11.3-2.8,17.4-4.1c12.6-2.7,26.2-5.1,40.6-7.2
						c14.4-2.1,29.6-3.8,45.3-5.2c15.8-1.4,32.2-2.5,49-3.2C233.3,1,250.5,0.7,268,0.7s34.8,0.4,51.6,1.1c16.8,0.7,33.2,1.8,49,3.2
						c15.8,1.4,31,3.2,45.3,5.2c14.4,2.1,28,4.5,40.6,7.2c6.1,1.3,11.9,2.7,17.4,4.1c5.5,1.4,10.7,2.9,15.5,4.4
						c4.8,1.5,9.3,3.1,13.5,4.7c4.2,1.6,8,3.3,11.5,5c3.6,1.8,6.7,3.5,9.4,5.3c2.7,1.8,5,3.6,6.9,5.5c1.9,1.9,3.4,3.7,4.4,5.6
						c1,1.9,1.7,3.8,1.8,5.7c0,0.2,0,0.4,0,0.6c0,0.2,0,0.4,0,0.6c0,0.2,0,0.4,0,0.6C535.1,59.7,535.1,59.9,535,60.1z"/>
				</defs>
				<clipPath id="SVGID_2_">
					<use xlink:href="#SVGID_1_"  style="overflow:visible;"/>
				</clipPath>
				<g class="st1">
					<path class="st2" d="M535,60.1l-9.3,103.4c0-0.2,0-0.4,0-0.6c0-0.2,0-0.4,0-0.6c0-0.2,0-0.4,0-0.6c0-0.2,0-0.4,0-0.6
						c-0.2-1.9-0.8-3.8-1.8-5.7c-1-1.9-2.4-3.8-4.2-5.6c-1.8-1.9-4-3.7-6.7-5.5c-2.6-1.8-5.7-3.6-9.1-5.3c-2.4-1.2-4.9-2.4-7.6-3.6
						c-2.7-1.2-5.6-2.3-8.6-3.4c-3-1.1-6.3-2.2-9.6-3.3c-3.4-1.1-6.9-2.1-10.6-3.1l7.1-103.4c3.8,1,7.5,2.1,11,3.1
						c3.5,1.1,6.8,2.2,10,3.3c3.2,1.1,6.1,2.3,9,3.4c2.8,1.2,5.5,2.4,7.9,3.6c3.6,1.8,6.7,3.5,9.4,5.3c2.7,1.8,5,3.6,6.9,5.5
						c1.9,1.9,3.4,3.7,4.4,5.6c1,1.9,1.7,3.8,1.8,5.7c0,0.2,0,0.4,0,0.6c0,0.2,0,0.4,0,0.6c0,0.2,0,0.4,0,0.6
						C535.1,59.7,535.1,59.9,535,60.1"/>
					<path class="st3" d="M474.6,22.1l-7.1,103.4c-1.5-0.4-3-0.8-4.6-1.2c-1.6-0.4-3.1-0.8-4.8-1.2c-1.6-0.4-3.3-0.8-4.9-1.2
						c-1.7-0.4-3.4-0.8-5.1-1.2c-3.2-0.7-6.4-1.4-9.7-2c-3.3-0.7-6.7-1.3-10.1-1.9c-3.4-0.6-6.9-1.2-10.4-1.8
						c-3.5-0.6-7.1-1.1-10.7-1.7l4.9-103.4c3.8,0.5,7.5,1.1,11.1,1.7c3.7,0.6,7.3,1.2,10.8,1.8c3.5,0.6,7,1.3,10.4,1.9
						c3.4,0.7,6.8,1.3,10.1,2c1.8,0.4,3.5,0.8,5.3,1.2c1.7,0.4,3.4,0.8,5.1,1.2c1.7,0.4,3.3,0.8,4.9,1.2
						C471.5,21.3,473.1,21.7,474.6,22.1"/>
					<path class="st4" d="M412.2,9.9l-4.9,103.4c-7-1-14.1-2-21.4-2.8c-7.3-0.9-14.8-1.6-22.4-2.3c-7.6-0.7-15.4-1.3-23.3-1.8
						c-7.9-0.5-15.9-1-24-1.3l1.7-103.4c8.4,0.3,16.7,0.8,24.9,1.3c8.2,0.5,16.2,1.1,24.1,1.8c7.9,0.7,15.7,1.5,23.2,2.3
						C397.5,7.9,404.9,8.9,412.2,9.9"/>
					<path class="st5" d="M317.7,1.7L316,105.1c-3.9-0.2-7.8-0.3-11.8-0.4c-4-0.1-7.9-0.2-11.9-0.3c-4-0.1-8-0.1-12.1-0.2
						c-4,0-8.1-0.1-12.2-0.1c-5.2,0-10.3,0-15.4,0.1c-5.1,0.1-10.2,0.2-15.3,0.3c-5.1,0.1-10.1,0.3-15.1,0.5
						c-5,0.2-9.9,0.4-14.8,0.7L205.3,2.3c5.1-0.3,10.2-0.5,15.4-0.7c5.2-0.2,10.4-0.4,15.6-0.5c5.2-0.1,10.5-0.2,15.8-0.3
						c5.3-0.1,10.6-0.1,16-0.1c4.2,0,8.4,0,12.6,0.1c4.2,0,8.3,0.1,12.5,0.2c4.1,0.1,8.3,0.2,12.4,0.3
						C309.6,1.4,313.6,1.5,317.7,1.7"/>
					<path class="st6" d="M205.3,2.3l2.1,103.4c-7.6,0.4-15.1,0.9-22.4,1.5c-7.4,0.6-14.6,1.2-21.7,1.9c-7.1,0.7-14.1,1.5-20.9,2.4
						c-6.8,0.9-13.5,1.8-19.9,2.8l-5.2-103.4c6.7-1,13.6-1.9,20.6-2.8c7-0.9,14.3-1.7,21.6-2.4c7.4-0.7,14.8-1.4,22.5-1.9
						C189.7,3.2,197.4,2.7,205.3,2.3"/>
					<path class="st7" d="M117.4,10.9l5.2,103.4c-3,0.5-6.1,1-9,1.5c-3,0.5-5.9,1-8.8,1.6c-2.9,0.5-5.7,1.1-8.5,1.7
						c-2.8,0.6-5.6,1.2-8.3,1.8c-1.8,0.4-3.5,0.8-5.2,1.2c-1.7,0.4-3.4,0.8-5,1.2c-1.6,0.4-3.3,0.8-4.9,1.2
						c-1.6,0.4-3.2,0.8-4.7,1.3L61,22.2c1.6-0.4,3.2-0.8,4.9-1.3c1.7-0.4,3.3-0.8,5-1.2c1.7-0.4,3.4-0.8,5.2-1.2
						c1.8-0.4,3.6-0.8,5.4-1.2c2.8-0.6,5.7-1.2,8.6-1.8c2.9-0.6,5.8-1.1,8.8-1.7c3-0.5,6-1.1,9.1-1.6
						C111.1,11.8,114.2,11.3,117.4,10.9"/>
					<path class="st8" d="M61,22.2l7.1,103.4c-3.3,0.9-6.5,1.9-9.5,2.8c-3,1-6,1.9-8.7,2.9c-2.8,1-5.4,2-8,3.1
						c-2.5,1-4.9,2.1-7.1,3.2L26.4,34.2c2.3-1.1,4.8-2.1,7.4-3.2c2.6-1,5.4-2.1,8.2-3.1c2.9-1,5.9-2,9.1-2.9
						C54.3,24.1,57.6,23.1,61,22.2"/>
					<path class="st9" d="M26.4,34.2l8.3,103.4c-0.2,0.1-0.5,0.2-0.7,0.3c-0.2,0.1-0.5,0.2-0.7,0.3c-0.2,0.1-0.5,0.2-0.7,0.3
						c-0.2,0.1-0.4,0.2-0.7,0.3c-1.8,0.9-3.4,1.8-5,2.8c-1.6,0.9-3,1.9-4.4,2.8c-1.3,0.9-2.6,1.9-3.7,2.8c-1.1,1-2.1,1.9-3.1,2.9
						l-9-103.4c0.9-1,2-1.9,3.2-2.9c1.2-1,2.5-1.9,3.9-2.8c1.4-0.9,2.9-1.9,4.5-2.8c1.6-0.9,3.4-1.8,5.2-2.8
						c0.2-0.1,0.5-0.2,0.7-0.3c0.2-0.1,0.5-0.2,0.7-0.3c0.2-0.1,0.5-0.2,0.7-0.3C26,34.4,26.2,34.3,26.4,34.2"/>
					<path class="st8" d="M6.9,46.8l9,103.4c-0.4,0.4-0.7,0.8-1.1,1.2c-0.3,0.4-0.7,0.8-1,1.2c-0.3,0.4-0.6,0.8-0.9,1.2
						c-0.3,0.4-0.5,0.8-0.7,1.2L3,51.7c0.2-0.4,0.5-0.8,0.8-1.2c0.3-0.4,0.6-0.8,0.9-1.2c0.3-0.4,0.7-0.8,1-1.2
						C6.1,47.6,6.5,47.2,6.9,46.8"/>
					<path class="st7" d="M3,51.7l9.2,103.4c-0.1,0.3-0.3,0.5-0.4,0.8c-0.1,0.3-0.2,0.5-0.4,0.8c-0.1,0.3-0.2,0.5-0.3,0.8
						c-0.1,0.3-0.2,0.5-0.3,0.8L1.7,54.8c0.1-0.3,0.2-0.5,0.3-0.8c0.1-0.3,0.2-0.5,0.3-0.8c0.1-0.3,0.2-0.5,0.4-0.8
						C2.8,52.2,2.9,52,3,51.7"/>
					<path class="st6" d="M1.7,54.8l9.3,103.4c-0.1,0.2-0.1,0.4-0.2,0.7c-0.1,0.2-0.1,0.4-0.2,0.7c0,0.2-0.1,0.4-0.1,0.7
						c0,0.2-0.1,0.4-0.1,0.7L1.1,57.4c0-0.2,0.1-0.4,0.1-0.7c0-0.2,0.1-0.4,0.1-0.7c0-0.2,0.1-0.4,0.2-0.7C1.5,55.2,1.6,55,1.7,54.8
						"/>
					<path class="st5" d="M1.1,57.4l9.3,103.4c0,0,0,0.1,0,0.1s0,0.1,0,0.1c0,0,0,0.1,0,0.1c0,0,0,0.1,0,0.1c0,0.2,0,0.4,0,0.6
						c0,0.2,0,0.4,0,0.6c0,0.2,0,0.4,0,0.6c0,0.2,0,0.4,0,0.6L1,60c0-0.2,0-0.4,0-0.6c0-0.2,0-0.4,0-0.6c0-0.2,0-0.4,0-0.6
						c0-0.2,0-0.4,0-0.6c0,0,0-0.1,0-0.1c0,0,0-0.1,0-0.1S1.1,57.5,1.1,57.4C1.1,57.5,1.1,57.4,1.1,57.4"/>
					<path class="st4" d="M1,60l9.3,103.4c0,0,0,0,0,0s0,0,0,0c0,0,0,0,0,0c0,0,0,0,0,0L1,60.1C1,60.1,1,60.1,1,60C1,60,1,60,1,60
						C1,60,1,60,1,60C1,60,1,60,1,60"/>
				</g>
			</g>
			<g class="st0">
				<defs>
					<path id="SVGID_3_" class="st0" d="M12.6,170.1c-0.3-0.5-0.6-1.1-0.9-1.6c-0.3-0.5-0.5-1.1-0.7-1.6c-0.2-0.6-0.3-1.1-0.5-1.7
						c-0.1-0.6-0.2-1.1-0.3-1.7L1,60.1c0.1,0.6,0.1,1.1,0.3,1.7c0.1,0.6,0.3,1.1,0.5,1.7C2,64,2.2,64.5,2.5,65.1
						c0.3,0.5,0.6,1.1,0.9,1.6C6.5,101.2,9.5,135.7,12.6,170.1z"/>
				</defs>
				<clipPath id="SVGID_4_">
					<use xlink:href="#SVGID_3_"  style="overflow:visible;"/>
				</clipPath>
				<g class="st10">
					<path class="st11" d="M56.2,94.3l7.5,103.4c-3.6-1.1-7.1-2.2-10.4-3.3c-3.3-1.1-6.4-2.3-9.3-3.4c-2.9-1.2-5.7-2.4-8.3-3.6
						c-2.6-1.2-5-2.4-7.2-3.7c-2.9-1.6-5.4-3.3-7.6-4.9c-2.2-1.7-4-3.3-5.6-5c-1.5-1.7-2.7-3.4-3.5-5.1c-0.8-1.7-1.3-3.4-1.5-5.2
						L1,60.1c0.2,1.7,0.7,3.5,1.5,5.2c0.9,1.7,2.1,3.4,3.6,5.1c1.6,1.7,3.5,3.4,5.7,5c2.3,1.7,4.9,3.3,7.8,4.9
						c2.3,1.3,4.8,2.5,7.4,3.7c2.7,1.2,5.5,2.4,8.6,3.6c3,1.2,6.3,2.3,9.7,3.4C48.9,92.1,52.5,93.2,56.2,94.3"/>
				</g>
			</g>
			<g class="st0">
				<defs>
					<path id="SVGID_5_" class="st0" d="M12.6,170.1c-3.1-34.5-6.2-69-9.2-103.4c0.7,1,1.4,2.1,2.4,3.1c0.9,1,2,2.1,3.2,3.1
						c1.2,1,2.5,2.1,3.9,3.1c1.4,1,3,2,4.7,3c1.7,19.8,3.4,39.6,5,59.4c0.7,8,1.3,15.9,2,23.9c0.1,0.9,0.2,2.1,0.3,3
						c0.1,0.9,0.2,2.1,0.3,3c0.2,2.9,0.5,5.8,0.7,8.7c0.1,1.6,0.4,3.8,0.5,5.4c-1.7-1-3.2-2-4.6-3c-1.4-1-2.7-2-3.8-3.1
						c-1.1-1-2.2-2.1-3.1-3.1C14,172.2,13.2,171.2,12.6,170.1z"/>
				</defs>
				<clipPath id="SVGID_6_">
					<use xlink:href="#SVGID_5_"  style="overflow:visible;"/>
				</clipPath>
				<g class="st12">
					<path class="st11" d="M56.2,94.3l7.5,103.4c-3.6-1.1-7.1-2.2-10.4-3.3c-3.3-1.1-6.4-2.3-9.3-3.4c-2.9-1.2-5.7-2.4-8.3-3.6
						c-2.6-1.2-5-2.4-7.2-3.7c-2.9-1.6-5.4-3.3-7.6-4.9c-2.2-1.7-4-3.3-5.6-5c-1.5-1.7-2.7-3.4-3.5-5.1c-0.8-1.7-1.3-3.4-1.5-5.2
						L1,60.1c0.2,1.7,0.7,3.5,1.5,5.2c0.9,1.7,2.1,3.4,3.6,5.1c1.6,1.7,3.5,3.4,5.7,5c2.3,1.7,4.9,3.3,7.8,4.9
						c2.3,1.3,4.8,2.5,7.4,3.7c2.7,1.2,5.5,2.4,8.6,3.6c3,1.2,6.3,2.3,9.7,3.4C48.9,92.1,52.5,93.2,56.2,94.3"/>
				</g>
			</g>
			<g class="st0">
				<defs>
					<path id="SVGID_7_" class="st0" d="M26.3,182.5c-2.9-34.5-5.8-69-8.8-103.4c0.2,0.1,0.4,0.2,0.5,0.3c0.2,0.1,0.4,0.2,0.5,0.3
						c0.2,0.1,0.4,0.2,0.6,0.3c0.2,0.1,0.4,0.2,0.6,0.3c1.8,1,3.8,2,5.8,3c2.1,1,4.2,1.9,6.5,2.9c2.3,0.9,4.7,1.9,7.2,2.8
						c2.5,0.9,5.2,1.8,7.9,2.7c2.6,34.5,5.2,69,7.8,103.4c-2.7-0.9-5.2-1.8-7.7-2.7c-2.4-0.9-4.8-1.8-7-2.8
						c-2.2-0.9-4.3-1.9-6.3-2.9c-2-1-3.9-2-5.6-3c-0.2-0.1-0.4-0.2-0.5-0.3c-0.2-0.1-0.4-0.2-0.5-0.3c-0.2-0.1-0.4-0.2-0.5-0.3
						C26.7,182.7,26.5,182.6,26.3,182.5z"/>
				</defs>
				<clipPath id="SVGID_8_">
					<use xlink:href="#SVGID_7_"  style="overflow:visible;"/>
				</clipPath>
				<g class="st13">
					<path class="st11" d="M56.2,94.3l7.5,103.4c-3.6-1.1-7.1-2.2-10.4-3.3c-3.3-1.1-6.4-2.3-9.3-3.4c-2.9-1.2-5.7-2.4-8.3-3.6
						c-2.6-1.2-5-2.4-7.2-3.7c-2.9-1.6-5.4-3.3-7.6-4.9c-2.2-1.7-4-3.3-5.6-5c-1.5-1.7-2.7-3.4-3.5-5.1c-0.8-1.7-1.3-3.4-1.5-5.2
						L1,60.1c0.2,1.7,0.7,3.5,1.5,5.2c0.9,1.7,2.1,3.4,3.6,5.1c1.6,1.7,3.5,3.4,5.7,5c2.3,1.7,4.9,3.3,7.8,4.9
						c2.3,1.3,4.8,2.5,7.4,3.7c2.7,1.2,5.5,2.4,8.6,3.6c3,1.2,6.3,2.3,9.7,3.4C48.9,92.1,52.5,93.2,56.2,94.3"/>
				</g>
			</g>
			<g class="st0">
				<defs>
					<path id="SVGID_9_" class="st0" d="M55.1,195.1c-2.6-34.5-5.2-69-7.8-103.4c2.1,0.7,4.3,1.4,6.6,2c2.3,0.7,4.6,1.3,7,2
						c2.4,0.6,4.9,1.3,7.4,1.9c2.5,0.6,5.1,1.2,7.8,1.8c11,2.5,22.8,4.7,35.3,6.7c12.5,2,25.7,3.7,39.5,5.2
						c13.8,1.5,28.2,2.7,42.9,3.6c14.8,0.9,30,1.6,45.6,1.9c0.3,34.5,0.7,68.9,1,103.4c0,0,0,0,0,0c-15-0.4-29.7-1-43.9-1.9
						c-14.3-0.9-28.1-2.1-41.4-3.6c-13.3-1.5-26-3.2-38.1-5.2c-12.1-2-23.4-4.2-34-6.7c-2.6-0.6-5.1-1.2-7.5-1.8
						c-2.4-0.6-4.8-1.3-7.1-1.9c-2.3-0.6-4.6-1.3-6.8-2C59.3,196.4,57.1,195.7,55.1,195.1z"/>
				</defs>
				<clipPath id="SVGID_10_">
					<use xlink:href="#SVGID_9_"  style="overflow:visible;"/>
				</clipPath>
				<g class="st14">
					<path class="st15" d="M333.4,115.4l-2.3,103.4c-5.1,0.3-10.2,0.5-15.4,0.8c-5.2,0.2-10.4,0.4-15.7,0.5
						c-5.3,0.1-10.6,0.3-15.9,0.3c-5.3,0.1-10.7,0.1-16.1,0.1c-4.2,0-8.4,0-12.6-0.1c-4.2,0-8.4-0.1-12.5-0.2
						c-4.2-0.1-8.3-0.2-12.4-0.3c-4.1-0.1-8.2-0.3-12.3-0.5l-1.8-103.4c4.2,0.2,8.5,0.3,12.7,0.5c4.3,0.1,8.6,0.2,12.9,0.3
						c4.3,0.1,8.6,0.2,13,0.2c4.4,0,8.7,0.1,13.1,0.1c5.6,0,11.1,0,16.7-0.1c5.5-0.1,11-0.2,16.5-0.3c5.5-0.1,10.9-0.3,16.2-0.5
						C322.8,116,328.1,115.7,333.4,115.4"/>
					<path class="st16" d="M216.3,116.1l1.8,103.4c-8.4-0.4-16.7-0.8-24.9-1.4c-8.2-0.6-16.2-1.2-24.1-2c-7.9-0.7-15.6-1.6-23.1-2.5
						c-7.5-0.9-14.8-1.9-21.9-3l-5.3-103.4c7.4,1.1,14.9,2.1,22.7,3c7.8,0.9,15.8,1.8,23.9,2.5c8.2,0.7,16.5,1.4,25,2
						C199,115.3,207.6,115.7,216.3,116.1"/>
					<path class="st17" d="M118.9,107.2l5.3,103.4c-3.7-0.6-7.3-1.2-10.9-1.8c-3.6-0.6-7.1-1.2-10.5-1.9c-3.4-0.7-6.8-1.3-10.1-2
						c-3.3-0.7-6.6-1.4-9.7-2.2c-1.7-0.4-3.4-0.8-5-1.2c-1.7-0.4-3.3-0.8-4.9-1.2c-1.6-0.4-3.2-0.8-4.7-1.3
						c-1.5-0.4-3.1-0.9-4.5-1.3L56.2,94.3c1.5,0.4,3.1,0.9,4.7,1.3c1.6,0.4,3.2,0.9,4.9,1.3c1.7,0.4,3.3,0.8,5.1,1.2
						c1.7,0.4,3.5,0.8,5.2,1.2c3.3,0.7,6.6,1.5,10.1,2.2c3.4,0.7,6.9,1.4,10.5,2c3.6,0.7,7.2,1.3,10.9,1.9
						C111.3,106.1,115.1,106.7,118.9,107.2"/>
					<path class="st11" d="M56.2,94.3l7.5,103.4c-3.6-1.1-7.1-2.2-10.4-3.3c-3.3-1.1-6.4-2.3-9.3-3.4c-2.9-1.2-5.7-2.4-8.3-3.6
						c-2.6-1.2-5-2.4-7.2-3.7c-2.9-1.6-5.4-3.3-7.6-4.9c-2.2-1.7-4-3.3-5.6-5c-1.5-1.7-2.7-3.4-3.5-5.1c-0.8-1.7-1.3-3.4-1.5-5.2
						L1,60.1c0.2,1.7,0.7,3.5,1.5,5.2c0.9,1.7,2.1,3.4,3.6,5.1c1.6,1.7,3.5,3.4,5.7,5c2.3,1.7,4.9,3.3,7.8,4.9
						c2.3,1.3,4.8,2.5,7.4,3.7c2.7,1.2,5.5,2.4,8.6,3.6c3,1.2,6.3,2.3,9.7,3.4C48.9,92.1,52.5,93.2,56.2,94.3"/>
				</g>
			</g>
			<g class="st0">
				<defs>
					<path id="SVGID_11_" class="st0" d="M240.4,220.3c-0.3-34.5-0.7-68.9-1-103.4c0,0,0,0,0,0c1.4,0,2.7,0.1,4.1,0.1
						c1.4,0,2.8,0.1,4.1,0.1c1.4,0,2.8,0,4.2,0.1c1.4,0,2.8,0,4.2,0c0.1,34.5,0.3,68.9,0.4,103.4c0,0,0,0,0,0c-1.3,0-2.7,0-4,0
						c-1.3,0-2.7,0-4-0.1s-2.7,0-4-0.1C243,220.3,241.7,220.3,240.4,220.3z"/>
				</defs>
				<clipPath id="SVGID_12_">
					<use xlink:href="#SVGID_11_"  style="overflow:visible;"/>
				</clipPath>
				<g class="st18">
					<path class="st15" d="M333.4,115.4l-2.3,103.4c-5.1,0.3-10.2,0.5-15.4,0.8c-5.2,0.2-10.4,0.4-15.7,0.5
						c-5.3,0.1-10.6,0.3-15.9,0.3c-5.3,0.1-10.7,0.1-16.1,0.1c-4.2,0-8.4,0-12.6-0.1c-4.2,0-8.4-0.1-12.5-0.2
						c-4.2-0.1-8.3-0.2-12.4-0.3c-4.1-0.1-8.2-0.3-12.3-0.5l-1.8-103.4c4.2,0.2,8.5,0.3,12.7,0.5c4.3,0.1,8.6,0.2,12.9,0.3
						c4.3,0.1,8.6,0.2,13,0.2c4.4,0,8.7,0.1,13.1,0.1c5.6,0,11.1,0,16.7-0.1c5.5-0.1,11-0.2,16.5-0.3c5.5-0.1,10.9-0.3,16.2-0.5
						C322.8,116,328.1,115.7,333.4,115.4"/>
				</g>
			</g>
			<g>
				<path class="st19" d="M268,0.7c17.5,0,34.8,0.4,51.6,1.1c16.8,0.7,33.2,1.8,49,3.2c15.8,1.4,31,3.2,45.3,5.2
					c14.4,2.1,28,4.5,40.6,7.2c6.1,1.3,11.9,2.7,17.4,4.1c5.5,1.4,10.7,2.9,15.5,4.4c4.8,1.5,9.3,3.1,13.5,4.7c4.2,1.6,8,3.3,11.5,5
					c3.6,1.8,6.7,3.5,9.4,5.3c2.7,1.8,5,3.6,6.9,5.5c1.9,1.9,3.4,3.7,4.4,5.6c1,1.9,1.7,3.8,1.8,5.7c0.2,1.9-0.1,3.9-0.8,5.8
					c-0.7,1.9-1.8,3.8-3.4,5.7c-1.6,1.9-3.6,3.8-6,5.6c-2.4,1.9-5.3,3.7-8.6,5.5c-3.2,1.8-6.8,3.5-10.8,5.2c-4,1.7-8.3,3.3-13,4.9
					c-4.7,1.6-9.8,3.1-15.2,4.6c-5.4,1.5-11.2,2.9-17.3,4.3c-12.6,2.9-26.4,5.4-41,7.6c-14.7,2.2-30.2,4.1-46.5,5.6
					c-16.3,1.5-33.3,2.7-50.7,3.4c-17.5,0.8-35.4,1.2-53.7,1.2c-18.2,0-36.2-0.4-53.7-1.2c-17.5-0.8-34.4-1.9-50.7-3.4
					c-16.3-1.5-31.8-3.4-46.5-5.6c-14.6-2.2-28.4-4.8-41-7.6C70,98,64.2,96.5,58.8,95c-5.4-1.5-10.5-3-15.2-4.6
					c-4.7-1.6-9-3.2-13-4.9c-4-1.7-7.6-3.4-10.8-5.2c-3.3-1.8-6.2-3.6-8.6-5.5c-2.4-1.8-4.4-3.7-6-5.6c-1.6-1.9-2.7-3.8-3.4-5.7
					c-0.7-1.9-0.9-3.8-0.8-5.8c0.2-1.9,0.8-3.8,1.8-5.7c1-1.9,2.5-3.8,4.4-5.6c1.9-1.9,4.2-3.7,6.9-5.5c2.7-1.8,5.9-3.6,9.4-5.3
					c3.5-1.7,7.3-3.4,11.5-5c4.2-1.6,8.7-3.2,13.5-4.7c4.8-1.5,10-3,15.5-4.4c5.5-1.4,11.3-2.8,17.4-4.1c12.6-2.7,26.2-5.1,40.6-7.2
					c14.4-2.1,29.6-3.8,45.3-5.2c15.8-1.4,32.2-2.5,49-3.2C233.3,1,250.5,0.7,268,0.7z"/>
			</g>
			<g class="st0">
				<defs>
					<path id="SVGID_13_" class="st0" d="M256.4,220.5c-0.1-34.5-0.3-68.9-0.4-103.4c0,0,0,0,0,0c1,0,2,0,3,0c1,0,2,0,3,0
						c1,0,2,0,3,0c1,0,2,0,3,0c18.2,0,36.2-0.4,53.7-1.2c17.5-0.8,34.4-1.9,50.7-3.4c16.3-1.5,31.8-3.4,46.5-5.6
						c14.6-2.2,28.4-4.8,41-7.6c6.1-1.4,11.9-2.8,17.3-4.3c5.4-1.5,10.5-3,15.2-4.6c4.7-1.6,9-3.2,13-4.9c4-1.7,7.6-3.4,10.8-5.2
						c3-1.6,5.6-3.3,7.8-4.9c2.3-1.7,4.2-3.3,5.7-5c1.6-1.7,2.8-3.4,3.6-5.1c0.9-1.7,1.4-3.4,1.5-5.2l-9.3,103.4
						c-0.2,1.7-0.6,3.5-1.5,5.2c-0.8,1.7-2,3.4-3.5,5.1c-1.5,1.7-3.4,3.4-5.6,5c-2.2,1.7-4.7,3.3-7.6,4.9c-3.1,1.8-6.6,3.5-10.4,5.2
						c-3.8,1.7-8,3.3-12.6,4.9c-4.5,1.6-9.4,3.1-14.7,4.6c-5.2,1.5-10.8,2.9-16.7,4.3c-12.2,2.9-25.5,5.4-39.6,7.6
						c-14.2,2.2-29.2,4.1-44.9,5.6c-15.7,1.5-32.1,2.7-48.9,3.4c-16.9,0.8-34.2,1.2-51.8,1.2c-1,0-1.9,0-2.9,0c-1,0-1.9,0-2.9,0
						c-1,0-1.9,0-2.9,0C258.3,220.5,257.4,220.5,256.4,220.5z"/>
				</defs>
				<clipPath id="SVGID_14_">
					<use xlink:href="#SVGID_13_"  style="overflow:visible;"/>
				</clipPath>
				<g class="st20">
					<path class="st21" d="M535,60.1l-9.3,103.4c0,0.1,0,0.1,0,0.2s0,0.1,0,0.2c0,0.1,0,0.1,0,0.2c0,0.1,0,0.1,0,0.2L535,60.7
						c0-0.1,0-0.1,0-0.2c0-0.1,0-0.1,0-0.2s0-0.1,0-0.2C535,60.2,535,60.1,535,60.1"/>
					<path class="st22" d="M535,60.7l-9.3,103.4c0,0.3-0.1,0.5-0.1,0.8c-0.1,0.3-0.1,0.5-0.2,0.8c-0.1,0.3-0.1,0.5-0.2,0.8
						c-0.1,0.3-0.2,0.5-0.3,0.8l9.3-103.4c0.1-0.3,0.2-0.5,0.3-0.8c0.1-0.3,0.2-0.5,0.2-0.8c0.1-0.3,0.1-0.5,0.2-0.8
						C534.9,61.2,534.9,61,535,60.7"/>
					<path class="st23" d="M534.2,63.8l-9.3,103.4c-0.2,0.4-0.3,0.8-0.5,1.3c-0.2,0.4-0.4,0.8-0.7,1.2c-0.2,0.4-0.5,0.8-0.8,1.2
						c-0.3,0.4-0.6,0.8-0.9,1.2l9.2-103.4c0.3-0.4,0.6-0.8,0.9-1.2c0.3-0.4,0.6-0.8,0.8-1.2c0.2-0.4,0.5-0.8,0.7-1.2
						C533.8,64.6,534,64.2,534.2,63.8"/>
					<path class="st24" d="M531.2,68.8l-9.2,103.4c-0.8,1-1.6,2-2.6,2.9c-1,1-2.1,1.9-3.3,2.9c-1.2,1-2.5,1.9-3.9,2.9
						c-1.4,0.9-3,1.9-4.6,2.8c-0.2,0.1-0.4,0.2-0.6,0.4c-0.2,0.1-0.4,0.2-0.6,0.3s-0.4,0.2-0.6,0.3c-0.2,0.1-0.4,0.2-0.7,0.3
						l8.6-103.4c0.2-0.1,0.5-0.2,0.7-0.3c0.2-0.1,0.4-0.2,0.7-0.3c0.2-0.1,0.4-0.2,0.7-0.3c0.2-0.1,0.4-0.2,0.6-0.4
						c1.7-0.9,3.3-1.9,4.8-2.8c1.5-0.9,2.8-1.9,4.1-2.9c1.2-1,2.4-1.9,3.4-2.9C529.6,70.7,530.5,69.8,531.2,68.8"/>
					<path class="st23" d="M513.7,81.7l-8.6,103.4c-2.1,1.1-4.4,2.2-6.8,3.3c-2.4,1.1-5,2.1-7.6,3.2c-2.7,1-5.5,2.1-8.5,3.1
						c-3,1-6.1,2-9.3,2.9l7.5-103.4c3.4-1,6.6-1.9,9.7-3c3.1-1,6-2,8.8-3.1c2.8-1,5.4-2.1,7.9-3.2C509.1,83.9,511.5,82.8,513.7,81.7
						"/>
					<path class="st22" d="M480.3,94.2l-7.5,103.4c-1.5,0.4-3.1,0.9-4.6,1.3c-1.6,0.4-3.2,0.9-4.8,1.3c-1.6,0.4-3.3,0.9-5,1.3
						c-1.7,0.4-3.4,0.8-5.2,1.2c-2.7,0.6-5.5,1.3-8.3,1.9c-2.8,0.6-5.7,1.2-8.6,1.8c-2.9,0.6-5.9,1.1-8.9,1.7
						c-3,0.5-6.1,1.1-9.2,1.6l5.5-103.4c3.2-0.5,6.4-1,9.5-1.6c3.1-0.5,6.2-1.1,9.2-1.7c3-0.6,6-1.2,8.9-1.8
						c2.9-0.6,5.8-1.2,8.6-1.9c1.8-0.4,3.6-0.8,5.3-1.2c1.8-0.4,3.5-0.8,5.2-1.3c1.7-0.4,3.4-0.9,5-1.3
						C477.1,95.1,478.7,94.6,480.3,94.2"/>
					<path class="st21" d="M423.8,106.2l-5.5,103.4c-6.6,1.1-13.4,2.1-20.3,3c-7,0.9-14.1,1.8-21.4,2.5c-7.3,0.8-14.8,1.5-22.4,2.1
						c-7.6,0.6-15.3,1.1-23.2,1.6l2.3-103.4c8.1-0.4,16.2-1,24-1.6c7.9-0.6,15.6-1.3,23.2-2.1c7.6-0.8,15-1.6,22.2-2.5
						C410,108.3,417,107.3,423.8,106.2"/>
					<path class="st15" d="M333.4,115.4l-2.3,103.4c-5.1,0.3-10.2,0.5-15.4,0.8c-5.2,0.2-10.4,0.4-15.7,0.5
						c-5.3,0.1-10.6,0.3-15.9,0.3c-5.3,0.1-10.7,0.1-16.1,0.1c-4.2,0-8.4,0-12.6-0.1c-4.2,0-8.4-0.1-12.5-0.2
						c-4.2-0.1-8.3-0.2-12.4-0.3c-4.1-0.1-8.2-0.3-12.3-0.5l-1.8-103.4c4.2,0.2,8.5,0.3,12.7,0.5c4.3,0.1,8.6,0.2,12.9,0.3
						c4.3,0.1,8.6,0.2,13,0.2c4.4,0,8.7,0.1,13.1,0.1c5.6,0,11.1,0,16.7-0.1c5.5-0.1,11-0.2,16.5-0.3c5.5-0.1,10.9-0.3,16.2-0.5
						C322.8,116,328.1,115.7,333.4,115.4"/>
				</g>
			</g>
			<g class="st0">
				<defs>
					<path id="SVGID_15_" class="st0" d="M536,60.2l-9.3,103.4c-0.7,7.9-8.3,15.4-21.4,22.3c-13.2,6.9-32.1,13.1-55.3,18.4
						c-23.3,5.3-51,9.5-81.8,12.5c-30.8,3-64.7,4.6-100.2,4.6c-35.5,0-69.4-1.6-100.2-4.6c-30.8-2.9-58.5-7.2-81.8-12.5
						C62.8,199,44,192.8,30.8,185.9c-13.1-6.9-20.7-14.4-21.4-22.3c0,0,0,0,0,0c-3.1-34.5-6.2-69-9.3-103.4
						c0.7,7.9,8.5,15.4,22.1,22.3c13.7,6.9,33.2,13.1,57.3,18.4c24.2,5.3,52.9,9.5,84.7,12.5c32,3,67,4.6,103.9,4.6
						c36.8,0,71.9-1.6,103.9-4.6c31.9-3,60.6-7.2,84.7-12.5c24.1-5.2,43.6-11.5,57.3-18.4C527.5,75.6,535.3,68.1,536,60.2z"/>
				</defs>
				<clipPath id="SVGID_16_">
					<use xlink:href="#SVGID_15_"  style="overflow:visible;"/>
				</clipPath>
				<g class="st25">
					<path class="st6" d="M536,60.2l-9.3,103.4c0,0.1,0,0.1,0,0.2c0,0.1,0,0.1,0,0.2s0,0.1,0,0.2c0,0.1,0,0.1,0,0.2l9.3-103.4
						c0-0.1,0-0.1,0-0.2c0-0.1,0-0.1,0-0.2s0-0.1,0-0.2S536,60.2,536,60.2"/>
					<path class="st7" d="M535.9,60.9l-9.3,103.4c0,0.3-0.1,0.6-0.1,0.8c-0.1,0.3-0.1,0.6-0.2,0.8c-0.1,0.3-0.2,0.6-0.3,0.8
						c-0.1,0.3-0.2,0.6-0.3,0.8L535,64.3c0.1-0.3,0.2-0.6,0.3-0.8c0.1-0.3,0.2-0.6,0.3-0.8c0.1-0.3,0.1-0.6,0.2-0.8
						C535.8,61.5,535.9,61.2,535.9,60.9"/>
					<path class="st8" d="M535,64.3l-9.3,103.4c-0.2,0.5-0.4,0.9-0.6,1.4c-0.2,0.5-0.5,0.9-0.8,1.4c-0.3,0.5-0.6,0.9-0.9,1.4
						c-0.3,0.5-0.7,0.9-1,1.4l9.2-103.4c0.4-0.5,0.7-0.9,1.1-1.4c0.3-0.5,0.6-0.9,0.9-1.4c0.3-0.5,0.5-0.9,0.8-1.4
						C534.6,65.2,534.8,64.7,535,64.3"/>
					<path class="st9" d="M531.6,69.7l-9.2,103.4c-0.9,1.1-1.9,2.1-3,3.2c-1.1,1.1-2.4,2.1-3.8,3.1c-1.4,1-2.9,2.1-4.5,3.1
						c-1.6,1-3.4,2-5.2,3l8.6-103.4c1.9-1,3.7-2,5.4-3c1.7-1,3.2-2,4.7-3.1c1.4-1,2.7-2.1,3.9-3.1C529.7,71.9,530.7,70.8,531.6,69.7
						"/>
					<path class="st8" d="M514.5,82.2l-8.6,103.4c-2.2,1.1-4.5,2.3-6.9,3.4c-2.5,1.1-5.1,2.2-7.8,3.3c-2.7,1.1-5.6,2.1-8.7,3.1
						c-3,1-6.2,2-9.5,3l7.5-103.4c3.4-1,6.7-2,9.8-3c3.1-1,6.1-2.1,9-3.1c2.8-1.1,5.5-2.1,8.1-3.3C509.9,84.4,512.3,83.3,514.5,82.2
						"/>
					<path class="st7" d="M480.5,94.9L473,198.3c-3.8,1.1-7.9,2.2-12.1,3.3c-4.2,1.1-8.6,2.1-13.1,3.1c-4.5,1-9.2,2-14.1,2.9
						c-4.8,0.9-9.8,1.8-15,2.6l5.5-103.4c5.3-0.8,10.5-1.7,15.5-2.6c5-0.9,9.9-1.9,14.6-2.9c4.7-1,9.2-2,13.6-3.1
						C472.3,97.1,476.5,96,480.5,94.9"/>
					<path class="st6" d="M424.3,106.9l-5.5,103.4c-6.5,1.1-13.3,2.1-20.2,3c-7,0.9-14.1,1.8-21.5,2.6c-7.4,0.8-14.9,1.5-22.6,2.1
						c-7.7,0.6-15.6,1.2-23.6,1.6l2.3-103.4c8.3-0.5,16.5-1,24.5-1.6c8-0.6,15.8-1.3,23.4-2.1c7.6-0.8,15-1.6,22.2-2.6
						C410.6,108.9,417.5,107.9,424.3,106.9"/>
					<path class="st5" d="M333.2,116.1l-2.3,103.4c-5,0.3-10.1,0.5-15.3,0.8c-5.1,0.2-10.3,0.4-15.6,0.5c-5.2,0.1-10.5,0.3-15.9,0.3
						c-5.3,0.1-10.7,0.1-16.1,0.1c-4.2,0-8.5,0-12.7-0.1c-4.2,0-8.4-0.1-12.5-0.2c-4.1-0.1-8.3-0.2-12.3-0.3
						c-4.1-0.1-8.1-0.3-12.1-0.5l-1.8-103.4c4.2,0.2,8.4,0.3,12.6,0.5c4.2,0.1,8.5,0.2,12.8,0.3c4.3,0.1,8.6,0.2,13,0.2
						c4.3,0,8.7,0.1,13.1,0.1c5.6,0,11.2,0,16.7-0.1c5.5-0.1,11-0.2,16.4-0.3c5.4-0.1,10.8-0.3,16.1-0.5
						C322.7,116.7,328,116.4,333.2,116.1"/>
					<path class="st4" d="M216.6,116.8l1.8,103.4c-8.6-0.4-17.1-0.9-25.4-1.4c-8.3-0.6-16.4-1.2-24.3-2c-7.9-0.7-15.6-1.6-23.1-2.5
						c-7.5-0.9-14.7-1.9-21.8-3l-5.3-103.4c7.3,1.1,14.8,2.1,22.5,3c7.8,0.9,15.8,1.8,23.9,2.5c8.2,0.8,16.6,1.4,25.2,2
						C198.9,116,207.6,116.4,216.6,116.8"/>
					<path class="st3" d="M118.6,107.9l5.3,103.4c-5.8-0.9-11.4-1.8-16.8-2.8c-5.4-1-10.7-2-15.7-3.1c-5-1.1-9.9-2.2-14.6-3.4
						c-4.6-1.2-9.1-2.4-13.3-3.6L56,95c4.4,1.2,9,2.4,13.8,3.6c4.8,1.2,9.8,2.3,15.1,3.4c5.2,1.1,10.7,2.1,16.3,3.1
						C106.8,106.1,112.6,107,118.6,107.9"/>
					<path class="st2" d="M56,95l7.5,103.4c-8.3-2.4-15.7-5-22.3-7.7c-6.5-2.7-12.1-5.5-16.8-8.5c-4.6-2.9-8.2-6-10.8-9.1
						c-2.5-3.1-4-6.3-4.3-9.6L0.1,60.2c0.3,3.3,1.8,6.4,4.4,9.6c2.6,3.1,6.4,6.2,11.1,9.1c4.8,2.9,10.6,5.8,17.4,8.5
						C39.7,90,47.4,92.6,56,95"/>
				</g>
			</g>
			<g>
				<path class="st26" d="M268,0c36.3,0,70.8,1.6,102.4,4.5c31.6,2.9,60.2,7,84.4,12.2C479.1,21.9,499,28.1,513,35
					c14.1,7,22.3,14.6,23,22.8c0.8,8.2-6,16-19.1,23.1c-13.1,7.2-32.4,13.7-56.6,19.2c-24.3,5.5-53.4,10-86,13.1
					c-32.6,3.1-68.5,4.8-106.3,4.8c-37.8,0-73.7-1.7-106.3-4.8c-32.5-3.1-61.7-7.6-86-13.1c-24.2-5.5-43.5-12-56.6-19.2
					c-13-7.1-19.8-15-19.1-23.1C0.8,49.6,9,41.9,23.1,35c14-6.9,33.9-13.1,58.2-18.3c24.2-5.2,52.8-9.3,84.4-12.2
					C197.2,1.6,231.8,0,268,0z M516.3,80.3c3.3-1.8,6.2-3.6,8.6-5.5c2.4-1.8,4.4-3.7,6-5.6c1.6-1.9,2.7-3.8,3.4-5.7
					c0.7-1.9,0.9-3.8,0.8-5.8c-0.2-1.9-0.8-3.8-1.8-5.7c-1-1.9-2.5-3.8-4.4-5.6c-1.9-1.9-4.2-3.7-6.9-5.5c-2.7-1.8-5.9-3.6-9.4-5.3
					c-3.5-1.7-7.3-3.4-11.5-5c-4.2-1.6-8.7-3.2-13.5-4.7c-4.8-1.5-10-3-15.5-4.4c-5.5-1.4-11.3-2.8-17.4-4.1
					c-12.6-2.7-26.2-5.1-40.6-7.2c-14.4-2.1-29.6-3.8-45.3-5.2c-15.8-1.4-32.2-2.5-49-3.2C302.8,1,285.6,0.7,268,0.7
					S233.3,1,216.5,1.7c-16.8,0.7-33.2,1.8-49,3.2c-15.8,1.4-31,3.2-45.3,5.2c-14.4,2.1-28,4.5-40.6,7.2c-6.1,1.3-11.9,2.7-17.4,4.1
					c-5.5,1.4-10.7,2.9-15.5,4.4c-4.8,1.5-9.3,3.1-13.5,4.7c-4.2,1.6-8,3.3-11.5,5c-3.6,1.8-6.7,3.5-9.4,5.3c-2.7,1.8-5,3.6-6.9,5.5
					c-1.9,1.9-3.4,3.7-4.4,5.6c-1,1.9-1.7,3.8-1.8,5.7c-0.2,1.9,0.1,3.9,0.8,5.8c0.7,1.9,1.8,3.8,3.4,5.7c1.6,1.9,3.6,3.8,6,5.6
					c2.4,1.9,5.3,3.7,8.6,5.5c3.2,1.8,6.8,3.5,10.8,5.2c4,1.7,8.3,3.3,13,4.9c4.7,1.6,9.8,3.1,15.2,4.6c5.4,1.5,11.2,2.9,17.3,4.3
					c12.6,2.9,26.4,5.4,41,7.6c14.7,2.2,30.2,4.1,46.5,5.6c16.3,1.5,33.3,2.7,50.7,3.4c17.5,0.8,35.4,1.2,53.7,1.2
					s36.2-0.4,53.7-1.2c17.5-0.8,34.4-1.9,50.7-3.4c16.3-1.5,31.8-3.4,46.5-5.6c14.6-2.2,28.4-4.8,41-7.6c6.1-1.4,11.9-2.8,17.3-4.3
					c5.4-1.5,10.5-3,15.2-4.6c4.7-1.6,9-3.2,13-4.9C509.5,83.8,513.1,82.1,516.3,80.3"/>
			</g>
		</g>
	</g>
</g>
<g>
	<g>
		<g class="st0">
			<g>
				<polygon class="st27" points="199.5,38.4 199.5,43.1 145.6,24.4 145.5,19.8 				"/>
			</g>
			<g>
				<polygon class="st28" points="241.4,44 241.4,48.7 182.6,48.7 182.5,44 				"/>
			</g>
			<g>
				<polygon class="st29" points="171.2,11.6 225.3,29.9 241.8,24.4 241.4,44 182.5,44 199.5,38.4 145.5,19.8 158.4,15.7 				"/>
			</g>
		</g>
		<g class="st0">
			<g>
				<polygon class="st30" points="320.7,20.2 320.7,24.8 304.2,19.4 304.2,14.9 				"/>
			</g>
			<g>
				<polygon class="st30" points="363.4,34.1 363.3,38.8 346.4,33.2 346.4,28.6 				"/>
			</g>
			<g>
				<polygon class="st31" points="278.6,43.2 278.5,47.8 265.7,43.5 265.7,38.8 				"/>
			</g>
			<g>
				<polygon class="st31" points="291.5,47.5 291.5,52.2 278.5,47.8 278.6,43.2 				"/>
			</g>
			<g>
				<polygon class="st32" points="346.4,28.6 346.4,33.2 291.5,52.2 291.5,47.5 				"/>
			</g>
			<g>
				<polygon class="st29" points="361.5,14.9 363.4,34.1 346.4,28.6 291.5,47.5 278.6,43.2 265.7,38.8 320.7,20.2 304.2,14.9 				
					"/>
			</g>
			<g>
				<polygon class="st32" points="337.1,55.9 337,60.6 320.5,66.4 320.6,61.7 				"/>
			</g>
			<g>
				<polygon class="st32" points="294.8,70.8 294.8,75.5 277.8,81.5 277.8,76.7 				"/>
			</g>
			<g>
				<polygon class="st32" points="254.2,60.4 254.2,65.1 195.8,85.2 195.8,80.4 				"/>
			</g>
			<g>
				<polygon class="st29" points="228.4,51.5 241.2,55.9 254.2,60.4 195.8,80.4 212.7,86.5 151.5,86.5 153.5,65.3 170,71.2 				"/>
			</g>
			<g>
				<polygon class="st33" points="380.1,81.8 380,86.7 367.2,91.4 367.3,86.5 				"/>
			</g>
			<g>
				<polygon class="st28" points="212.7,86.5 212.8,91.4 151.5,91.4 151.5,86.5 				"/>
			</g>
			<g>
				<polygon class="st33" points="367.3,86.5 367.2,91.4 354.3,96.1 354.4,91.2 				"/>
			</g>
			<g>
				<polygon class="st29" points="337.1,55.9 320.6,61.7 380.1,81.8 367.3,86.5 354.4,91.2 294.8,70.8 277.8,76.7 277.5,55.9 				
					"/>
			</g>
			<g>
				<polygon class="st27" points="354.4,91.2 354.3,96.1 294.8,75.5 294.8,70.8 				"/>
			</g>
		</g>
	</g>
</g>
</svg>
