<?xml version="1.0" encoding="utf-8"?>
<!-- Generator: Adobe Illustrator 23.0.3, SVG Export Plug-In . SVG Version: 6.00 Build 0)  -->
<svg version="1.1" id="Ebene_1" xmlns="http://www.w3.org/2000/svg" xmlns:xlink="http://www.w3.org/1999/xlink" x="0px" y="0px"
	 viewBox="0 0 166.8 202.4" width="166.8" height="202.4" style="enable-background:new 0 0 166.8 202.4;" xml:space="preserve">
<style type="text/css">
	.st0{fill:#CEBA8D;}
	.st1{fill:#F3DEC7;}
	.st2{fill:#FEE8D2;}
	.st3{fill:none;stroke:#706F6F;stroke-width:4;stroke-miterlimit:10;}
</style>
<line class="st0" x1="38.9" y1="30.1" x2="19.6" y2="33.5"/>
<path class="st1" d="M142.2,166.2c-0.1,0-0.2,0-0.3,0.1c-7-29.8,17.1-91.5,18.1-117c0.7-19.2,1-41.9-20-48.4
	C138,0.2,136.3,0,134.8,0l0,0l-0.4,0c-0.2,0-0.3,0-0.5,0L16.8,10C4,10.8-2.6,28.8,1.3,36.3L35,30.8l0,0c1.3-0.2,2.6-0.4,3.9-0.7
	c0,0,0,0,0,0c0,0,0,0,0,0c0,0,0,0,0,0c4.5,24.1-8.3,66.2-10.1,80.2c-2.8,21.7-15.2,62.2-1,81.3c5.6,7.5,11.9,10.5,17.7,10.7l0,0
	l0.1,0c2.3,0.1,4.6-0.3,6.6-1.1l90-14.5V166.2z"/>
<path class="st2" d="M154.2,186.5c-17.1,3-83.4,12.5-101.9,15.3c-18.4,2.8-23.6-8.3-28.2-16.5c16.4,23.5,21,4.3,15.5-8.3L166,158.8
	C166,158.8,171.3,183.5,154.2,186.5z"/>
<line class="st3" x1="57.9" y1="61.4" x2="141.6" y2="50.2"/>
<line class="st3" x1="55.6" y1="81.2" x2="139.4" y2="70"/>
<line class="st3" x1="49.5" y1="100.9" x2="133.3" y2="89.7"/>
<line class="st3" x1="43.8" y1="121.4" x2="127.6" y2="110.2"/>
<line class="st3" x1="41.3" y1="141.9" x2="125" y2="130.7"/>
<path class="st0" d="M1.3,36.4l36.2-6l1.5-0.3c0,0-11.3-26.2-26.7-19.1C-3.2,18.2,0.4,33.5,0.4,33.5S0.6,34.8,1.3,36.4z"/>
<g>
</g>
<g>
</g>
<g>
</g>
<g>
</g>
<g>
</g>
<g>
</g>
</svg>
