<?xml version="1.0" encoding="utf-8"?>
<!-- Generator: Adobe Illustrator 23.0.3, SVG Export Plug-In . SVG Version: 6.00 Build 0)  -->
<svg version="1.1" id="Ebene_1" xmlns="http://www.w3.org/2000/svg" xmlns:xlink="http://www.w3.org/1999/xlink" x="0px" y="0px"
	 viewBox="0 0 245.5 233.7" width="245.5" height="233.7" style="enable-background:new 0 0 245.5 233.7;" xml:space="preserve">
<style type="text/css">
	.st0{fill:#333333;}
	.st1{fill:#667788;}
	.st2{fill:#778899;}
	.st3{fill:#ADD9D4;}
	.st4{fill:#334455;}
</style>
<g>
	<g>
		<path class="st0" d="M0,192.9c0.4,0.3,1.7,1.3,3.8,2.8l3-4.7c-1.2-0.9-2.4-1.7-3.5-2.5L0,192.9z"/>
		<path class="st0" d="M13,195.2l-3,4.7c1.8,1.2,3.8,2.5,5.9,3.9l2.8-4.8C16.7,197.7,14.8,196.5,13,195.2z"/>
		<g>
			<path class="st0" d="M139.3,161.1c-0.4,10.7-3.7,40.3-14.7,48c-2.1,1.5-4.3,2.7-6.6,3.6c1.4-4.7,1.1-10.1-3-16
				c-5.5-7.9-16.1-12.3-25.1-10.5c-6.9,1.4-11.6,6.3-13,13.4c-1.3,6.2,1.6,12.1,7.8,16.1c5.3,3.5,13,5.4,21,5.1
				c-1.3,1.2-2.7,2.3-4.3,3.6c-13.3,10.1-43.2-2.5-67.7-16.5l-3.1,4.7c18,10.4,40.7,21,57.9,21c6.3,0,11.9-1.4,16.2-4.7
				c2.2-1.7,6.4-4.9,9.6-9.2c4.7-1.1,9.4-3.1,13.6-6.1c15.4-11,17-50.7,17-52.4L139.3,161.1z M111,214.8c-8.8,1.6-17.8,0-23.4-3.6
				c-3-1.9-6.4-5.3-5.3-10.4c1.3-6.3,5.5-8.4,8.7-9.1c1-0.2,2.1-0.3,3.1-0.3c6.1,0,12.7,3.3,16.3,8.5
				C113.9,205,114.2,209.8,111,214.8z"/>
			<path class="st0" d="M31.3,206.8c-3.1-1.8-6.2-3.7-9-5.5l-2.8,4.8c2.7,1.7,5.7,3.5,8.7,5.3L31.3,206.8z"/>
		</g>
	</g>
	<g>
		<g>
			<g>
				<path class="st1" d="M22.2,33.3V12c0-4.7,3.8-8.5,8.5-8.5h202.8c4.7,0,8.5,3.8,8.5,8.5v21.3H22.2z"/>
				<path class="st2" d="M233.5,7c2.8,0,5,2.2,5,5v17.8H25.7V12c0-2.8,2.2-5,5-5H233.5 M233.5,0H30.7c-6.6,0-12,5.4-12,12v24.8
					h226.8V12C245.5,5.4,240.1,0,233.5,0L233.5,0z"/>
			</g>
			<g>
				<rect x="22.2" y="48.8" class="st1" width="219.8" height="28.5"/>
				<path class="st2" d="M238.5,52.3v21.5H25.7V52.3H238.5 M245.5,45.3H18.7v35.5h226.8V45.3L245.5,45.3z"/>
			</g>
			<g>
				<path class="st1" d="M30.7,166.6c-4.7,0-8.5-3.8-8.5-8.5v-21.3H242v21.3c0,4.7-3.8,8.5-8.5,8.5H30.7z"/>
				<path class="st2" d="M238.5,140.3v17.8c0,2.8-2.2,5-5,5H30.7c-2.8,0-5-2.2-5-5v-17.8H238.5 M245.5,133.3H18.7v24.8
					c0,6.6,5.4,12,12,12h202.8c6.6,0,12-5.4,12-12V133.3L245.5,133.3z"/>
			</g>
			<g>
				<rect x="22.2" y="92.8" class="st1" width="219.8" height="28.5"/>
				<path class="st2" d="M238.5,96.3v21.5H25.7V96.3H238.5 M245.5,89.3H18.7v35.5h226.8V89.3L245.5,89.3z"/>
			</g>
		</g>
		<circle class="st3" cx="42.8" cy="18.4" r="7.1"/>
		<circle class="st3" cx="61.4" cy="18.4" r="5.7"/>
		<circle class="st3" cx="76.7" cy="18.4" r="4.3"/>
		<circle class="st3" cx="42.8" cy="63" r="7.1"/>
		<circle class="st3" cx="61.4" cy="63" r="5.7"/>
		<circle class="st3" cx="76.7" cy="63" r="4.3"/>
		<circle class="st3" cx="42.8" cy="107.1" r="7.1"/>
		<circle class="st3" cx="61.4" cy="107.1" r="5.7"/>
		<circle class="st3" cx="76.7" cy="107.1" r="4.3"/>
		<circle class="st3" cx="42.8" cy="151.7" r="7.1"/>
		<circle class="st3" cx="61.4" cy="151.7" r="5.7"/>
		<circle class="st3" cx="76.7" cy="151.7" r="4.3"/>
		<path class="st4" d="M228.8,20.5H120.1c-1.2,0-2.1-1-2.1-2.1v0c0-1.2,1-2.1,2.1-2.1h108.7c1.2,0,2.1,1,2.1,2.1v0
			C230.9,19.5,229.9,20.5,228.8,20.5z"/>
		<path class="st4" d="M228.8,65.1H120.1c-1.2,0-2.1-1-2.1-2.1v0c0-1.2,1-2.1,2.1-2.1h108.7c1.2,0,2.1,1,2.1,2.1v0
			C230.9,64.2,229.9,65.1,228.8,65.1z"/>
		<path class="st4" d="M228.8,109.2H120.1c-1.2,0-2.1-1-2.1-2.1l0,0c0-1.2,1-2.1,2.1-2.1h108.7c1.2,0,2.1,1,2.1,2.1l0,0
			C230.9,108.2,229.9,109.2,228.8,109.2z"/>
		<path class="st4" d="M228.8,153.8H120.1c-1.2,0-2.1-1-2.1-2.1v0c0-1.2,1-2.1,2.1-2.1h108.7c1.2,0,2.1,1,2.1,2.1v0
			C230.9,152.9,229.9,153.8,228.8,153.8z"/>
	</g>
</g>
</svg>
