<?xml version="1.0" encoding="utf-8"?>
<!-- Generator: Adobe Illustrator 22.1.0, SVG Export Plug-In . SVG Version: 6.00 Build 0)  -->
<svg version="1.1" id="Ebene_1" xmlns="http://www.w3.org/2000/svg" xmlns:xlink="http://www.w3.org/1999/xlink" x="0px" y="0px"
	 viewBox="0 0 40 30" enable-background="new 0 0 40 30" xml:space="preserve">
<g>
	<path fill="#3D3C6E" d="M-0.2,16.1c0-5.4,0-10.7,0-16.1c0-0.1,0-0.1,0.1-0.1c5.1,0,10.1,0,15.2,0c0,0.8,0,1.5,0,2.3
		c0,0.8,0,1.5,0,2.3c0,0.8,0,1.5,0,2.3c0,0.8,0,1.5,0,2.3c0,0.8,0,1.5,0,2.3c0,0.8,0,1.5,0,2.3c0,0.8,0,1.5,0,2.3c0,0-0.1,0-0.1,0
		c-5,0-10,0-15,0C-0.1,16.1-0.1,16.1-0.2,16.1z M8.4,15.2c0.1-0.1,0.2-0.2,0.3-0.3c0,0,0,0,0.1,0C8.9,15,9,15.1,9.1,15.2
		c0,0,0,0,0,0c0,0,0,0,0,0c0,0,0,0,0,0c0,0,0-0.1,0-0.1C9,15,9,14.9,9,14.7c0-0.1,0-0.2,0-0.2c0.1-0.1,0.2-0.2,0.3-0.3
		c-0.1,0-0.2,0-0.3,0c-0.1,0-0.1,0-0.1-0.1c0-0.2-0.1-0.3-0.1-0.5c0,0.2-0.1,0.3-0.1,0.4c0,0.2-0.1,0.2-0.2,0.2c-0.1,0-0.2,0-0.3,0
		c0.1,0.1,0.1,0.2,0.2,0.3c0.1,0.1,0.1,0.2,0.1,0.4C8.4,15,8.4,15.1,8.4,15.2C8.4,15.2,8.4,15.2,8.4,15.2
		C8.4,15.2,8.4,15.2,8.4,15.2z M6.5,15.2C6.5,15.2,6.5,15.2,6.5,15.2C6.6,15.2,6.6,15.2,6.5,15.2C6.5,15.2,6.5,15.2,6.5,15.2
		c0,0,0-0.1,0-0.1c0-0.1,0-0.2-0.1-0.4c0-0.1,0-0.2,0-0.2c0.1-0.1,0.2-0.2,0.3-0.3c-0.1,0-0.2,0-0.3,0c-0.1,0-0.1,0-0.1-0.1
		c0-0.2-0.1-0.3-0.1-0.5c0,0.2-0.1,0.3-0.1,0.4c0,0.2-0.1,0.2-0.2,0.2c-0.1,0-0.2,0-0.3,0c0.1,0.1,0.1,0.2,0.2,0.3
		C6,14.6,6,14.7,5.9,14.8c0,0.1-0.1,0.3-0.1,0.4c0,0,0,0,0,0c0,0,0,0,0,0C6,15.1,6.1,15,6.2,14.9c0,0,0,0,0.1,0
		C6.3,15,6.4,15.1,6.5,15.2z M3.3,15.2c0.1-0.1,0.2-0.2,0.3-0.3c0,0,0,0,0.1,0C3.8,15,3.9,15.1,4,15.2c0,0,0,0,0,0c0,0,0,0,0,0
		c0,0,0,0,0,0c0,0,0-0.1,0-0.1c0-0.1,0-0.2-0.1-0.4c0-0.1,0-0.2,0-0.2c0.1-0.1,0.2-0.2,0.3-0.3c-0.1,0-0.2,0-0.3,0
		c-0.1,0-0.1,0-0.1-0.1c0-0.2-0.1-0.3-0.1-0.5c0,0.2-0.1,0.3-0.1,0.4c0,0.2-0.1,0.2-0.2,0.2c-0.1,0-0.2,0-0.3,0
		c0.1,0.1,0.1,0.2,0.2,0.3c0.1,0.1,0.1,0.2,0.1,0.4C3.4,15,3.3,15.1,3.3,15.2C3.3,15.2,3.3,15.2,3.3,15.2
		C3.3,15.2,3.3,15.2,3.3,15.2z M0.8,15.2C0.9,15.1,1,15,1.1,14.9c0,0,0,0,0.1,0c0.1,0.1,0.2,0.2,0.3,0.3c0,0,0,0,0,0c0,0,0,0,0,0
		c0,0,0,0,0,0c0,0,0-0.1,0-0.1c0-0.1,0-0.2-0.1-0.4c0-0.1,0-0.2,0-0.2c0.1-0.1,0.2-0.2,0.3-0.3c-0.1,0-0.2,0-0.3,0
		c-0.1,0-0.1,0-0.1-0.1c0-0.2-0.1-0.3-0.1-0.5c0,0.2-0.1,0.3-0.1,0.4c0,0.2-0.1,0.2-0.2,0.2c-0.1,0-0.2,0-0.3,0
		c0.1,0.1,0.1,0.2,0.2,0.3c0.1,0.1,0.1,0.2,0.1,0.4C0.8,15,0.8,15.1,0.8,15.2C0.8,15.2,0.8,15.2,0.8,15.2
		C0.8,15.2,0.8,15.2,0.8,15.2z M10.3,13.6C10.3,13.6,10.3,13.6,10.3,13.6C10.3,13.6,10.4,13.6,10.3,13.6
		C10.3,13.6,10.3,13.6,10.3,13.6c0,0,0-0.1,0-0.1c0-0.1,0-0.2-0.1-0.4c0-0.1,0-0.2,0-0.2c0.1-0.1,0.2-0.2,0.3-0.3
		c-0.1,0-0.2,0-0.3,0c-0.1,0-0.1,0-0.1-0.1c0-0.2-0.1-0.3-0.1-0.5c0,0.2-0.1,0.3-0.1,0.4c0,0.2-0.1,0.2-0.2,0.2c-0.1,0-0.2,0-0.3,0
		c0.1,0.1,0.1,0.2,0.2,0.3c0.1,0.1,0.1,0.2,0.1,0.4c0,0.1-0.1,0.3-0.1,0.4c0,0,0,0,0,0c0,0,0,0,0,0c0.1-0.1,0.2-0.2,0.3-0.3
		c0,0,0,0,0.1,0C10.1,13.4,10.2,13.5,10.3,13.6z M7.1,13.6c0.1-0.1,0.2-0.2,0.3-0.3c0,0,0,0,0.1,0c0.1,0.1,0.2,0.2,0.3,0.3
		c0,0,0,0,0,0c0,0,0,0,0,0c0,0,0,0,0,0c0,0,0-0.1,0-0.1c0-0.1,0-0.2-0.1-0.4c0-0.1,0-0.2,0-0.2c0.1-0.1,0.2-0.2,0.3-0.3
		c-0.1,0-0.2,0-0.3,0c-0.1,0-0.1,0-0.1-0.1c0-0.2-0.1-0.3-0.1-0.5c0,0.2-0.1,0.3-0.1,0.4c0,0.2-0.1,0.2-0.2,0.2c-0.1,0-0.2,0-0.3,0
		c0.1,0.1,0.1,0.2,0.2,0.3c0.1,0.1,0.1,0.2,0.1,0.4C7.2,13.3,7.1,13.5,7.1,13.6C7.1,13.6,7.1,13.6,7.1,13.6
		C7.1,13.6,7.1,13.6,7.1,13.6z M5.3,13.6C5.3,13.6,5.3,13.6,5.3,13.6C5.3,13.6,5.3,13.6,5.3,13.6C5.3,13.6,5.3,13.6,5.3,13.6
		c0,0,0-0.1,0-0.1c0-0.1,0-0.2-0.1-0.4c0-0.1,0-0.2,0-0.2c0.1-0.1,0.2-0.2,0.3-0.3c-0.1,0-0.2,0-0.3,0c-0.1,0-0.1,0-0.1-0.1
		C5,12.3,5,12.2,4.9,12c0,0.2-0.1,0.3-0.1,0.4c0,0.2-0.1,0.2-0.2,0.2c-0.1,0-0.2,0-0.3,0c0.1,0.1,0.1,0.2,0.2,0.3
		c0.1,0.1,0.1,0.2,0.1,0.4c0,0.1-0.1,0.3-0.1,0.4c0,0,0,0,0,0c0,0,0,0,0,0c0.1-0.1,0.2-0.2,0.3-0.3c0,0,0,0,0.1,0
		C5.1,13.4,5.2,13.5,5.3,13.6z M2.1,13.6c0.1-0.1,0.2-0.2,0.3-0.3c0,0,0,0,0.1,0c0.1,0.1,0.2,0.2,0.3,0.3c0,0,0,0,0,0c0,0,0,0,0,0
		c0,0,0,0,0,0c0,0,0-0.1,0-0.1c0-0.1,0-0.2-0.1-0.4c0-0.1,0-0.2,0-0.2c0.1-0.1,0.2-0.2,0.3-0.3c-0.1,0-0.2,0-0.3,0
		c-0.1,0-0.1,0-0.1-0.1c0-0.2-0.1-0.3-0.1-0.5c0,0.2-0.1,0.3-0.1,0.4c0,0.2-0.1,0.2-0.2,0.2c-0.1,0-0.2,0-0.3,0
		c0.1,0.1,0.1,0.2,0.2,0.3c0.1,0.1,0.1,0.2,0.1,0.4C2.1,13.3,2.1,13.5,2.1,13.6C2.1,13.6,2.1,13.6,2.1,13.6
		C2.1,13.6,2.1,13.6,2.1,13.6z M14.1,12C14.1,12,14.1,12,14.1,12C14.1,12,14.1,12,14.1,12C14.1,12,14.1,12,14.1,12c0,0,0-0.1,0-0.1
		c0-0.1,0-0.2-0.1-0.4c0-0.1,0-0.2,0-0.2c0.1-0.1,0.2-0.2,0.3-0.3c-0.1,0-0.2,0-0.3,0c-0.1,0-0.1,0-0.1-0.1c0-0.2-0.1-0.3-0.1-0.5
		c0,0.2-0.1,0.3-0.1,0.4c0,0.2-0.1,0.2-0.2,0.2c-0.1,0-0.2,0-0.3,0c0.1,0.1,0.1,0.2,0.2,0.3c0.1,0.1,0.1,0.2,0.1,0.4
		c0,0.1-0.1,0.3-0.1,0.4c0,0,0,0,0,0c0,0,0,0,0,0c0.1-0.1,0.2-0.2,0.3-0.3c0,0,0,0,0.1,0C13.9,11.8,14,11.9,14.1,12z M10.9,12
		c0.1-0.1,0.2-0.2,0.3-0.3c0,0,0,0,0.1,0c0.1,0.1,0.2,0.2,0.3,0.3c0,0,0,0,0,0c0,0,0,0,0,0c0,0,0,0,0,0c0,0,0-0.1,0-0.1
		c0-0.1,0-0.2-0.1-0.4c0-0.1,0-0.2,0-0.2c0.1-0.1,0.2-0.2,0.3-0.3c-0.1,0-0.2,0-0.3,0c-0.1,0-0.1,0-0.1-0.1c0-0.2-0.1-0.3-0.1-0.5
		c0,0.2-0.1,0.3-0.1,0.4c0,0.2-0.1,0.2-0.2,0.2c-0.1,0-0.2,0-0.3,0c0.1,0.1,0.1,0.2,0.2,0.3c0.1,0.1,0.1,0.2,0.1,0.4
		C11,11.7,10.9,11.8,10.9,12C10.9,12,10.9,12,10.9,12C10.9,12,10.9,12,10.9,12z M9.1,12C9.1,12,9.1,12,9.1,12C9.1,12,9.1,12,9.1,12
		C9.1,12,9.1,12,9.1,12c0,0,0-0.1,0-0.1c0-0.1,0-0.2-0.1-0.4c0-0.1,0-0.2,0-0.2c0.1-0.1,0.2-0.2,0.3-0.3c-0.1,0-0.2,0-0.3,0
		c-0.1,0-0.1,0-0.1-0.1c0-0.2-0.1-0.3-0.1-0.5c0,0.2-0.1,0.3-0.1,0.4c0,0.2-0.1,0.2-0.2,0.2c-0.1,0-0.2,0-0.3,0
		c0.1,0.1,0.1,0.2,0.2,0.3c0.1,0.1,0.1,0.2,0.1,0.4c0,0.1-0.1,0.3-0.1,0.4c0,0,0,0,0,0c0,0,0,0,0,0c0.1-0.1,0.2-0.2,0.3-0.3
		c0,0,0,0,0.1,0C8.9,11.8,9,11.9,9.1,12z M13.5,5.5c0.1-0.1,0.2-0.2,0.3-0.3c0,0,0,0,0.1,0c0.1,0.1,0.2,0.2,0.3,0.3c0,0,0,0,0,0
		c0,0,0,0,0,0c0,0,0,0,0,0c0,0,0-0.1,0-0.1c0-0.1,0-0.2-0.1-0.4c0-0.1,0-0.2,0-0.2c0.1-0.1,0.2-0.2,0.3-0.3c-0.1,0-0.2,0-0.3,0
		c-0.1,0-0.1,0-0.1-0.1c0-0.2-0.1-0.3-0.1-0.5c0,0.2-0.1,0.3-0.1,0.4c0,0.2-0.1,0.2-0.2,0.2c-0.1,0-0.2,0-0.3,0
		c0.1,0.1,0.1,0.2,0.2,0.3c0.1,0.1,0.1,0.2,0.1,0.4C13.5,5.2,13.4,5.3,13.5,5.5C13.5,5.5,13.5,5.5,13.5,5.5
		C13.4,5.5,13.5,5.5,13.5,5.5z M10.9,5.5c0.1-0.1,0.2-0.2,0.3-0.3c0,0,0,0,0.1,0c0.1,0.1,0.2,0.2,0.3,0.3c0,0,0,0,0,0c0,0,0,0,0,0
		c0,0,0,0,0,0c0,0,0-0.1,0-0.1c0-0.1,0-0.2-0.1-0.4c0-0.1,0-0.2,0-0.2c0.1-0.1,0.2-0.2,0.3-0.3c-0.1,0-0.2,0-0.3,0
		c-0.1,0-0.1,0-0.1-0.1c0-0.2-0.1-0.3-0.1-0.5c0,0.2-0.1,0.3-0.1,0.4c0,0.2-0.1,0.2-0.2,0.2c-0.1,0-0.2,0-0.3,0
		c0.1,0.1,0.1,0.2,0.2,0.3C11,4.8,11,4.9,11,5.1C11,5.2,10.9,5.3,10.9,5.5C10.9,5.5,10.9,5.5,10.9,5.5C10.9,5.5,10.9,5.5,10.9,5.5z
		 M8.4,5.5c0.1-0.1,0.2-0.2,0.3-0.3c0,0,0,0,0.1,0C8.9,5.3,9,5.4,9.1,5.5c0,0,0,0,0,0c0,0,0,0,0,0c0,0,0,0,0,0c0,0,0-0.1,0-0.1
		C9,5.2,9,5.1,9,5c0-0.1,0-0.2,0-0.2c0.1-0.1,0.2-0.2,0.3-0.3c-0.1,0-0.2,0-0.3,0c-0.1,0-0.1,0-0.1-0.1c0-0.2-0.1-0.3-0.1-0.5
		c0,0.2-0.1,0.3-0.1,0.4c0,0.2-0.1,0.2-0.2,0.2c-0.1,0-0.2,0-0.3,0c0.1,0.1,0.1,0.2,0.2,0.3c0.1,0.1,0.1,0.2,0.1,0.4
		C8.4,5.2,8.4,5.3,8.4,5.5C8.4,5.5,8.4,5.5,8.4,5.5C8.4,5.5,8.4,5.5,8.4,5.5z M5.9,5.5C6,5.4,6.1,5.3,6.2,5.2c0,0,0,0,0.1,0
		c0.1,0.1,0.2,0.2,0.3,0.3c0,0,0,0,0,0c0,0,0,0,0,0c0,0,0,0,0,0c0,0,0-0.1,0-0.1c0-0.1,0-0.2-0.1-0.4c0-0.1,0-0.2,0-0.2
		c0.1-0.1,0.2-0.2,0.3-0.3c-0.1,0-0.2,0-0.3,0c-0.1,0-0.1,0-0.1-0.1c0-0.2-0.1-0.3-0.1-0.5c0,0.2-0.1,0.3-0.1,0.4
		c0,0.2-0.1,0.2-0.2,0.2c-0.1,0-0.2,0-0.3,0c0.1,0.1,0.1,0.2,0.2,0.3C6,4.8,6,4.9,5.9,5.1C5.9,5.2,5.8,5.3,5.9,5.5
		C5.9,5.5,5.9,5.5,5.9,5.5C5.9,5.5,5.9,5.5,5.9,5.5z M3.3,5.5c0.1-0.1,0.2-0.2,0.3-0.3c0,0,0,0,0.1,0C3.8,5.3,3.9,5.4,4,5.5
		c0,0,0,0,0,0c0,0,0,0,0,0c0,0,0,0,0,0c0,0,0-0.1,0-0.1C4,5.2,4,5.1,3.9,5c0-0.1,0-0.2,0-0.2c0.1-0.1,0.2-0.2,0.3-0.3
		c-0.1,0-0.2,0-0.3,0c-0.1,0-0.1,0-0.1-0.1c0-0.2-0.1-0.3-0.1-0.5c0,0.2-0.1,0.3-0.1,0.4c0,0.2-0.1,0.2-0.2,0.2c-0.1,0-0.2,0-0.3,0
		c0.1,0.1,0.1,0.2,0.2,0.3c0.1,0.1,0.1,0.2,0.1,0.4C3.4,5.2,3.3,5.3,3.3,5.5C3.3,5.5,3.3,5.5,3.3,5.5C3.3,5.5,3.3,5.5,3.3,5.5z
		 M1.5,5.5C1.5,5.5,1.5,5.5,1.5,5.5C1.5,5.5,1.5,5.5,1.5,5.5C1.5,5.5,1.5,5.5,1.5,5.5c0,0,0-0.1,0-0.1c0-0.1,0-0.2-0.1-0.4
		c0-0.1,0-0.2,0-0.2c0.1-0.1,0.2-0.2,0.3-0.3c-0.1,0-0.2,0-0.3,0c-0.1,0-0.1,0-0.1-0.1c0-0.2-0.1-0.3-0.1-0.5c0,0.2-0.1,0.3-0.1,0.4
		C1,4.4,1,4.5,0.8,4.5c-0.1,0-0.2,0-0.3,0c0.1,0.1,0.1,0.2,0.2,0.3c0.1,0.1,0.1,0.2,0.1,0.4c0,0.1-0.1,0.3-0.1,0.4c0,0,0,0,0,0
		c0,0,0,0,0,0C0.9,5.4,1,5.3,1.1,5.2c0,0,0,0,0.1,0C1.3,5.3,1.4,5.4,1.5,5.5z M6.5,12C6.5,12,6.5,12,6.5,12C6.6,12,6.6,12,6.5,12
		C6.5,12,6.5,12,6.5,12c0,0,0-0.1,0-0.1c0-0.1,0-0.2-0.1-0.4c0-0.1,0-0.2,0-0.2c0.1-0.1,0.2-0.2,0.3-0.3c-0.1,0-0.2,0-0.3,0
		c-0.1,0-0.1,0-0.1-0.1c0-0.2-0.1-0.3-0.1-0.5c0,0.2-0.1,0.3-0.1,0.4C6.1,10.9,6,11,5.9,11c-0.1,0-0.2,0-0.3,0
		c0.1,0.1,0.1,0.2,0.2,0.3C6,11.3,6,11.4,5.9,11.6c0,0.1-0.1,0.3-0.1,0.4c0,0,0,0,0,0c0,0,0,0,0,0c0.1-0.1,0.2-0.2,0.3-0.3
		c0,0,0,0,0.1,0C6.3,11.8,6.4,11.9,6.5,12z M1.5,12C1.5,12,1.5,12,1.5,12C1.5,12,1.5,12,1.5,12C1.5,12,1.5,12,1.5,12
		c0,0,0-0.1,0-0.1c0-0.1,0-0.2-0.1-0.4c0-0.1,0-0.2,0-0.2c0.1-0.1,0.2-0.2,0.3-0.3c-0.1,0-0.2,0-0.3,0c-0.1,0-0.1,0-0.1-0.1
		c0-0.2-0.1-0.3-0.1-0.5c0,0.2-0.1,0.3-0.1,0.4C1,10.9,1,11,0.8,11c-0.1,0-0.2,0-0.3,0c0.1,0.1,0.1,0.2,0.2,0.3
		c0.1,0.1,0.1,0.2,0.1,0.4c0,0.1-0.1,0.3-0.1,0.4c0,0,0,0,0,0c0,0,0,0,0,0c0.1-0.1,0.2-0.2,0.3-0.3c0,0,0,0,0.1,0
		C1.3,11.8,1.4,11.9,1.5,12z M12.9,10.4C12.9,10.4,12.9,10.4,12.9,10.4C12.9,10.4,12.9,10.4,12.9,10.4
		C12.9,10.4,12.9,10.4,12.9,10.4c0,0,0-0.1,0-0.1c0-0.1,0-0.2-0.1-0.4c0-0.1,0-0.2,0-0.2c0.1-0.1,0.2-0.2,0.3-0.3
		c-0.1,0-0.2,0-0.3,0c-0.1,0-0.1,0-0.1-0.1c0-0.2-0.1-0.3-0.1-0.5c0,0.2-0.1,0.3-0.1,0.4c0,0.2-0.1,0.2-0.2,0.2c-0.1,0-0.2,0-0.3,0
		c0.1,0.1,0.1,0.2,0.2,0.3c0.1,0.1,0.1,0.2,0.1,0.4c0,0.1-0.1,0.3-0.1,0.4c0,0,0,0,0,0c0,0,0,0,0,0c0.1-0.1,0.2-0.2,0.3-0.3
		c0,0,0,0,0.1,0C12.7,10.1,12.8,10.2,12.9,10.4z M9.7,10.4c0.1-0.1,0.2-0.2,0.3-0.3c0,0,0,0,0.1,0c0.1,0.1,0.2,0.2,0.3,0.3
		c0,0,0,0,0,0c0,0,0,0,0,0c0,0,0,0,0,0c0,0,0-0.1,0-0.1c0-0.1,0-0.2-0.1-0.4c0-0.1,0-0.2,0-0.2c0.1-0.1,0.2-0.2,0.3-0.3
		c-0.1,0-0.2,0-0.3,0c-0.1,0-0.1,0-0.1-0.1c0-0.2-0.1-0.3-0.1-0.5C10,8.9,9.9,9,9.9,9.1c0,0.2-0.1,0.2-0.2,0.2c-0.1,0-0.2,0-0.3,0
		c0.1,0.1,0.1,0.2,0.2,0.3C9.8,9.7,9.8,9.8,9.7,10C9.7,10.1,9.6,10.2,9.7,10.4C9.7,10.4,9.7,10.3,9.7,10.4
		C9.7,10.4,9.7,10.4,9.7,10.4z M7.8,10.4C7.8,10.4,7.8,10.4,7.8,10.4C7.8,10.4,7.8,10.4,7.8,10.4C7.8,10.4,7.8,10.4,7.8,10.4
		c0,0,0-0.1,0-0.1c0-0.1,0-0.2-0.1-0.4c0-0.1,0-0.2,0-0.2C7.9,9.6,7.9,9.5,8,9.4c-0.1,0-0.2,0-0.3,0c-0.1,0-0.1,0-0.1-0.1
		c0-0.2-0.1-0.3-0.1-0.5c0,0.2-0.1,0.3-0.1,0.4c0,0.2-0.1,0.2-0.2,0.2c-0.1,0-0.2,0-0.3,0C7,9.5,7.1,9.5,7.1,9.6
		C7.2,9.7,7.2,9.8,7.2,10c0,0.1-0.1,0.3-0.1,0.4c0,0,0,0,0,0c0,0,0,0,0,0c0.1-0.1,0.2-0.2,0.3-0.3c0,0,0,0,0.1,0
		C7.6,10.1,7.7,10.2,7.8,10.4z M4.6,10.4c0.1-0.1,0.2-0.2,0.3-0.3c0,0,0,0,0.1,0c0.1,0.1,0.2,0.2,0.3,0.3c0,0,0,0,0,0c0,0,0,0,0,0
		c0,0,0,0,0,0c0,0,0-0.1,0-0.1c0-0.1,0-0.2-0.1-0.4c0-0.1,0-0.2,0-0.2c0.1-0.1,0.2-0.2,0.3-0.3c-0.1,0-0.2,0-0.3,0
		c-0.1,0-0.1,0-0.1-0.1C5,9.1,5,8.9,4.9,8.7c0,0.2-0.1,0.3-0.1,0.4c0,0.2-0.1,0.2-0.2,0.2c-0.1,0-0.2,0-0.3,0
		c0.1,0.1,0.1,0.2,0.2,0.3C4.7,9.7,4.7,9.8,4.7,10C4.6,10.1,4.6,10.2,4.6,10.4C4.6,10.4,4.6,10.3,4.6,10.4
		C4.6,10.4,4.6,10.4,4.6,10.4z M2.1,10.4c0.1-0.1,0.2-0.2,0.3-0.3c0,0,0,0,0.1,0c0.1,0.1,0.2,0.2,0.3,0.3c0,0,0,0,0,0c0,0,0,0,0,0
		c0,0,0,0,0,0c0,0,0-0.1,0-0.1c0-0.1,0-0.2-0.1-0.4c0-0.1,0-0.2,0-0.2C2.8,9.6,2.9,9.5,3,9.4c-0.1,0-0.2,0-0.3,0
		c-0.1,0-0.1,0-0.1-0.1c0-0.2-0.1-0.3-0.1-0.5c0,0.2-0.1,0.3-0.1,0.4c0,0.2-0.1,0.2-0.2,0.2c-0.1,0-0.2,0-0.3,0
		C1.9,9.5,2,9.5,2.1,9.6C2.2,9.7,2.2,9.8,2.1,10C2.1,10.1,2.1,10.2,2.1,10.4C2.1,10.4,2.1,10.3,2.1,10.4C2.1,10.4,2.1,10.4,2.1,10.4
		z M12.2,13.6c0.1-0.1,0.2-0.2,0.3-0.3c0,0,0,0,0.1,0c0.1,0.1,0.2,0.2,0.3,0.3c0,0,0,0,0,0c0,0,0,0,0,0c0,0,0,0,0,0c0,0,0-0.1,0-0.1
		c0-0.1,0-0.2-0.1-0.4c0-0.1,0-0.2,0-0.2c0.1-0.1,0.2-0.2,0.3-0.3c-0.1,0-0.2,0-0.3,0c-0.1,0-0.1,0-0.1-0.1c0-0.2-0.1-0.3-0.1-0.5
		c0,0.2-0.1,0.3-0.1,0.4c0,0.2-0.1,0.2-0.2,0.2c-0.1,0-0.2,0-0.3,0c0.1,0.1,0.1,0.2,0.2,0.3c0.1,0.1,0.1,0.2,0.1,0.4
		C12.2,13.3,12.2,13.5,12.2,13.6C12.2,13.6,12.2,13.6,12.2,13.6C12.2,13.6,12.2,13.6,12.2,13.6z M13.5,8.7c0.1-0.1,0.2-0.2,0.3-0.3
		c0,0,0,0,0.1,0c0.1,0.1,0.2,0.2,0.3,0.3c0,0,0,0,0,0c0,0,0,0,0,0c0,0,0,0,0,0c0,0,0-0.1,0-0.1c0-0.1,0-0.2-0.1-0.4
		c0-0.1,0-0.2,0-0.2c0.1-0.1,0.2-0.2,0.3-0.3c-0.1,0-0.2,0-0.3,0c-0.1,0-0.1,0-0.1-0.1c0-0.2-0.1-0.3-0.1-0.5c0,0.2-0.1,0.3-0.1,0.4
		c0,0.2-0.1,0.2-0.2,0.2c-0.1,0-0.2,0-0.3,0c0.1,0.1,0.1,0.2,0.2,0.3c0.1,0.1,0.1,0.2,0.1,0.4C13.5,8.5,13.4,8.6,13.5,8.7
		C13.5,8.7,13.5,8.7,13.5,8.7C13.4,8.7,13.5,8.7,13.5,8.7z M11.6,8.7C11.6,8.7,11.6,8.7,11.6,8.7C11.6,8.7,11.6,8.7,11.6,8.7
		C11.6,8.7,11.6,8.7,11.6,8.7c0,0,0-0.1,0-0.1c0-0.1,0-0.2-0.1-0.4c0-0.1,0-0.2,0-0.2c0.1-0.1,0.2-0.2,0.3-0.3c-0.1,0-0.2,0-0.3,0
		c-0.1,0-0.1,0-0.1-0.1c0-0.2-0.1-0.3-0.1-0.5c0,0.2-0.1,0.3-0.1,0.4c0,0.2-0.1,0.2-0.2,0.2c-0.1,0-0.2,0-0.3,0
		c0.1,0.1,0.1,0.2,0.2,0.3C11,8.1,11,8.2,11,8.3c0,0.1-0.1,0.3-0.1,0.4c0,0,0,0,0,0c0,0,0,0,0,0c0.1-0.1,0.2-0.2,0.3-0.3
		c0,0,0,0,0.1,0C11.4,8.5,11.5,8.6,11.6,8.7z M12.2,3.9c0.1-0.1,0.2-0.2,0.3-0.3c0,0,0,0,0.1,0c0.1,0.1,0.2,0.2,0.3,0.3c0,0,0,0,0,0
		c0,0,0,0,0,0c0,0,0,0,0,0c0,0,0-0.1,0-0.1c0-0.1,0-0.2-0.1-0.4c0-0.1,0-0.2,0-0.2C12.9,3.1,13,3,13.1,2.9c-0.1,0-0.2,0-0.3,0
		c-0.1,0-0.1,0-0.1-0.1c0-0.2-0.1-0.3-0.1-0.5c0,0.2-0.1,0.3-0.1,0.4c0,0.2-0.1,0.2-0.2,0.2c-0.1,0-0.2,0-0.3,0
		C12,3,12.1,3.1,12.2,3.1c0.1,0.1,0.1,0.2,0.1,0.4C12.2,3.6,12.2,3.7,12.2,3.9C12.2,3.9,12.2,3.8,12.2,3.9
		C12.2,3.9,12.2,3.9,12.2,3.9z M10.3,3.9C10.3,3.9,10.3,3.9,10.3,3.9C10.3,3.9,10.4,3.9,10.3,3.9C10.3,3.9,10.3,3.9,10.3,3.9
		c0,0,0-0.1,0-0.1c0-0.1,0-0.2-0.1-0.4c0-0.1,0-0.2,0-0.2c0.1-0.1,0.2-0.2,0.3-0.3c-0.1,0-0.2,0-0.3,0c-0.1,0-0.1,0-0.1-0.1
		c0-0.2-0.1-0.3-0.1-0.5c0,0.2-0.1,0.3-0.1,0.4c0,0.2-0.1,0.2-0.2,0.2c-0.1,0-0.2,0-0.3,0C9.5,3,9.6,3.1,9.7,3.1
		c0.1,0.1,0.1,0.2,0.1,0.4c0,0.1-0.1,0.3-0.1,0.4c0,0,0,0,0,0c0,0,0,0,0,0C9.8,3.7,9.9,3.6,10,3.5c0,0,0,0,0.1,0
		C10.1,3.6,10.2,3.7,10.3,3.9z M7.1,3.9c0.1-0.1,0.2-0.2,0.3-0.3c0,0,0,0,0.1,0c0.1,0.1,0.2,0.2,0.3,0.3c0,0,0,0,0,0c0,0,0,0,0,0
		c0,0,0,0,0,0c0,0,0-0.1,0-0.1c0-0.1,0-0.2-0.1-0.4c0-0.1,0-0.2,0-0.2C7.9,3.1,7.9,3,8,2.9c-0.1,0-0.2,0-0.3,0c-0.1,0-0.1,0-0.1-0.1
		c0-0.2-0.1-0.3-0.1-0.5c0,0.2-0.1,0.3-0.1,0.4c0,0.2-0.1,0.2-0.2,0.2c-0.1,0-0.2,0-0.3,0C7,3,7.1,3.1,7.1,3.1
		c0.1,0.1,0.1,0.2,0.1,0.4C7.2,3.6,7.1,3.7,7.1,3.9C7.1,3.9,7.1,3.8,7.1,3.9C7.1,3.9,7.1,3.9,7.1,3.9z M4.6,3.9
		c0.1-0.1,0.2-0.2,0.3-0.3c0,0,0,0,0.1,0c0.1,0.1,0.2,0.2,0.3,0.3c0,0,0,0,0,0c0,0,0,0,0,0c0,0,0,0,0,0c0,0,0-0.1,0-0.1
		c0-0.1,0-0.2-0.1-0.4c0-0.1,0-0.2,0-0.2C5.3,3.1,5.4,3,5.5,2.9c-0.1,0-0.2,0-0.3,0c-0.1,0-0.1,0-0.1-0.1C5,2.6,5,2.4,4.9,2.2
		c0,0.2-0.1,0.3-0.1,0.4c0,0.2-0.1,0.2-0.2,0.2c-0.1,0-0.2,0-0.3,0C4.5,3,4.5,3.1,4.6,3.1c0.1,0.1,0.1,0.2,0.1,0.4
		C4.6,3.6,4.6,3.7,4.6,3.9C4.6,3.9,4.6,3.8,4.6,3.9C4.6,3.9,4.6,3.9,4.6,3.9z M2.7,3.9C2.7,3.9,2.7,3.9,2.7,3.9
		C2.8,3.9,2.8,3.9,2.7,3.9C2.8,3.9,2.7,3.9,2.7,3.9c0,0,0-0.1,0-0.1c0-0.1,0-0.2-0.1-0.4c0-0.1,0-0.2,0-0.2C2.8,3.1,2.9,3,3,2.9
		c-0.1,0-0.2,0-0.3,0c-0.1,0-0.1,0-0.1-0.1c0-0.2-0.1-0.3-0.1-0.5c0,0.2-0.1,0.3-0.1,0.4c0,0.2-0.1,0.2-0.2,0.2c-0.1,0-0.2,0-0.3,0
		C1.9,3,2,3.1,2.1,3.1c0.1,0.1,0.1,0.2,0.1,0.4c0,0.1-0.1,0.3-0.1,0.4c0,0,0,0,0,0c0,0,0,0,0,0c0.1-0.1,0.2-0.2,0.3-0.3
		c0,0,0,0,0.1,0C2.5,3.6,2.7,3.7,2.7,3.9z M8.4,8.7c0.1-0.1,0.2-0.2,0.3-0.3c0,0,0,0,0.1,0C8.9,8.5,9,8.6,9.1,8.7c0,0,0,0,0,0
		c0,0,0,0,0,0c0,0,0,0,0,0c0,0,0-0.1,0-0.1C9,8.5,9,8.4,9,8.2C9,8.1,9,8.1,9,8C9.1,8,9.2,7.8,9.3,7.8c-0.1,0-0.2,0-0.3,0
		c-0.1,0-0.1,0-0.1-0.1c0-0.2-0.1-0.3-0.1-0.5c0,0.2-0.1,0.3-0.1,0.4c0,0.2-0.1,0.2-0.2,0.2c-0.1,0-0.2,0-0.3,0
		C8.2,7.8,8.3,7.9,8.4,8c0.1,0.1,0.1,0.2,0.1,0.4C8.4,8.5,8.4,8.6,8.4,8.7C8.4,8.7,8.4,8.7,8.4,8.7C8.4,8.7,8.4,8.7,8.4,8.7z
		 M6.5,8.7C6.5,8.7,6.5,8.7,6.5,8.7C6.6,8.7,6.6,8.7,6.5,8.7C6.5,8.7,6.5,8.7,6.5,8.7c0,0,0-0.1,0-0.1c0-0.1,0-0.2-0.1-0.4
		c0-0.1,0-0.2,0-0.2C6.6,8,6.7,7.8,6.8,7.8c-0.1,0-0.2,0-0.3,0c-0.1,0-0.1,0-0.1-0.1c0-0.2-0.1-0.3-0.1-0.5c0,0.2-0.1,0.3-0.1,0.4
		c0,0.2-0.1,0.2-0.2,0.2c-0.1,0-0.2,0-0.3,0C5.7,7.8,5.8,7.9,5.9,8C6,8.1,6,8.2,5.9,8.3c0,0.1-0.1,0.3-0.1,0.4c0,0,0,0,0,0
		c0,0,0,0,0,0C6,8.6,6.1,8.5,6.2,8.4c0,0,0,0,0.1,0C6.3,8.5,6.4,8.6,6.5,8.7z M4,8.7C4,8.7,4,8.7,4,8.7C4,8.7,4,8.7,4,8.7
		C4,8.7,4,8.7,4,8.7c0,0,0-0.1,0-0.1c0-0.1,0-0.2-0.1-0.4c0-0.1,0-0.2,0-0.2C4.1,8,4.1,7.8,4.2,7.8c-0.1,0-0.2,0-0.3,0
		c-0.1,0-0.1,0-0.1-0.1c0-0.2-0.1-0.3-0.1-0.5c0,0.2-0.1,0.3-0.1,0.4c0,0.2-0.1,0.2-0.2,0.2c-0.1,0-0.2,0-0.3,0
		C3.2,7.8,3.3,7.9,3.3,8c0.1,0.1,0.1,0.2,0.1,0.4c0,0.1-0.1,0.3-0.1,0.4c0,0,0,0,0,0c0,0,0,0,0,0c0.1-0.1,0.2-0.2,0.3-0.3
		c0,0,0,0,0.1,0C3.8,8.5,3.9,8.6,4,8.7z M0.8,8.7C0.9,8.6,1,8.5,1.1,8.4c0,0,0,0,0.1,0c0.1,0.1,0.2,0.2,0.3,0.3c0,0,0,0,0,0
		c0,0,0,0,0,0c0,0,0,0,0,0c0,0,0-0.1,0-0.1c0-0.1,0-0.2-0.1-0.4c0-0.1,0-0.2,0-0.2C1.5,8,1.6,7.8,1.7,7.8c-0.1,0-0.2,0-0.3,0
		c-0.1,0-0.1,0-0.1-0.1c0-0.2-0.1-0.3-0.1-0.5c0,0.2-0.1,0.3-0.1,0.4C1,7.7,1,7.8,0.8,7.7c-0.1,0-0.2,0-0.3,0C0.7,7.8,0.7,7.9,0.8,8
		c0.1,0.1,0.1,0.2,0.1,0.4C0.8,8.5,0.8,8.6,0.8,8.7C0.8,8.7,0.8,8.7,0.8,8.7C0.8,8.7,0.8,8.7,0.8,8.7z M4,12C4,12,4,12,4,12
		C4,12,4,12,4,12C4,12,4,12,4,12c0,0,0-0.1,0-0.1c0-0.1,0-0.2-0.1-0.4c0-0.1,0-0.2,0-0.2c0.1-0.1,0.2-0.2,0.3-0.3
		c-0.1,0-0.2,0-0.3,0c-0.1,0-0.1,0-0.1-0.1c0-0.2-0.1-0.3-0.1-0.5c0,0.2-0.1,0.3-0.1,0.4c0,0.2-0.1,0.2-0.2,0.2c-0.1,0-0.2,0-0.3,0
		c0.1,0.1,0.1,0.2,0.2,0.3c0.1,0.1,0.1,0.2,0.1,0.4c0,0.1-0.1,0.3-0.1,0.4c0,0,0,0,0,0c0,0,0,0,0,0c0.1-0.1,0.2-0.2,0.3-0.3
		c0,0,0,0,0.1,0C3.8,11.8,3.9,11.9,4,12z M14.1,15.2C14.1,15.2,14.1,15.2,14.1,15.2C14.1,15.2,14.1,15.2,14.1,15.2
		C14.1,15.2,14.1,15.2,14.1,15.2c0,0,0-0.1,0-0.1c0-0.1,0-0.2-0.1-0.4c0-0.1,0-0.2,0-0.2c0.1-0.1,0.2-0.2,0.3-0.3
		c-0.1,0-0.2,0-0.3,0c-0.1,0-0.1,0-0.1-0.1c0-0.2-0.1-0.3-0.1-0.5c0,0.2-0.1,0.3-0.1,0.4c0,0.2-0.1,0.2-0.2,0.2c-0.1,0-0.2,0-0.3,0
		c0.1,0.1,0.1,0.2,0.2,0.3c0.1,0.1,0.1,0.2,0.1,0.4c0,0.1-0.1,0.3-0.1,0.4c0,0,0,0,0,0c0,0,0,0,0,0c0.1-0.1,0.2-0.2,0.3-0.3
		c0,0,0,0,0.1,0C13.9,15,14,15.1,14.1,15.2z M12.2,7.1c0.1-0.1,0.2-0.2,0.3-0.3c0,0,0,0,0.1,0c0.1,0.1,0.2,0.2,0.3,0.3c0,0,0,0,0,0
		c0,0,0,0,0,0c0,0,0,0,0,0c0,0,0-0.1,0-0.1c0-0.1,0-0.2-0.1-0.4c0-0.1,0-0.2,0-0.2c0.1-0.1,0.2-0.2,0.3-0.3c-0.1,0-0.2,0-0.3,0
		c-0.1,0-0.1,0-0.1-0.1c0-0.2-0.1-0.3-0.1-0.5c0,0.2-0.1,0.3-0.1,0.4c0,0.2-0.1,0.2-0.2,0.2c-0.1,0-0.2,0-0.3,0
		c0.1,0.1,0.1,0.2,0.2,0.3c0.1,0.1,0.1,0.2,0.1,0.4C12.2,6.8,12.2,7,12.2,7.1C12.2,7.1,12.2,7.1,12.2,7.1
		C12.2,7.1,12.2,7.1,12.2,7.1z M10.3,7.1C10.3,7.1,10.3,7.1,10.3,7.1C10.3,7.1,10.4,7.1,10.3,7.1C10.3,7.1,10.3,7.1,10.3,7.1
		c0,0,0-0.1,0-0.1c0-0.1,0-0.2-0.1-0.4c0-0.1,0-0.2,0-0.2c0.1-0.1,0.2-0.2,0.3-0.3c-0.1,0-0.2,0-0.3,0c-0.1,0-0.1,0-0.1-0.1
		c0-0.2-0.1-0.3-0.1-0.5c0,0.2-0.1,0.3-0.1,0.4c0,0.2-0.1,0.2-0.2,0.2c-0.1,0-0.2,0-0.3,0c0.1,0.1,0.1,0.2,0.2,0.3
		c0.1,0.1,0.1,0.2,0.1,0.4c0,0.1-0.1,0.3-0.1,0.4c0,0,0,0,0,0c0,0,0,0,0,0C9.8,7,9.9,6.9,10,6.8c0,0,0,0,0.1,0
		C10.1,6.9,10.2,7,10.3,7.1z M7.1,7.1C7.2,7,7.3,6.9,7.4,6.8c0,0,0,0,0.1,0C7.6,6.9,7.7,7,7.8,7.1c0,0,0,0,0,0c0,0,0,0,0,0
		c0,0,0,0,0,0c0,0,0-0.1,0-0.1c0-0.1,0-0.2-0.1-0.4c0-0.1,0-0.2,0-0.2C7.9,6.3,7.9,6.2,8,6.1c-0.1,0-0.2,0-0.3,0
		c-0.1,0-0.1,0-0.1-0.1c0-0.2-0.1-0.3-0.1-0.5c0,0.2-0.1,0.3-0.1,0.4c0,0.2-0.1,0.2-0.2,0.2c-0.1,0-0.2,0-0.3,0
		C7,6.2,7.1,6.3,7.1,6.4c0.1,0.1,0.1,0.2,0.1,0.4C7.2,6.8,7.1,7,7.1,7.1C7.1,7.1,7.1,7.1,7.1,7.1C7.1,7.1,7.1,7.1,7.1,7.1z M4.6,7.1
		C4.7,7,4.8,6.9,4.9,6.8c0,0,0,0,0.1,0C5.1,6.9,5.2,7,5.3,7.1c0,0,0,0,0,0c0,0,0,0,0,0c0,0,0,0,0,0c0,0,0-0.1,0-0.1
		c0-0.1,0-0.2-0.1-0.4c0-0.1,0-0.2,0-0.2c0.1-0.1,0.2-0.2,0.3-0.3c-0.1,0-0.2,0-0.3,0c-0.1,0-0.1,0-0.1-0.1C5,5.8,5,5.7,4.9,5.5
		c0,0.2-0.1,0.3-0.1,0.4c0,0.2-0.1,0.2-0.2,0.2c-0.1,0-0.2,0-0.3,0c0.1,0.1,0.1,0.2,0.2,0.3c0.1,0.1,0.1,0.2,0.1,0.4
		C4.6,6.8,4.6,7,4.6,7.1C4.6,7.1,4.6,7.1,4.6,7.1C4.6,7.1,4.6,7.1,4.6,7.1z M2.7,7.1C2.7,7.1,2.7,7.1,2.7,7.1
		C2.8,7.1,2.8,7.1,2.7,7.1C2.8,7.1,2.7,7.1,2.7,7.1c0,0,0-0.1,0-0.1c0-0.1,0-0.2-0.1-0.4c0-0.1,0-0.2,0-0.2C2.8,6.3,2.9,6.2,3,6.1
		c-0.1,0-0.2,0-0.3,0c-0.1,0-0.1,0-0.1-0.1c0-0.2-0.1-0.3-0.1-0.5c0,0.2-0.1,0.3-0.1,0.4c0,0.2-0.1,0.2-0.2,0.2c-0.1,0-0.2,0-0.3,0
		C1.9,6.2,2,6.3,2.1,6.4c0.1,0.1,0.1,0.2,0.1,0.4c0,0.1-0.1,0.3-0.1,0.4c0,0,0,0,0,0c0,0,0,0,0,0C2.2,7,2.3,6.9,2.4,6.8
		c0,0,0,0,0.1,0C2.5,6.9,2.7,7,2.7,7.1z M11.6,15.2C11.6,15.2,11.6,15.2,11.6,15.2C11.6,15.2,11.6,15.2,11.6,15.2
		C11.6,15.2,11.6,15.2,11.6,15.2c0,0,0-0.1,0-0.1c0-0.1,0-0.2-0.1-0.4c0-0.1,0-0.2,0-0.2c0.1-0.1,0.2-0.2,0.3-0.3
		c-0.1,0-0.2,0-0.3,0c-0.1,0-0.1,0-0.1-0.1c0-0.2-0.1-0.3-0.1-0.5c0,0.2-0.1,0.3-0.1,0.4c0,0.2-0.1,0.2-0.2,0.2c-0.1,0-0.2,0-0.3,0
		c0.1,0.1,0.1,0.2,0.2,0.3c0.1,0.1,0.1,0.2,0.1,0.4c0,0.1-0.1,0.3-0.1,0.4c0,0,0,0,0,0c0,0,0,0,0,0c0.1-0.1,0.2-0.2,0.3-0.3
		c0,0,0,0,0.1,0C11.4,15,11.5,15.1,11.6,15.2z M14.1,2.2C14.1,2.2,14.1,2.2,14.1,2.2C14.1,2.2,14.1,2.2,14.1,2.2
		C14.1,2.2,14.1,2.2,14.1,2.2c0,0,0-0.1,0-0.1c0-0.1,0-0.2-0.1-0.4c0-0.1,0-0.2,0-0.2c0.1-0.1,0.2-0.2,0.3-0.3c-0.1,0-0.2,0-0.3,0
		c-0.1,0-0.1,0-0.1-0.1c0-0.2-0.1-0.3-0.1-0.5c0,0.2-0.1,0.3-0.1,0.4c0,0.2-0.1,0.2-0.2,0.2c-0.1,0-0.2,0-0.3,0
		c0.1,0.1,0.1,0.2,0.2,0.3c0.1,0.1,0.1,0.2,0.1,0.4c0,0.1-0.1,0.3-0.1,0.4c0,0,0,0,0,0c0,0,0,0,0,0c0.1-0.1,0.2-0.2,0.3-0.3
		c0,0,0,0,0.1,0C13.9,2,14,2.1,14.1,2.2z M11.6,2.2C11.6,2.2,11.6,2.2,11.6,2.2C11.6,2.2,11.6,2.2,11.6,2.2
		C11.6,2.2,11.6,2.2,11.6,2.2c0,0,0-0.1,0-0.1c0-0.1,0-0.2-0.1-0.4c0-0.1,0-0.2,0-0.2c0.1-0.1,0.2-0.2,0.3-0.3c-0.1,0-0.2,0-0.3,0
		c-0.1,0-0.1,0-0.1-0.1c0-0.2-0.1-0.3-0.1-0.5c0,0.2-0.1,0.3-0.1,0.4c0,0.2-0.1,0.2-0.2,0.2c-0.1,0-0.2,0-0.3,0
		c0.1,0.1,0.1,0.2,0.2,0.3C11,1.6,11,1.7,11,1.8c0,0.1-0.1,0.3-0.1,0.4c0,0,0,0,0,0c0,0,0,0,0,0C11,2.1,11.1,2,11.2,1.9
		c0,0,0,0,0.1,0C11.4,2,11.5,2.1,11.6,2.2z M8.4,2.2C8.5,2.1,8.6,2,8.7,1.9c0,0,0,0,0.1,0C8.9,2,9,2.1,9.1,2.2c0,0,0,0,0,0
		c0,0,0,0,0,0c0,0,0,0,0,0c0,0,0-0.1,0-0.1C9,2,9,1.9,9,1.7c0-0.1,0-0.2,0-0.2c0.1-0.1,0.2-0.2,0.3-0.3c-0.1,0-0.2,0-0.3,0
		c-0.1,0-0.1,0-0.1-0.1c0-0.2-0.1-0.3-0.1-0.5c0,0.2-0.1,0.3-0.1,0.4c0,0.2-0.1,0.2-0.2,0.2c-0.1,0-0.2,0-0.3,0
		c0.1,0.1,0.1,0.2,0.2,0.3c0.1,0.1,0.1,0.2,0.1,0.4C8.4,2,8.4,2.1,8.4,2.2C8.4,2.2,8.4,2.2,8.4,2.2C8.4,2.2,8.4,2.2,8.4,2.2z
		 M5.9,2.2C6,2.1,6.1,2,6.2,1.9c0,0,0,0,0.1,0C6.3,2,6.4,2.1,6.5,2.2c0,0,0,0,0,0c0,0,0,0,0,0c0,0,0,0,0,0c0,0,0-0.1,0-0.1
		c0-0.1,0-0.2-0.1-0.4c0-0.1,0-0.2,0-0.2c0.1-0.1,0.2-0.2,0.3-0.3c-0.1,0-0.2,0-0.3,0c-0.1,0-0.1,0-0.1-0.1c0-0.2-0.1-0.3-0.1-0.5
		c0,0.2-0.1,0.3-0.1,0.4c0,0.2-0.1,0.2-0.2,0.2c-0.1,0-0.2,0-0.3,0c0.1,0.1,0.1,0.2,0.2,0.3C6,1.6,6,1.7,5.9,1.8
		C5.9,2,5.8,2.1,5.9,2.2C5.9,2.2,5.9,2.2,5.9,2.2C5.9,2.2,5.9,2.2,5.9,2.2z M4,2.2C4,2.2,4,2.2,4,2.2C4,2.2,4,2.2,4,2.2
		C4,2.2,4,2.2,4,2.2c0,0,0-0.1,0-0.1C4,2,4,1.9,3.9,1.7c0-0.1,0-0.2,0-0.2c0.1-0.1,0.2-0.2,0.3-0.3c-0.1,0-0.2,0-0.3,0
		c-0.1,0-0.1,0-0.1-0.1c0-0.2-0.1-0.3-0.1-0.5c0,0.2-0.1,0.3-0.1,0.4c0,0.2-0.1,0.2-0.2,0.2c-0.1,0-0.2,0-0.3,0
		c0.1,0.1,0.1,0.2,0.2,0.3c0.1,0.1,0.1,0.2,0.1,0.4c0,0.1-0.1,0.3-0.1,0.4c0,0,0,0,0,0c0,0,0,0,0,0C3.4,2.1,3.5,2,3.6,1.9
		c0,0,0,0,0.1,0C3.8,2,3.9,2.1,4,2.2z M1.5,2.2C1.5,2.2,1.5,2.2,1.5,2.2C1.5,2.2,1.5,2.2,1.5,2.2C1.5,2.2,1.5,2.2,1.5,2.2
		c0,0,0-0.1,0-0.1c0-0.1,0-0.2-0.1-0.4c0-0.1,0-0.2,0-0.2c0.1-0.1,0.2-0.2,0.3-0.3c-0.1,0-0.2,0-0.3,0c-0.1,0-0.1,0-0.1-0.1
		c0-0.2-0.1-0.3-0.1-0.5c0,0.2-0.1,0.3-0.1,0.4C1,1.2,1,1.3,0.8,1.2c-0.1,0-0.2,0-0.3,0c0.1,0.1,0.1,0.2,0.2,0.3
		c0.1,0.1,0.1,0.2,0.1,0.4c0,0.1-0.1,0.3-0.1,0.4c0,0,0,0,0,0c0,0,0,0,0,0C0.9,2.1,1,2,1.1,1.9c0,0,0,0,0.1,0C1.3,2,1.4,2.1,1.5,2.2
		z"/>
	<path fill="#CE142B" d="M40,11.9c0,2,0,4,0,6c-6,0-12,0-18,0c-0.1,0-0.1,0-0.1,0.2c0,4,0,7.9,0,11.9c-1.3,0-2.7,0-4,0
		c0-4,0-7.9,0-11.9c0-0.1,0-0.2-0.1-0.2c-0.6,0-1.2,0-1.8,0c0,0-0.1,0-0.1,0c0.8-0.6,1.6-1.2,2.4-1.8c0,0,0.1,0,0.1-0.1
		c1-0.7,1.9-1.4,2.9-2.2c0,0,0.1,0,0.1-0.1c0.1,0,0.1-0.1,0.2-0.1c0.8-0.6,1.5-1.1,2.3-1.7c0.1,0,0.1-0.1,0.2-0.1
		C29.3,11.9,34.7,11.9,40,11.9z"/>
	<path fill="#FEFDFD" d="M40,11.9c-5.3,0-10.7,0-16,0c-0.1,0-0.1,0-0.2,0.1c-0.8,0.6-1.5,1.1-2.3,1.7c-0.1,0-0.1,0.1-0.2,0.1
		c0,0-0.1,0-0.1,0c-2.1,0-4.1,0-6.2,0c0-0.8,0-1.5,0-2.3c3.1,0,6.2,0,9.3,0c0.1,0,0.1,0,0.2-0.1c1-0.7,1.9-1.4,2.9-2.2
		c0,0,0.1,0,0.1-0.1c0,0,0,0,0,0c-4.2,0-8.3,0-12.5,0c0-0.8,0-1.5,0-2.3c5.2,0,10.4,0,15.5,0c0.1,0,0.1,0,0.2-0.1
		c1-0.7,1.9-1.4,2.9-2.2c0,0,0.1,0,0.1-0.1c-6.2,0-12.5,0-18.7,0c0-0.8,0-1.5,0-2.3c7.2,0,14.5,0,21.7,0c0.1,0,0.1,0,0.2-0.1
		c1-0.7,1.9-1.4,2.9-2.2c0,0,0.1,0,0.1-0.1c0,0,0,0.1,0,0.1c0,1.1,0,2.2,0,3.2c0,0,0,0,0,0c-2.9,2.2-5.9,4.4-8.8,6.6c0,0,0,0,0,0.1
		c0,0,0.1,0,0.1,0c2.9,0,5.8,0,8.7,0c0,0,0.1,0,0.1,0C40,10.6,40,11.3,40,11.9z"/>
	<path fill="#FEFDFD" d="M21.9,30c0-4,0-7.9,0-11.9c0-0.1,0-0.2,0.1-0.2c6,0,12,0,18,0c0,0.7,0,1.3,0,2c0,0-0.1,0-0.1,0
		c-2.9,0-5.8,0-8.7,0c0,0,0,0-0.1,0c0.1,0,0.1,0.1,0.1,0.1c2,1.5,3.9,2.9,5.9,4.4c1,0.7,1.9,1.4,2.9,2.1c0,0.4,0,0.7,0,1.1
		c0,0-0.1,0-0.1-0.1c-3.4-2.5-6.8-5.1-10.2-7.6c-0.1,0-0.1-0.1-0.2-0.1c-0.9,0-1.9,0-2.8,0c0,0-0.1,0-0.1,0c0,0,0.1,0,0.1,0.1
		c4.4,3.3,8.8,6.6,13.1,9.8c0,0,0.1,0,0.1,0.1c-1.5,0-3,0-4.5,0c0-0.1,0-0.1-0.1-0.1c-4-3-8-6-12.1-9c0,0,0-0.1-0.1,0
		c0,0,0,0.1,0,0.1c0,2.9,0,5.9,0,8.8c0,0,0,0.1,0,0.1C22.8,30,22.4,30,21.9,30z"/>
	<path fill="#FEFDFD" d="M18.3,16.1c-0.8,0.6-1.6,1.2-2.4,1.8c0,0,0.1,0,0.1,0c0.6,0,1.2,0,1.8,0c0.1,0,0.1,0,0.1,0.2
		c0,4,0,7.9,0,11.9c-0.4,0-0.9,0-1.3,0c0,0,0-0.1,0-0.1c0-3,0-6,0-8.9c0,0,0-0.1,0-0.1c0,0-0.1,0-0.1,0.1c-4,3-8,6-12,9
		c0,0-0.1,0-0.1,0.1c-0.5,0-1,0-1.5,0c0,0,0.1-0.1,0.1-0.1c4.4-3.3,8.8-6.6,13.1-9.9c0,0,0.1,0,0.1-0.1c0,0,0,0,0,0c0,0-0.1,0-0.1,0
		c-0.4,0-0.9,0-1.3,0c-0.5,0-1,0-1.5,0c0-0.1,0.1-0.1,0.1-0.1c0.6-0.5,1.2-0.9,1.8-1.4c0,0,0.1,0,0.1-0.1c0,0-0.1,0-0.1,0
		c-5.1,0-10.1,0-15.2,0c0,0-0.1,0-0.1,0c0-0.8,0-1.5,0-2.3c0,0,0.1,0,0.1,0c5,0,10,0,15,0c0,0,0.1,0,0.1,0c1,0,2.1,0,3.1,0
		C18.3,16.1,18.3,16.1,18.3,16.1z"/>
	<path fill="#00247D" d="M23.3,30c0,0,0-0.1,0-0.1c0-2.9,0-5.9,0-8.8c0,0,0-0.1,0-0.1c0,0,0.1,0,0.1,0c4,3,8,6,12.1,9
		c0,0,0.1,0,0.1,0.1C31.4,30,27.3,30,23.3,30z"/>
	<path fill="#00247D" d="M4.4,30C4.4,29.9,4.4,29.9,4.4,30c4.1-3.1,8.1-6.1,12.1-9.1c0,0,0.1,0,0.1-0.1c0,0,0,0.1,0,0.1
		c0,3,0,6,0,8.9c0,0,0,0.1,0,0.1C12.5,30,8.4,30,4.4,30z"/>
	<path fill="#B22334" d="M40-0.1C40,0,39.9,0,40-0.1c-1.1,0.8-2,1.5-3,2.2c-0.1,0-0.1,0.1-0.2,0.1c-7.2,0-14.5,0-21.7,0
		c0-0.8,0-1.5,0-2.3C23.4-0.1,31.7-0.1,40-0.1z"/>
	<path fill="#B22334" d="M-0.2,18.4c0,0,0.1,0,0.1,0c5.1,0,10.1,0,15.2,0c0,0,0.1,0,0.1,0c0,0.1-0.1,0.1-0.1,0.1
		c-0.6,0.5-1.2,0.9-1.8,1.4c0,0-0.1,0-0.1,0.1c-0.2,0.1-0.3,0.2-0.5,0.4c-0.2,0.1-0.4,0.3-0.6,0.4c0,0-0.1,0-0.1,0c-4,0-8,0-12.1,0
		c0,0-0.1,0-0.1,0C-0.2,20-0.2,19.2-0.2,18.4z"/>
	<path fill="#CE142B" d="M12.2,20.8c0.2-0.1,0.4-0.3,0.6-0.4c0.2-0.1,0.3-0.3,0.5-0.4c0.5,0,1,0,1.5,0c0.4,0,0.9,0,1.3,0
		c0,0,0.1,0,0.1,0c0,0,0,0,0,0c0,0-0.1,0-0.1,0.1c-4.4,3.3-8.8,6.6-13.1,9.9c0,0-0.1,0-0.1,0.1c-1,0-2,0-3,0c0,0,0.1-0.1,0.1-0.1
		c0.9-0.7,1.9-1.4,2.8-2.1c0,0,0.1,0,0.1-0.1c0.9-0.7,1.9-1.4,2.8-2.1c0.1-0.1,0.2-0.1,0.3-0.2c0.1,0,0.1,0,0.1-0.1
		c1-0.7,1.9-1.4,2.9-2.1c0,0,0.1,0,0.1-0.1C10.1,22.3,11.1,21.5,12.2,20.8z"/>
	<path fill="#00247D" d="M40,9.9C40,9.9,39.9,9.9,40,9.9c-3,0-5.9,0-8.8,0c0,0-0.1,0-0.1,0c0-0.1,0-0.1,0-0.1
		C34.1,7.7,37,5.5,40,3.3c0,0,0,0,0,0C40,5.5,40,7.7,40,9.9z"/>
	<path fill="#00247D" d="M40,26.6c-1-0.7-1.9-1.4-2.9-2.1c-2-1.5-3.9-2.9-5.9-4.4c0,0-0.1,0-0.1-0.1c0.1,0,0.1,0,0.1,0
		c2.9,0,5.8,0,8.7,0c0,0,0.1,0,0.1,0C40,22.2,40,24.4,40,26.6z"/>
	<path fill="#CE142B" d="M40,30c0-0.1-0.1-0.1-0.1-0.1c-4.4-3.3-8.8-6.6-13.1-9.8c0,0-0.1,0-0.1-0.1c0-0.1,0,0,0.1,0
		c0.9,0,1.9,0,2.8,0c0.1,0,0.1,0,0.2,0.1c3.4,2.5,6.8,5.1,10.2,7.6c0,0,0.1,0,0.1,0.1c0,0.7,0,1.4,0,2.1C40,29.9,40,30,40,30z"/>
	<path fill="#FEFDFD" d="M12.2,20.8c-1,0.8-2,1.5-3.1,2.3c0,0-0.1,0-0.1,0c-3,0-6,0-9,0c0,0-0.1,0-0.1,0c0-0.8,0-1.5,0-2.3
		c0,0,0.1,0,0.1,0c4,0,8,0,12.1,0C12.1,20.7,12.1,20.7,12.2,20.8z"/>
	<path fill="#B22334" d="M-0.2,23c0,0,0.1,0,0.1,0c3,0,6,0,9,0c0,0,0.1,0,0.1,0c0,0-0.1,0.1-0.1,0.1c-1,0.7-1.9,1.4-2.9,2.1
		c0,0-0.1,0.1-0.1,0.1c0,0-0.1,0-0.1,0c-1.4,0-2.8,0-4.2,0c-0.6,0-1.2,0-1.8,0C-0.2,24.6-0.2,23.8-0.2,23z"/>
	<path fill="#FEFDFD" d="M-0.2,25.4c0.6,0,1.2,0,1.8,0c1.4,0,2.8,0,4.2,0c0,0,0.1,0,0.1,0c-0.1,0.1-0.2,0.1-0.3,0.2
		c-0.9,0.7-1.9,1.4-2.8,2.1c0,0-0.1,0-0.1,0c-1,0-2,0-3,0C-0.2,26.9-0.2,26.1-0.2,25.4z"/>
	<path fill="#B22334" d="M-0.2,27.7c1,0,2,0,3,0c0,0,0.1,0,0.1,0c0,0.1-0.1,0.1-0.1,0.1c-0.9,0.7-1.9,1.4-2.8,2.1
		c0,0-0.1,0.1-0.1,0.1c-0.1,0,0-0.1,0-0.1c0-0.7,0-1.4,0-2.1C-0.2,27.8-0.2,27.7-0.2,27.7z"/>
	<path fill="#B22334" d="M15.1,4.5c6.2,0,12.4,0,18.7,0c0,0.1-0.1,0.1-0.1,0.1c-1,0.7-1.9,1.4-2.9,2.2c-0.1,0-0.1,0.1-0.2,0.1
		c-5.2,0-10.4,0-15.5,0C15.1,6.1,15.1,5.3,15.1,4.5z"/>
	<path fill="#B22334" d="M15.1,9.2c4.2,0,8.3,0,12.5,0c0,0,0,0,0,0c0,0-0.1,0-0.1,0.1c-1,0.7-1.9,1.4-2.9,2.2
		c-0.1,0-0.1,0.1-0.2,0.1c-3.1,0-6.2,0-9.3,0C15.1,10.7,15.1,9.9,15.1,9.2z"/>
	<path fill="#B22334" d="M18.3,16.1c0,0-0.1,0-0.1,0c-1,0-2.1,0-3.1,0c0-0.8,0-1.5,0-2.3c2.1,0,4.1,0,6.2,0c0,0,0.1,0,0.1,0
		c0,0-0.1,0.1-0.1,0.1c-1,0.7-1.9,1.4-2.9,2.2C18.4,16.1,18.4,16.1,18.3,16.1z"/>
	<path fill="#FAFAFB" d="M0.8,2.2c0-0.2,0-0.3,0.1-0.4c0-0.2,0-0.3-0.1-0.4C0.7,1.4,0.7,1.3,0.6,1.2c0.1,0,0.2,0,0.3,0
		C1,1.3,1,1.2,1.1,1c0-0.1,0.1-0.3,0.1-0.4c0,0.2,0.1,0.4,0.1,0.5c0,0.1,0,0.1,0.1,0.1c0.1,0,0.2,0,0.3,0C1.6,1.4,1.5,1.5,1.4,1.5
		c-0.1,0.1-0.1,0.1,0,0.2c0,0.1,0.1,0.2,0.1,0.4c0,0,0,0.1,0,0.1l0,0C1.4,2.1,1.3,2,1.2,1.9c0,0,0,0-0.1,0C1,2,0.9,2.1,0.8,2.2
		L0.8,2.2z"/>
	<path fill="#FAFAFB" d="M3.3,2.2c0-0.2,0-0.3,0.1-0.4c0-0.2,0-0.3-0.1-0.4C3.3,1.4,3.2,1.3,3.1,1.2c0.1,0,0.2,0,0.3,0
		c0.1,0,0.2,0,0.2-0.2c0-0.1,0.1-0.3,0.1-0.4c0,0.2,0.1,0.4,0.1,0.5c0,0.1,0,0.1,0.1,0.1c0.1,0,0.2,0,0.3,0C4.1,1.4,4.1,1.5,4,1.5
		c-0.1,0.1-0.1,0.1,0,0.2C4,1.9,4,2,4,2.1c0,0,0,0.1,0,0.1l0,0C3.9,2.1,3.8,2,3.7,1.9c0,0,0,0-0.1,0C3.5,2,3.4,2.1,3.3,2.2L3.3,2.2z
		"/>
	<path fill="#FAFAFB" d="M5.9,2.2c0-0.2,0-0.3,0.1-0.4c0-0.2,0-0.3-0.1-0.4C5.8,1.4,5.7,1.3,5.7,1.2c0.1,0,0.2,0,0.3,0
		c0.1,0,0.2,0,0.2-0.2c0-0.1,0.1-0.3,0.1-0.4c0,0.2,0.1,0.4,0.1,0.5c0,0.1,0,0.1,0.1,0.1c0.1,0,0.2,0,0.3,0C6.7,1.4,6.6,1.5,6.5,1.5
		c-0.1,0.1-0.1,0.1,0,0.2c0,0.1,0.1,0.2,0.1,0.4c0,0,0,0.1,0,0.1l0,0C6.4,2.1,6.3,2,6.2,1.9c0,0,0,0-0.1,0C6.1,2,6,2.1,5.9,2.2
		L5.9,2.2z"/>
	<path fill="#FAFAFB" d="M8.4,2.2c0-0.2,0-0.3,0.1-0.4c0-0.2,0-0.3-0.1-0.4C8.3,1.4,8.2,1.3,8.2,1.2c0.1,0,0.2,0,0.3,0
		c0.1,0,0.2,0,0.2-0.2c0-0.1,0.1-0.3,0.1-0.4c0,0.2,0.1,0.4,0.1,0.5c0,0.1,0,0.1,0.1,0.1c0.1,0,0.2,0,0.3,0C9.2,1.4,9.1,1.5,9,1.5
		C9,1.6,9,1.7,9,1.7C9,1.9,9,2,9.1,2.1c0,0,0,0.1,0,0.1l0,0C9,2.1,8.9,2,8.8,1.9c0,0,0,0-0.1,0C8.6,2,8.5,2.1,8.4,2.2L8.4,2.2z"/>
	<path fill="#FAFAFB" d="M10.9,2.2c0-0.2,0-0.3,0.1-0.4c0-0.2,0-0.3-0.1-0.4c-0.1-0.1-0.1-0.1-0.2-0.3c0.1,0,0.2,0,0.3,0
		c0.1,0,0.2,0,0.2-0.2c0-0.1,0.1-0.3,0.1-0.4c0,0.2,0.1,0.4,0.1,0.5c0,0.1,0,0.1,0.1,0.1c0.1,0,0.2,0,0.3,0
		c-0.1,0.1-0.2,0.2-0.3,0.3c-0.1,0.1-0.1,0.1,0,0.2c0,0.1,0.1,0.2,0.1,0.4c0,0,0,0.1,0,0.1l0,0c-0.1-0.1-0.2-0.2-0.3-0.3
		c0,0,0,0-0.1,0C11.1,2,11,2.1,10.9,2.2L10.9,2.2z"/>
	<path fill="#FAFAFB" d="M13.5,2.2c0-0.2,0-0.3,0.1-0.4c0-0.2,0-0.3-0.1-0.4c-0.1-0.1-0.1-0.1-0.2-0.3c0.1,0,0.2,0,0.3,0
		c0.1,0,0.2,0,0.2-0.2c0-0.1,0.1-0.3,0.1-0.4c0,0.2,0.1,0.4,0.1,0.5c0,0.1,0,0.1,0.1,0.1c0.1,0,0.2,0,0.3,0
		c-0.1,0.1-0.2,0.2-0.3,0.3C14,1.6,14,1.7,14,1.7c0,0.1,0.1,0.2,0.1,0.4c0,0,0,0.1,0,0.1l0,0C14,2.1,13.9,2,13.8,1.9c0,0,0,0-0.1,0
		C13.7,2,13.5,2.1,13.5,2.2L13.5,2.2z"/>
	<path fill="#FAFAFB" d="M10.9,15.2c0-0.2,0-0.3,0.1-0.4c0-0.2,0-0.3-0.1-0.4c-0.1-0.1-0.1-0.1-0.2-0.3c0.1,0,0.2,0,0.3,0
		c0.1,0,0.2,0,0.2-0.2c0-0.1,0.1-0.3,0.1-0.4c0,0.2,0.1,0.4,0.1,0.5c0,0.1,0,0.1,0.1,0.1c0.1,0,0.2,0,0.3,0
		c-0.1,0.1-0.2,0.2-0.3,0.3c-0.1,0.1-0.1,0.1,0,0.2c0,0.1,0.1,0.2,0.1,0.4c0,0,0,0.1,0,0.1l0,0c-0.1-0.1-0.2-0.2-0.3-0.3
		c0,0,0,0-0.1,0C11.1,15,11,15.1,10.9,15.2L10.9,15.2z"/>
	<path fill="#FAFAFB" d="M2.1,7.1c0-0.2,0-0.3,0.1-0.4c0-0.2,0-0.3-0.1-0.4C2,6.3,1.9,6.2,1.9,6.1c0.1,0,0.2,0,0.3,0
		c0.1,0,0.2,0,0.2-0.2c0-0.1,0.1-0.3,0.1-0.4c0,0.2,0.1,0.4,0.1,0.5c0,0.1,0,0.1,0.1,0.1c0.1,0,0.2,0,0.3,0C2.9,6.2,2.8,6.3,2.7,6.4
		c-0.1,0.1-0.1,0.1,0,0.2c0,0.1,0.1,0.2,0.1,0.4c0,0,0,0.1,0,0.1l0,0C2.7,7,2.5,6.9,2.4,6.8c0,0,0,0-0.1,0C2.3,6.9,2.2,7,2.1,7.1
		L2.1,7.1z"/>
	<path fill="#FAFAFB" d="M5.3,7.1C5.2,7,5.1,6.9,5,6.8c0,0,0,0-0.1,0C4.8,6.9,4.7,7,4.6,7.1l0,0c0-0.2,0-0.3,0.1-0.4
		c0-0.2,0-0.3-0.1-0.4C4.5,6.3,4.5,6.2,4.4,6.1c0.1,0,0.2,0,0.3,0c0.1,0,0.2,0,0.2-0.2c0-0.1,0.1-0.3,0.1-0.4C5,5.7,5,5.8,5.1,6
		c0,0.1,0,0.1,0.1,0.1c0.1,0,0.2,0,0.3,0C5.4,6.2,5.3,6.3,5.2,6.4c-0.1,0.1-0.1,0.1,0,0.2c0,0.1,0.1,0.2,0.1,0.4
		C5.3,7,5.3,7.1,5.3,7.1L5.3,7.1z"/>
	<path fill="#FAFAFB" d="M7.8,7.1C7.7,7,7.6,6.9,7.5,6.8c0,0,0,0-0.1,0C7.3,6.9,7.2,7,7.1,7.1l0,0c0-0.2,0-0.3,0.1-0.4
		c0-0.2,0-0.3-0.1-0.4C7.1,6.3,7,6.2,6.9,6.1c0.1,0,0.2,0,0.3,0c0.1,0,0.2,0,0.2-0.2c0-0.1,0.1-0.3,0.1-0.4c0,0.2,0.1,0.4,0.1,0.5
		c0,0.1,0,0.1,0.1,0.1c0.1,0,0.2,0,0.3,0C7.9,6.2,7.9,6.3,7.8,6.4c-0.1,0.1-0.1,0.1,0,0.2c0,0.1,0.1,0.2,0.1,0.4
		C7.8,7,7.8,7.1,7.8,7.1L7.8,7.1z"/>
	<path fill="#FAFAFB" d="M9.7,7.1c0-0.2,0-0.3,0.1-0.4c0-0.2,0-0.3-0.1-0.4C9.6,6.3,9.5,6.2,9.4,6.1c0.1,0,0.2,0,0.3,0
		c0.1,0,0.2,0,0.2-0.2c0-0.1,0.1-0.3,0.1-0.4c0,0.2,0.1,0.4,0.1,0.5c0,0.1,0,0.1,0.1,0.1c0.1,0,0.2,0,0.3,0
		c-0.1,0.1-0.2,0.2-0.3,0.3c-0.1,0.1-0.1,0.1,0,0.2c0,0.1,0.1,0.2,0.1,0.4c0,0,0,0.1,0,0.1l0,0C10.2,7,10.1,6.9,10,6.8
		c0,0,0,0-0.1,0C9.9,6.9,9.8,7,9.7,7.1L9.7,7.1z"/>
	<path fill="#FAFAFB" d="M12.9,7.1c-0.1-0.1-0.2-0.2-0.3-0.3c0,0,0,0-0.1,0c-0.1,0.1-0.2,0.2-0.3,0.3l0,0c0-0.2,0-0.3,0.1-0.4
		c0-0.2,0-0.3-0.1-0.4C12.1,6.3,12,6.2,12,6.1c0.1,0,0.2,0,0.3,0c0.1,0,0.2,0,0.2-0.2c0-0.1,0.1-0.3,0.1-0.4c0,0.2,0.1,0.4,0.1,0.5
		c0,0.1,0,0.1,0.1,0.1c0.1,0,0.2,0,0.3,0c-0.1,0.1-0.2,0.2-0.3,0.3c-0.1,0.1-0.1,0.1,0,0.2c0,0.1,0.1,0.2,0.1,0.4
		C12.9,7,12.9,7.1,12.9,7.1L12.9,7.1z"/>
	<path fill="#FAFAFB" d="M13.5,15.2c0-0.2,0-0.3,0.1-0.4c0-0.2,0-0.3-0.1-0.4c-0.1-0.1-0.1-0.1-0.2-0.3c0.1,0,0.2,0,0.3,0
		c0.1,0,0.2,0,0.2-0.2c0-0.1,0.1-0.3,0.1-0.4c0,0.2,0.1,0.4,0.1,0.5c0,0.1,0,0.1,0.1,0.1c0.1,0,0.2,0,0.3,0
		c-0.1,0.1-0.2,0.2-0.3,0.3c-0.1,0.1-0.1,0.1,0,0.2c0,0.1,0.1,0.2,0.1,0.4c0,0,0,0.1,0,0.1l0,0c-0.1-0.1-0.2-0.2-0.3-0.3
		c0,0,0,0-0.1,0C13.7,15,13.5,15.1,13.5,15.2L13.5,15.2z"/>
	<path fill="#FAFAFB" d="M3.3,12c0-0.2,0-0.3,0.1-0.4c0-0.2,0-0.3-0.1-0.4c-0.1-0.1-0.1-0.1-0.2-0.3c0.1,0,0.2,0,0.3,0
		c0.1,0,0.2,0,0.2-0.2c0-0.1,0.1-0.3,0.1-0.4c0,0.2,0.1,0.4,0.1,0.5c0,0.1,0,0.1,0.1,0.1c0.1,0,0.2,0,0.3,0
		c-0.1,0.1-0.2,0.2-0.3,0.3c-0.1,0.1-0.1,0.1,0,0.2C4,11.6,4,11.7,4,11.9c0,0,0,0.1,0,0.1l0,0c-0.1-0.1-0.2-0.2-0.3-0.3
		c0,0,0,0-0.1,0C3.5,11.8,3.4,11.9,3.3,12L3.3,12z"/>
	<path fill="#FAFAFB" d="M1.5,8.7C1.4,8.6,1.3,8.5,1.2,8.4c0,0,0,0-0.1,0C1,8.5,0.9,8.6,0.8,8.7l0,0c0-0.2,0-0.3,0.1-0.4
		c0-0.2,0-0.3-0.1-0.4C0.7,7.9,0.7,7.8,0.6,7.7c0.1,0,0.2,0,0.3,0c0.1,0,0.2,0,0.2-0.2c0-0.1,0.1-0.3,0.1-0.4c0,0.2,0.1,0.4,0.1,0.5
		c0,0.1,0,0.1,0.1,0.1c0.1,0,0.2,0,0.3,0C1.6,7.8,1.5,8,1.4,8c-0.1,0.1-0.1,0.1,0,0.2c0,0.1,0.1,0.2,0.1,0.4
		C1.5,8.6,1.5,8.7,1.5,8.7L1.5,8.7z"/>
	<path fill="#FAFAFB" d="M3.3,8.7c0-0.2,0-0.3,0.1-0.4c0-0.2,0-0.3-0.1-0.4C3.3,7.9,3.2,7.8,3.1,7.7c0.1,0,0.2,0,0.3,0
		c0.1,0,0.2,0,0.2-0.2c0-0.1,0.1-0.3,0.1-0.4c0,0.2,0.1,0.4,0.1,0.5c0,0.1,0,0.1,0.1,0.1c0.1,0,0.2,0,0.3,0C4.1,7.8,4.1,8,4,8
		c-0.1,0.1-0.1,0.1,0,0.2C4,8.4,4,8.5,4,8.6c0,0,0,0.1,0,0.1l0,0C3.9,8.6,3.8,8.5,3.7,8.4c0,0,0,0-0.1,0C3.5,8.5,3.4,8.6,3.3,8.7
		L3.3,8.7z"/>
	<path fill="#FAFAFB" d="M5.9,8.7c0-0.2,0-0.3,0.1-0.4C6,8.2,6,8.1,5.9,8C5.8,7.9,5.7,7.8,5.7,7.7c0.1,0,0.2,0,0.3,0
		c0.1,0,0.2,0,0.2-0.2c0-0.1,0.1-0.3,0.1-0.4c0,0.2,0.1,0.4,0.1,0.5c0,0.1,0,0.1,0.1,0.1c0.1,0,0.2,0,0.3,0C6.7,7.8,6.6,8,6.5,8
		c-0.1,0.1-0.1,0.1,0,0.2c0,0.1,0.1,0.2,0.1,0.4c0,0,0,0.1,0,0.1l0,0C6.4,8.6,6.3,8.5,6.2,8.4c0,0,0,0-0.1,0C6.1,8.5,6,8.6,5.9,8.7
		L5.9,8.7z"/>
	<path fill="#FAFAFB" d="M9.1,8.7C9,8.6,8.9,8.5,8.8,8.4c0,0,0,0-0.1,0C8.6,8.5,8.5,8.6,8.4,8.7l0,0c0-0.2,0-0.3,0.1-0.4
		c0-0.2,0-0.3-0.1-0.4C8.3,7.9,8.2,7.8,8.2,7.7c0.1,0,0.2,0,0.3,0c0.1,0,0.2,0,0.2-0.2c0-0.1,0.1-0.3,0.1-0.4c0,0.2,0.1,0.4,0.1,0.5
		c0,0.1,0,0.1,0.1,0.1c0.1,0,0.2,0,0.3,0C9.2,7.8,9.1,8,9,8C9,8.1,9,8.1,9,8.2C9,8.4,9,8.5,9.1,8.6C9.1,8.6,9.1,8.7,9.1,8.7L9.1,8.7
		z"/>
	<path fill="#FAFAFB" d="M2.1,3.9c0-0.2,0-0.3,0.1-0.4c0-0.2,0-0.3-0.1-0.4C2,3.1,1.9,3,1.9,2.9c0.1,0,0.2,0,0.3,0
		c0.1,0,0.2,0,0.2-0.2c0-0.1,0.1-0.3,0.1-0.4c0,0.2,0.1,0.4,0.1,0.5c0,0.1,0,0.1,0.1,0.1c0.1,0,0.2,0,0.3,0C2.9,3,2.8,3.1,2.7,3.2
		c-0.1,0.1-0.1,0.1,0,0.2c0,0.1,0.1,0.2,0.1,0.4c0,0,0,0.1,0,0.1l0,0C2.7,3.7,2.5,3.6,2.4,3.5c0,0,0,0-0.1,0
		C2.3,3.6,2.2,3.7,2.1,3.9L2.1,3.9z"/>
	<path fill="#FAFAFB" d="M5.3,3.9C5.2,3.7,5.1,3.6,5,3.5c0,0,0,0-0.1,0C4.8,3.6,4.7,3.7,4.6,3.9l0,0c0-0.2,0-0.3,0.1-0.4
		c0-0.2,0-0.3-0.1-0.4C4.5,3.1,4.5,3,4.4,2.9c0.1,0,0.2,0,0.3,0c0.1,0,0.2,0,0.2-0.2c0-0.1,0.1-0.3,0.1-0.4C5,2.4,5,2.6,5.1,2.7
		c0,0.1,0,0.1,0.1,0.1c0.1,0,0.2,0,0.3,0C5.4,3,5.3,3.1,5.2,3.2c-0.1,0.1-0.1,0.1,0,0.2c0,0.1,0.1,0.2,0.1,0.4
		C5.3,3.8,5.3,3.8,5.3,3.9L5.3,3.9z"/>
	<path fill="#FAFAFB" d="M7.8,3.9C7.7,3.7,7.6,3.6,7.5,3.5c0,0,0,0-0.1,0C7.3,3.6,7.2,3.7,7.1,3.9l0,0c0-0.2,0-0.3,0.1-0.4
		c0-0.2,0-0.3-0.1-0.4C7.1,3.1,7,3,6.9,2.9c0.1,0,0.2,0,0.3,0c0.1,0,0.2,0,0.2-0.2c0-0.1,0.1-0.3,0.1-0.4c0,0.2,0.1,0.4,0.1,0.5
		c0,0.1,0,0.1,0.1,0.1c0.1,0,0.2,0,0.3,0C7.9,3,7.9,3.1,7.8,3.2c-0.1,0.1-0.1,0.1,0,0.2c0,0.1,0.1,0.2,0.1,0.4
		C7.8,3.8,7.8,3.8,7.8,3.9L7.8,3.9z"/>
	<path fill="#FAFAFB" d="M9.7,3.9c0-0.2,0-0.3,0.1-0.4c0-0.2,0-0.3-0.1-0.4C9.6,3.1,9.5,3,9.4,2.9c0.1,0,0.2,0,0.3,0
		c0.1,0,0.2,0,0.2-0.2c0-0.1,0.1-0.3,0.1-0.4c0,0.2,0.1,0.4,0.1,0.5c0,0.1,0,0.1,0.1,0.1c0.1,0,0.2,0,0.3,0
		c-0.1,0.1-0.2,0.2-0.3,0.3c-0.1,0.1-0.1,0.1,0,0.2c0,0.1,0.1,0.2,0.1,0.4c0,0,0,0.1,0,0.1l0,0c-0.1-0.1-0.2-0.2-0.3-0.3
		c0,0,0,0-0.1,0C9.9,3.6,9.8,3.7,9.7,3.9L9.7,3.9z"/>
	<path fill="#FAFAFB" d="M12.9,3.9c-0.1-0.1-0.2-0.2-0.3-0.3c0,0,0,0-0.1,0c-0.1,0.1-0.2,0.2-0.3,0.3l0,0c0-0.2,0-0.3,0.1-0.4
		c0-0.2,0-0.3-0.1-0.4C12.1,3.1,12,3,12,2.9c0.1,0,0.2,0,0.3,0c0.1,0,0.2,0,0.2-0.2c0-0.1,0.1-0.3,0.1-0.4c0,0.2,0.1,0.4,0.1,0.5
		c0,0.1,0,0.1,0.1,0.1c0.1,0,0.2,0,0.3,0C13,3,12.9,3.1,12.8,3.2c-0.1,0.1-0.1,0.1,0,0.2c0,0.1,0.1,0.2,0.1,0.4
		C12.9,3.8,12.9,3.8,12.9,3.9L12.9,3.9z"/>
	<path fill="#FAFAFB" d="M10.9,8.7c0-0.2,0-0.3,0.1-0.4c0-0.2,0-0.3-0.1-0.4c-0.1-0.1-0.1-0.1-0.2-0.3c0.1,0,0.2,0,0.3,0
		c0.1,0,0.2,0,0.2-0.2c0-0.1,0.1-0.3,0.1-0.4c0,0.2,0.1,0.4,0.1,0.5c0,0.1,0,0.1,0.1,0.1c0.1,0,0.2,0,0.3,0C11.7,7.8,11.7,8,11.6,8
		c-0.1,0.1-0.1,0.1,0,0.2c0,0.1,0.1,0.2,0.1,0.4c0,0,0,0.1,0,0.1l0,0c-0.1-0.1-0.2-0.2-0.3-0.3c0,0,0,0-0.1,0
		C11.1,8.5,11,8.6,10.9,8.7L10.9,8.7z"/>
	<path fill="#FAFAFB" d="M14.1,8.7c-0.1-0.1-0.2-0.2-0.3-0.3c0,0,0,0-0.1,0c-0.1,0.1-0.2,0.2-0.3,0.3l0,0c0-0.2,0-0.3,0.1-0.4
		c0-0.2,0-0.3-0.1-0.4c-0.1-0.1-0.1-0.1-0.2-0.3c0.1,0,0.2,0,0.3,0c0.1,0,0.2,0,0.2-0.2c0-0.1,0.1-0.3,0.1-0.4
		c0,0.2,0.1,0.4,0.1,0.5c0,0.1,0,0.1,0.1,0.1c0.1,0,0.2,0,0.3,0C14.3,7.8,14.2,8,14.1,8C14,8.1,14,8.1,14,8.2c0,0.1,0.1,0.2,0.1,0.4
		C14.1,8.6,14.2,8.7,14.1,8.7L14.1,8.7z"/>
	<path fill="#FAFAFB" d="M12.9,13.6c-0.1-0.1-0.2-0.2-0.3-0.3c0,0,0,0-0.1,0c-0.1,0.1-0.2,0.2-0.3,0.3l0,0c0-0.2,0-0.3,0.1-0.4
		c0-0.2,0-0.3-0.1-0.4c-0.1-0.1-0.1-0.1-0.2-0.3c0.1,0,0.2,0,0.3,0c0.1,0,0.2,0,0.2-0.2c0-0.1,0.1-0.3,0.1-0.4
		c0,0.2,0.1,0.4,0.1,0.5c0,0.1,0,0.1,0.1,0.1c0.1,0,0.2,0,0.3,0c-0.1,0.1-0.2,0.2-0.3,0.3c-0.1,0.1-0.1,0.1,0,0.2
		c0,0.1,0.1,0.2,0.1,0.4C12.9,13.5,12.9,13.6,12.9,13.6L12.9,13.6z"/>
	<path fill="#FAFAFB" d="M2.7,10.4c-0.1-0.1-0.2-0.2-0.3-0.3c0,0,0,0-0.1,0c-0.1,0.1-0.2,0.2-0.3,0.3l0,0c0-0.2,0-0.3,0.1-0.4
		c0-0.2,0-0.3-0.1-0.4C2,9.5,1.9,9.5,1.9,9.4c0.1,0,0.2,0,0.3,0c0.1,0,0.2,0,0.2-0.2c0-0.1,0.1-0.3,0.1-0.4c0,0.2,0.1,0.4,0.1,0.5
		c0,0.1,0,0.1,0.1,0.1c0.1,0,0.2,0,0.3,0C2.9,9.5,2.8,9.6,2.7,9.7c-0.1,0.1-0.1,0.1,0,0.2c0,0.1,0.1,0.2,0.1,0.4
		C2.7,10.3,2.8,10.3,2.7,10.4L2.7,10.4z"/>
	<path fill="#FAFAFB" d="M5.3,10.4C5.2,10.2,5.1,10.1,5,10c0,0,0,0-0.1,0c-0.1,0.1-0.2,0.2-0.3,0.3l0,0c0-0.2,0-0.3,0.1-0.4
		c0-0.2,0-0.3-0.1-0.4C4.5,9.5,4.5,9.5,4.4,9.4c0.1,0,0.2,0,0.3,0c0.1,0,0.2,0,0.2-0.2c0-0.1,0.1-0.3,0.1-0.4C5,8.9,5,9.1,5.1,9.2
		c0,0.1,0,0.1,0.1,0.1c0.1,0,0.2,0,0.3,0C5.4,9.5,5.3,9.6,5.2,9.7c-0.1,0.1-0.1,0.1,0,0.2c0,0.1,0.1,0.2,0.1,0.4
		C5.3,10.3,5.3,10.3,5.3,10.4L5.3,10.4z"/>
	<path fill="#FAFAFB" d="M7.1,10.4c0-0.2,0-0.3,0.1-0.4c0-0.2,0-0.3-0.1-0.4C7.1,9.5,7,9.5,6.9,9.4c0.1,0,0.2,0,0.3,0
		c0.1,0,0.2,0,0.2-0.2c0-0.1,0.1-0.3,0.1-0.4c0,0.2,0.1,0.4,0.1,0.5c0,0.1,0,0.1,0.1,0.1c0.1,0,0.2,0,0.3,0C7.9,9.5,7.9,9.6,7.8,9.7
		c-0.1,0.1-0.1,0.1,0,0.2c0,0.1,0.1,0.2,0.1,0.4c0,0,0,0.1,0,0.1l0,0c-0.1-0.1-0.2-0.2-0.3-0.3c0,0,0,0-0.1,0
		C7.3,10.1,7.2,10.2,7.1,10.4L7.1,10.4z"/>
	<path fill="#FAFAFB" d="M10.3,10.4c-0.1-0.1-0.2-0.2-0.3-0.3c0,0,0,0-0.1,0c-0.1,0.1-0.2,0.2-0.3,0.3l0,0c0-0.2,0-0.3,0.1-0.4
		c0-0.2,0-0.3-0.1-0.4C9.6,9.5,9.5,9.5,9.4,9.4c0.1,0,0.2,0,0.3,0c0.1,0,0.2,0,0.2-0.2C9.9,9,10,8.9,10,8.7c0,0.2,0.1,0.4,0.1,0.5
		c0,0.1,0,0.1,0.1,0.1c0.1,0,0.2,0,0.3,0c-0.1,0.1-0.2,0.2-0.3,0.3c-0.1,0.1-0.1,0.1,0,0.2c0,0.1,0.1,0.2,0.1,0.4
		C10.3,10.3,10.4,10.3,10.3,10.4L10.3,10.4z"/>
	<path fill="#FAFAFB" d="M12.2,10.4c0-0.2,0-0.3,0.1-0.4c0-0.2,0-0.3-0.1-0.4C12.1,9.5,12,9.5,12,9.4c0.1,0,0.2,0,0.3,0
		c0.1,0,0.2,0,0.2-0.2c0-0.1,0.1-0.3,0.1-0.4c0,0.2,0.1,0.4,0.1,0.5c0,0.1,0,0.1,0.1,0.1c0.1,0,0.2,0,0.3,0
		c-0.1,0.1-0.2,0.2-0.3,0.3c-0.1,0.1-0.1,0.1,0,0.2c0,0.1,0.1,0.2,0.1,0.4c0,0,0,0.1,0,0.1l0,0c-0.1-0.1-0.2-0.2-0.3-0.3
		c0,0,0,0-0.1,0C12.4,10.1,12.3,10.2,12.2,10.4L12.2,10.4z"/>
	<path fill="#FAFAFB" d="M0.8,12c0-0.2,0-0.3,0.1-0.4c0-0.2,0-0.3-0.1-0.4c-0.1-0.1-0.1-0.1-0.2-0.3c0.1,0,0.2,0,0.3,0
		c0.1,0,0.2,0,0.2-0.2c0-0.1,0.1-0.3,0.1-0.4c0,0.2,0.1,0.4,0.1,0.5c0,0.1,0,0.1,0.1,0.1c0.1,0,0.2,0,0.3,0
		c-0.1,0.1-0.2,0.2-0.3,0.3c-0.1,0.1-0.1,0.1,0,0.2c0,0.1,0.1,0.2,0.1,0.4c0,0,0,0.1,0,0.1l0,0c-0.1-0.1-0.2-0.2-0.3-0.3
		c0,0,0,0-0.1,0C1,11.8,0.9,11.9,0.8,12L0.8,12z"/>
	<path fill="#FAFAFB" d="M5.9,12c0-0.2,0-0.3,0.1-0.4c0-0.2,0-0.3-0.1-0.4c-0.1-0.1-0.1-0.1-0.2-0.3c0.1,0,0.2,0,0.3,0
		c0.1,0,0.2,0,0.2-0.2c0-0.1,0.1-0.3,0.1-0.4c0,0.2,0.1,0.4,0.1,0.5c0,0.1,0,0.1,0.1,0.1c0.1,0,0.2,0,0.3,0
		c-0.1,0.1-0.2,0.2-0.3,0.3c-0.1,0.1-0.1,0.1,0,0.2c0,0.1,0.1,0.2,0.1,0.4c0,0,0,0.1,0,0.1l0,0c-0.1-0.1-0.2-0.2-0.3-0.3
		c0,0,0,0-0.1,0C6.1,11.8,6,11.9,5.9,12L5.9,12z"/>
	<path fill="#FAFAFB" d="M0.8,5.5c0-0.2,0-0.3,0.1-0.4c0-0.2,0-0.3-0.1-0.4C0.7,4.7,0.7,4.6,0.6,4.5c0.1,0,0.2,0,0.3,0
		c0.1,0,0.2,0,0.2-0.2c0-0.1,0.1-0.3,0.1-0.4c0,0.2,0.1,0.4,0.1,0.5c0,0.1,0,0.1,0.1,0.1c0.1,0,0.2,0,0.3,0C1.6,4.6,1.5,4.7,1.4,4.8
		C1.4,4.8,1.4,4.9,1.4,5c0,0.1,0.1,0.2,0.1,0.4c0,0,0,0.1,0,0.1l0,0C1.4,5.4,1.3,5.3,1.2,5.2c0,0,0,0-0.1,0C1,5.3,0.9,5.4,0.8,5.5
		L0.8,5.5z"/>
	<path fill="#FAFAFB" d="M4,5.5C3.9,5.4,3.8,5.3,3.7,5.2c0,0,0,0-0.1,0C3.5,5.3,3.4,5.4,3.3,5.5l0,0c0-0.2,0-0.3,0.1-0.4
		c0-0.2,0-0.3-0.1-0.4C3.3,4.7,3.2,4.6,3.1,4.5c0.1,0,0.2,0,0.3,0c0.1,0,0.2,0,0.2-0.2c0-0.1,0.1-0.3,0.1-0.4c0,0.2,0.1,0.4,0.1,0.5
		c0,0.1,0,0.1,0.1,0.1c0.1,0,0.2,0,0.3,0C4.1,4.6,4.1,4.7,4,4.8C3.9,4.8,3.9,4.9,3.9,5C4,5.1,4,5.2,4,5.4C4,5.4,4,5.4,4,5.5L4,5.5z"
		/>
	<path fill="#FAFAFB" d="M6.5,5.5C6.4,5.4,6.3,5.3,6.2,5.2c0,0,0,0-0.1,0C6.1,5.3,6,5.4,5.9,5.5l0,0c0-0.2,0-0.3,0.1-0.4
		c0-0.2,0-0.3-0.1-0.4C5.8,4.7,5.7,4.6,5.7,4.5c0.1,0,0.2,0,0.3,0c0.1,0,0.2,0,0.2-0.2c0-0.1,0.1-0.3,0.1-0.4c0,0.2,0.1,0.4,0.1,0.5
		c0,0.1,0,0.1,0.1,0.1c0.1,0,0.2,0,0.3,0C6.7,4.6,6.6,4.7,6.5,4.8C6.4,4.8,6.4,4.9,6.5,5c0,0.1,0.1,0.2,0.1,0.4
		C6.5,5.4,6.6,5.4,6.5,5.5L6.5,5.5z"/>
	<path fill="#FAFAFB" d="M9.1,5.5C9,5.4,8.9,5.3,8.8,5.2c0,0,0,0-0.1,0C8.6,5.3,8.5,5.4,8.4,5.5l0,0c0-0.2,0-0.3,0.1-0.4
		c0-0.2,0-0.3-0.1-0.4C8.3,4.7,8.2,4.6,8.2,4.5c0.1,0,0.2,0,0.3,0c0.1,0,0.2,0,0.2-0.2c0-0.1,0.1-0.3,0.1-0.4c0,0.2,0.1,0.4,0.1,0.5
		c0,0.1,0,0.1,0.1,0.1c0.1,0,0.2,0,0.3,0C9.2,4.6,9.1,4.7,9,4.8C9,4.8,9,4.9,9,5C9,5.1,9,5.2,9.1,5.4C9.1,5.4,9.1,5.4,9.1,5.5
		L9.1,5.5z"/>
	<path fill="#FAFAFB" d="M11.6,5.5c-0.1-0.1-0.2-0.2-0.3-0.3c0,0,0,0-0.1,0c-0.1,0.1-0.2,0.2-0.3,0.3l0,0c0-0.2,0-0.3,0.1-0.4
		c0-0.2,0-0.3-0.1-0.4c-0.1-0.1-0.1-0.1-0.2-0.3c0.1,0,0.2,0,0.3,0c0.1,0,0.2,0,0.2-0.2c0-0.1,0.1-0.3,0.1-0.4
		c0,0.2,0.1,0.4,0.1,0.5c0,0.1,0,0.1,0.1,0.1c0.1,0,0.2,0,0.3,0c-0.1,0.1-0.2,0.2-0.3,0.3c-0.1,0.1-0.1,0.1,0,0.2
		c0,0.1,0.1,0.2,0.1,0.4C11.6,5.4,11.6,5.4,11.6,5.5L11.6,5.5z"/>
	<path fill="#FAFAFB" d="M14.1,5.5c-0.1-0.1-0.2-0.2-0.3-0.3c0,0,0,0-0.1,0c-0.1,0.1-0.2,0.2-0.3,0.3l0,0c0-0.2,0-0.3,0.1-0.4
		c0-0.2,0-0.3-0.1-0.4c-0.1-0.1-0.1-0.1-0.2-0.3c0.1,0,0.2,0,0.3,0c0.1,0,0.2,0,0.2-0.2c0-0.1,0.1-0.3,0.1-0.4
		c0,0.2,0.1,0.4,0.1,0.5c0,0.1,0,0.1,0.1,0.1c0.1,0,0.2,0,0.3,0c-0.1,0.1-0.2,0.2-0.3,0.3C14,4.8,14,4.9,14,5c0,0.1,0.1,0.2,0.1,0.4
		C14.1,5.4,14.2,5.4,14.1,5.5L14.1,5.5z"/>
	<path fill="#FAFAFB" d="M8.4,12c0-0.2,0-0.3,0.1-0.4c0-0.2,0-0.3-0.1-0.4c-0.1-0.1-0.1-0.1-0.2-0.3c0.1,0,0.2,0,0.3,0
		c0.1,0,0.2,0,0.2-0.2c0-0.1,0.1-0.3,0.1-0.4c0,0.2,0.1,0.4,0.1,0.5c0,0.1,0,0.1,0.1,0.1c0.1,0,0.2,0,0.3,0
		c-0.1,0.1-0.2,0.2-0.3,0.3C9,11.3,9,11.4,9,11.5c0,0.1,0.1,0.2,0.1,0.4c0,0,0,0.1,0,0.1l0,0c-0.1-0.1-0.2-0.2-0.3-0.3
		c0,0,0,0-0.1,0C8.6,11.8,8.5,11.9,8.4,12L8.4,12z"/>
	<path fill="#FAFAFB" d="M11.6,12c-0.1-0.1-0.2-0.2-0.3-0.3c0,0,0,0-0.1,0c-0.1,0.1-0.2,0.2-0.3,0.3l0,0c0-0.2,0-0.3,0.1-0.4
		c0-0.2,0-0.3-0.1-0.4c-0.1-0.1-0.1-0.1-0.2-0.3c0.1,0,0.2,0,0.3,0c0.1,0,0.2,0,0.2-0.2c0-0.1,0.1-0.3,0.1-0.4
		c0,0.2,0.1,0.4,0.1,0.5c0,0.1,0,0.1,0.1,0.1c0.1,0,0.2,0,0.3,0c-0.1,0.1-0.2,0.2-0.3,0.3c-0.1,0.1-0.1,0.1,0,0.2
		c0,0.1,0.1,0.2,0.1,0.4C11.6,11.9,11.6,11.9,11.6,12L11.6,12z"/>
	<path fill="#FAFAFB" d="M13.5,12c0-0.2,0-0.3,0.1-0.4c0-0.2,0-0.3-0.1-0.4c-0.1-0.1-0.1-0.1-0.2-0.3c0.1,0,0.2,0,0.3,0
		c0.1,0,0.2,0,0.2-0.2c0-0.1,0.1-0.3,0.1-0.4c0,0.2,0.1,0.4,0.1,0.5c0,0.1,0,0.1,0.1,0.1c0.1,0,0.2,0,0.3,0
		c-0.1,0.1-0.2,0.2-0.3,0.3c-0.1,0.1-0.1,0.1,0,0.2c0,0.1,0.1,0.2,0.1,0.4c0,0,0,0.1,0,0.1l0,0c-0.1-0.1-0.2-0.2-0.3-0.3
		c0,0,0,0-0.1,0C13.7,11.8,13.5,11.9,13.5,12L13.5,12z"/>
	<path fill="#FAFAFB" d="M2.7,13.6c-0.1-0.1-0.2-0.2-0.3-0.3c0,0,0,0-0.1,0c-0.1,0.1-0.2,0.2-0.3,0.3l0,0c0-0.2,0-0.3,0.1-0.4
		c0-0.2,0-0.3-0.1-0.4c-0.1-0.1-0.1-0.1-0.2-0.3c0.1,0,0.2,0,0.3,0c0.1,0,0.2,0,0.2-0.2c0-0.1,0.1-0.3,0.1-0.4
		c0,0.2,0.1,0.4,0.1,0.5c0,0.1,0,0.1,0.1,0.1c0.1,0,0.2,0,0.3,0c-0.1,0.1-0.2,0.2-0.3,0.3c-0.1,0.1-0.1,0.1,0,0.2
		c0,0.1,0.1,0.2,0.1,0.4C2.7,13.5,2.8,13.6,2.7,13.6L2.7,13.6z"/>
	<path fill="#FAFAFB" d="M4.6,13.6c0-0.2,0-0.3,0.1-0.4c0-0.2,0-0.3-0.1-0.4c-0.1-0.1-0.1-0.1-0.2-0.3c0.1,0,0.2,0,0.3,0
		c0.1,0,0.2,0,0.2-0.2c0-0.1,0.1-0.3,0.1-0.4c0,0.2,0.1,0.4,0.1,0.5c0,0.1,0,0.1,0.1,0.1c0.1,0,0.2,0,0.3,0
		c-0.1,0.1-0.2,0.2-0.3,0.3c-0.1,0.1-0.1,0.1,0,0.2c0,0.1,0.1,0.2,0.1,0.4c0,0,0,0.1,0,0.1l0,0c-0.1-0.1-0.2-0.2-0.3-0.3
		c0,0,0,0-0.1,0C4.8,13.4,4.7,13.5,4.6,13.6L4.6,13.6z"/>
	<path fill="#FAFAFB" d="M7.8,13.6c-0.1-0.1-0.2-0.2-0.3-0.3c0,0,0,0-0.1,0c-0.1,0.1-0.2,0.2-0.3,0.3l0,0c0-0.2,0-0.3,0.1-0.4
		c0-0.2,0-0.3-0.1-0.4c-0.1-0.1-0.1-0.1-0.2-0.3c0.1,0,0.2,0,0.3,0c0.1,0,0.2,0,0.2-0.2c0-0.1,0.1-0.3,0.1-0.4
		c0,0.2,0.1,0.4,0.1,0.5c0,0.1,0,0.1,0.1,0.1c0.1,0,0.2,0,0.3,0c-0.1,0.1-0.2,0.2-0.3,0.3c-0.1,0.1-0.1,0.1,0,0.2
		c0,0.1,0.1,0.2,0.1,0.4C7.8,13.5,7.8,13.6,7.8,13.6L7.8,13.6z"/>
	<path fill="#FAFAFB" d="M9.7,13.6c0-0.2,0-0.3,0.1-0.4c0-0.2,0-0.3-0.1-0.4c-0.1-0.1-0.1-0.1-0.2-0.3c0.1,0,0.2,0,0.3,0
		c0.1,0,0.2,0,0.2-0.2c0-0.1,0.1-0.3,0.1-0.4c0,0.2,0.1,0.4,0.1,0.5c0,0.1,0,0.1,0.1,0.1c0.1,0,0.2,0,0.3,0
		c-0.1,0.1-0.2,0.2-0.3,0.3c-0.1,0.1-0.1,0.1,0,0.2c0,0.1,0.1,0.2,0.1,0.4c0,0,0,0.1,0,0.1l0,0c-0.1-0.1-0.2-0.2-0.3-0.3
		c0,0,0,0-0.1,0C9.9,13.4,9.8,13.5,9.7,13.6L9.7,13.6z"/>
	<path fill="#FAFAFB" d="M1.5,15.2c-0.1-0.1-0.2-0.2-0.3-0.3c0,0,0,0-0.1,0C1,15,0.9,15.1,0.8,15.2l0,0c0-0.2,0-0.3,0.1-0.4
		c0-0.2,0-0.3-0.1-0.4c-0.1-0.1-0.1-0.1-0.2-0.3c0.1,0,0.2,0,0.3,0c0.1,0,0.2,0,0.2-0.2c0-0.1,0.1-0.3,0.1-0.4
		c0,0.2,0.1,0.4,0.1,0.5c0,0.1,0,0.1,0.1,0.1c0.1,0,0.2,0,0.3,0c-0.1,0.1-0.2,0.2-0.3,0.3c-0.1,0.1-0.1,0.1,0,0.2
		c0,0.1,0.1,0.2,0.1,0.4C1.5,15.1,1.5,15.2,1.5,15.2L1.5,15.2z"/>
	<path fill="#FAFAFB" d="M3.3,15.2c0-0.2,0-0.3,0.1-0.4c0-0.2,0-0.3-0.1-0.4c-0.1-0.1-0.1-0.1-0.2-0.3c0.1,0,0.2,0,0.3,0
		c0.1,0,0.2,0,0.2-0.2c0-0.1,0.1-0.3,0.1-0.4c0,0.2,0.1,0.4,0.1,0.5c0,0.1,0,0.1,0.1,0.1c0.1,0,0.2,0,0.3,0
		c-0.1,0.1-0.2,0.2-0.3,0.3c-0.1,0.1-0.1,0.1,0,0.2C4,14.9,4,15,4,15.1c0,0,0,0.1,0,0.1l0,0c-0.1-0.1-0.2-0.2-0.3-0.3c0,0,0,0-0.1,0
		C3.5,15,3.4,15.1,3.3,15.2L3.3,15.2z"/>
	<path fill="#FAFAFB" d="M5.9,15.2c0-0.2,0-0.3,0.1-0.4c0-0.2,0-0.3-0.1-0.4c-0.1-0.1-0.1-0.1-0.2-0.3c0.1,0,0.2,0,0.3,0
		c0.1,0,0.2,0,0.2-0.2c0-0.1,0.1-0.3,0.1-0.4c0,0.2,0.1,0.4,0.1,0.5c0,0.1,0,0.1,0.1,0.1c0.1,0,0.2,0,0.3,0
		c-0.1,0.1-0.2,0.2-0.3,0.3c-0.1,0.1-0.1,0.1,0,0.2c0,0.1,0.1,0.2,0.1,0.4c0,0,0,0.1,0,0.1l0,0c-0.1-0.1-0.2-0.2-0.3-0.3
		c0,0,0,0-0.1,0C6.1,15,6,15.1,5.9,15.2L5.9,15.2z"/>
	<path fill="#FAFAFB" d="M9.1,15.2C9,15.1,8.9,15,8.8,14.9c0,0,0,0-0.1,0c-0.1,0.1-0.2,0.2-0.3,0.3l0,0c0-0.2,0-0.3,0.1-0.4
		c0-0.2,0-0.3-0.1-0.4c-0.1-0.1-0.1-0.1-0.2-0.3c0.1,0,0.2,0,0.3,0c0.1,0,0.2,0,0.2-0.2c0-0.1,0.1-0.3,0.1-0.4
		c0,0.2,0.1,0.4,0.1,0.5c0,0.1,0,0.1,0.1,0.1c0.1,0,0.2,0,0.3,0c-0.1,0.1-0.2,0.2-0.3,0.3C9,14.6,9,14.6,9,14.7
		C9,14.9,9,15,9.1,15.1C9.1,15.1,9.1,15.2,9.1,15.2L9.1,15.2z"/>
	<path fill="#FAFAFB" d="M0.8,2.2C0.8,2.2,0.8,2.2,0.8,2.2C0.8,2.2,0.8,2.2,0.8,2.2C0.8,2.2,0.8,2.2,0.8,2.2z"/>
	<path fill="#FAFAFB" d="M1.5,2.2C1.5,2.2,1.5,2.2,1.5,2.2C1.5,2.2,1.5,2.2,1.5,2.2C1.5,2.2,1.5,2.2,1.5,2.2
		C1.5,2.2,1.5,2.2,1.5,2.2z"/>
	<path fill="#FAFAFB" d="M3.3,2.2C3.3,2.2,3.3,2.2,3.3,2.2C3.3,2.2,3.3,2.2,3.3,2.2C3.3,2.2,3.3,2.2,3.3,2.2z"/>
	<path fill="#FAFAFB" d="M4,2.2C4,2.2,4,2.2,4,2.2C4,2.2,4,2.2,4,2.2C4,2.2,4,2.2,4,2.2C4,2.2,4,2.2,4,2.2z"/>
	<path fill="#FAFAFB" d="M5.9,2.2C5.9,2.2,5.9,2.2,5.9,2.2C5.9,2.2,5.9,2.2,5.9,2.2C5.9,2.2,5.9,2.2,5.9,2.2z"/>
	<path fill="#FAFAFB" d="M6.5,2.2C6.5,2.2,6.5,2.2,6.5,2.2C6.6,2.2,6.6,2.2,6.5,2.2C6.5,2.2,6.5,2.2,6.5,2.2
		C6.5,2.2,6.5,2.2,6.5,2.2z"/>
	<path fill="#FAFAFB" d="M8.4,2.2C8.4,2.2,8.4,2.2,8.4,2.2C8.4,2.2,8.4,2.2,8.4,2.2C8.4,2.2,8.4,2.2,8.4,2.2z"/>
	<path fill="#FAFAFB" d="M9.1,2.2C9.1,2.2,9.1,2.2,9.1,2.2C9.1,2.2,9.1,2.2,9.1,2.2C9.1,2.2,9.1,2.2,9.1,2.2
		C9.1,2.2,9.1,2.2,9.1,2.2z"/>
	<path fill="#FAFAFB" d="M10.9,2.2C10.9,2.2,10.9,2.2,10.9,2.2C10.9,2.2,10.9,2.2,10.9,2.2C10.9,2.2,10.9,2.2,10.9,2.2z"/>
	<path fill="#FAFAFB" d="M11.6,2.2C11.6,2.2,11.6,2.2,11.6,2.2C11.6,2.2,11.6,2.2,11.6,2.2C11.6,2.2,11.6,2.2,11.6,2.2
		C11.6,2.2,11.6,2.2,11.6,2.2z"/>
	<path fill="#FAFAFB" d="M13.5,2.2C13.5,2.2,13.4,2.2,13.5,2.2C13.5,2.2,13.5,2.2,13.5,2.2C13.5,2.2,13.5,2.2,13.5,2.2z"/>
	<path fill="#FAFAFB" d="M14.1,2.2C14.1,2.2,14.1,2.2,14.1,2.2C14.1,2.2,14.1,2.2,14.1,2.2C14.1,2.2,14.1,2.2,14.1,2.2
		C14.1,2.2,14.1,2.2,14.1,2.2z"/>
	<path fill="#FAFAFB" d="M2.1,3.9C2.1,3.9,2.1,3.9,2.1,3.9C2.1,3.8,2.1,3.9,2.1,3.9C2.1,3.9,2.1,3.9,2.1,3.9z"/>
	<path fill="#FAFAFB" d="M2.7,3.9C2.7,3.9,2.8,3.9,2.7,3.9C2.8,3.9,2.8,3.9,2.7,3.9C2.7,3.9,2.7,3.9,2.7,3.9
		C2.7,3.9,2.7,3.9,2.7,3.9z"/>
	<path fill="#FAFAFB" d="M4.6,3.9C4.6,3.9,4.6,3.9,4.6,3.9C4.6,3.8,4.6,3.9,4.6,3.9C4.6,3.9,4.6,3.9,4.6,3.9z"/>
	<path fill="#FAFAFB" d="M5.3,3.9C5.3,3.9,5.3,3.9,5.3,3.9C5.3,3.9,5.3,3.9,5.3,3.9C5.3,3.9,5.3,3.9,5.3,3.9
		C5.3,3.9,5.3,3.9,5.3,3.9z"/>
	<path fill="#FAFAFB" d="M7.1,3.9C7.1,3.9,7.1,3.9,7.1,3.9C7.1,3.8,7.1,3.9,7.1,3.9C7.1,3.9,7.1,3.9,7.1,3.9z"/>
	<path fill="#FAFAFB" d="M7.8,3.9C7.8,3.9,7.8,3.9,7.8,3.9C7.8,3.9,7.8,3.9,7.8,3.9C7.8,3.9,7.8,3.9,7.8,3.9
		C7.8,3.9,7.8,3.9,7.8,3.9z"/>
	<path fill="#FAFAFB" d="M9.7,3.9C9.7,3.9,9.7,3.9,9.7,3.9C9.7,3.8,9.7,3.9,9.7,3.9C9.7,3.9,9.7,3.9,9.7,3.9z"/>
	<path fill="#FAFAFB" d="M10.3,3.9C10.3,3.9,10.3,3.9,10.3,3.9C10.4,3.9,10.3,3.9,10.3,3.9C10.3,3.9,10.3,3.9,10.3,3.9
		C10.3,3.9,10.3,3.9,10.3,3.9z"/>
	<path fill="#FAFAFB" d="M12.2,3.9C12.2,3.9,12.2,3.9,12.2,3.9C12.2,3.8,12.2,3.9,12.2,3.9C12.2,3.9,12.2,3.9,12.2,3.9z"/>
	<path fill="#FAFAFB" d="M12.9,3.9C12.9,3.9,12.9,3.9,12.9,3.9C12.9,3.9,12.9,3.9,12.9,3.9C12.9,3.9,12.9,3.9,12.9,3.9
		C12.9,3.9,12.9,3.9,12.9,3.9z"/>
	<path fill="#FAFAFB" d="M0.8,5.5C0.8,5.5,0.8,5.5,0.8,5.5C0.8,5.5,0.8,5.5,0.8,5.5C0.8,5.5,0.8,5.5,0.8,5.5z"/>
	<path fill="#FAFAFB" d="M1.5,5.5C1.5,5.5,1.5,5.5,1.5,5.5C1.5,5.5,1.5,5.5,1.5,5.5C1.5,5.5,1.5,5.5,1.5,5.5
		C1.5,5.5,1.5,5.5,1.5,5.5z"/>
	<path fill="#FAFAFB" d="M3.3,5.5C3.3,5.5,3.3,5.5,3.3,5.5C3.3,5.5,3.3,5.5,3.3,5.5C3.3,5.5,3.3,5.5,3.3,5.5z"/>
	<path fill="#FAFAFB" d="M4,5.5C4,5.5,4,5.5,4,5.5C4,5.5,4,5.5,4,5.5C4,5.5,4,5.5,4,5.5C4,5.5,4,5.5,4,5.5z"/>
	<path fill="#FAFAFB" d="M5.9,5.5C5.9,5.5,5.9,5.5,5.9,5.5C5.9,5.5,5.9,5.5,5.9,5.5C5.9,5.5,5.9,5.5,5.9,5.5z"/>
	<path fill="#FAFAFB" d="M6.5,5.5C6.5,5.5,6.5,5.5,6.5,5.5C6.6,5.5,6.6,5.5,6.5,5.5C6.5,5.5,6.5,5.5,6.5,5.5
		C6.5,5.5,6.5,5.5,6.5,5.5z"/>
	<path fill="#FAFAFB" d="M8.4,5.5C8.4,5.5,8.4,5.5,8.4,5.5C8.4,5.5,8.4,5.5,8.4,5.5C8.4,5.5,8.4,5.5,8.4,5.5z"/>
	<path fill="#FAFAFB" d="M9.1,5.5C9.1,5.5,9.1,5.5,9.1,5.5C9.1,5.5,9.1,5.5,9.1,5.5C9.1,5.5,9.1,5.5,9.1,5.5
		C9.1,5.5,9.1,5.5,9.1,5.5z"/>
	<path fill="#FAFAFB" d="M10.9,5.5C10.9,5.5,10.9,5.5,10.9,5.5C10.9,5.5,10.9,5.5,10.9,5.5C10.9,5.5,10.9,5.5,10.9,5.5z"/>
	<path fill="#FAFAFB" d="M11.6,5.5C11.6,5.5,11.6,5.5,11.6,5.5C11.6,5.5,11.6,5.5,11.6,5.5C11.6,5.5,11.6,5.5,11.6,5.5
		C11.6,5.5,11.6,5.5,11.6,5.5z"/>
	<path fill="#FAFAFB" d="M13.5,5.5C13.5,5.5,13.4,5.5,13.5,5.5C13.5,5.5,13.5,5.5,13.5,5.5C13.5,5.5,13.5,5.5,13.5,5.5z"/>
	<path fill="#FAFAFB" d="M14.1,5.5C14.1,5.5,14.1,5.5,14.1,5.5C14.1,5.5,14.1,5.5,14.1,5.5C14.1,5.5,14.1,5.5,14.1,5.5
		C14.1,5.5,14.1,5.5,14.1,5.5z"/>
	<path fill="#FAFAFB" d="M2.1,7.1C2.1,7.1,2.1,7.1,2.1,7.1C2.1,7.1,2.1,7.1,2.1,7.1C2.1,7.1,2.1,7.1,2.1,7.1z"/>
	<path fill="#FAFAFB" d="M10.9,8.7C10.9,8.7,10.9,8.7,10.9,8.7C10.9,8.7,10.9,8.7,10.9,8.7C10.9,8.7,10.9,8.7,10.9,8.7z"/>
	<path fill="#FAFAFB" d="M11.6,8.7C11.6,8.7,11.6,8.7,11.6,8.7C11.6,8.7,11.6,8.7,11.6,8.7C11.6,8.7,11.6,8.7,11.6,8.7
		C11.6,8.7,11.6,8.7,11.6,8.7z"/>
	<path fill="#FAFAFB" d="M13.5,8.7C13.5,8.7,13.4,8.7,13.5,8.7C13.5,8.7,13.5,8.7,13.5,8.7C13.5,8.7,13.5,8.7,13.5,8.7z"/>
	<path fill="#FAFAFB" d="M9.1,8.7C9.1,8.7,9.1,8.7,9.1,8.7C9.1,8.7,9.1,8.7,9.1,8.7C9.1,8.7,9.1,8.7,9.1,8.7
		C9.1,8.7,9.1,8.7,9.1,8.7z"/>
	<path fill="#FAFAFB" d="M2.1,10.4C2.1,10.4,2.1,10.4,2.1,10.4C2.1,10.3,2.1,10.4,2.1,10.4C2.1,10.4,2.1,10.4,2.1,10.4z"/>
	<path fill="#FAFAFB" d="M8.4,8.7C8.4,8.7,8.4,8.7,8.4,8.7C8.4,8.7,8.4,8.7,8.4,8.7C8.4,8.7,8.4,8.7,8.4,8.7z"/>
	<path fill="#FAFAFB" d="M0.8,12C0.8,12,0.8,12,0.8,12C0.8,12,0.8,12,0.8,12C0.8,12,0.8,12,0.8,12z"/>
	<path fill="#FAFAFB" d="M1.5,12C1.5,12,1.5,12,1.5,12C1.5,12,1.5,12,1.5,12C1.5,12,1.5,12,1.5,12C1.5,12,1.5,12,1.5,12z"/>
	<path fill="#FAFAFB" d="M3.3,12C3.3,12,3.3,12,3.3,12C3.3,12,3.3,12,3.3,12C3.3,12,3.3,12,3.3,12z"/>
	<path fill="#FAFAFB" d="M4,12C4,12,4,12,4,12C4,12,4,12,4,12C4,12,4,12,4,12C4,12,4,12,4,12z"/>
	<path fill="#FAFAFB" d="M5.9,12C5.9,12,5.9,12,5.9,12C5.9,12,5.9,12,5.9,12C5.9,12,5.9,12,5.9,12z"/>
	<path fill="#FAFAFB" d="M6.5,12C6.5,12,6.5,12,6.5,12C6.6,12,6.6,12,6.5,12C6.5,12,6.5,12,6.5,12C6.5,12,6.5,12,6.5,12z"/>
	<path fill="#FAFAFB" d="M8.4,12C8.4,12,8.4,12,8.4,12C8.4,12,8.4,12,8.4,12C8.4,12,8.4,12,8.4,12z"/>
	<path fill="#FAFAFB" d="M9.1,12C9.1,12,9.1,12,9.1,12C9.1,12,9.1,12,9.1,12C9.1,12,9.1,12,9.1,12C9.1,12,9.1,12,9.1,12z"/>
	<path fill="#FAFAFB" d="M10.9,12C10.9,12,10.9,12,10.9,12C10.9,12,10.9,12,10.9,12C10.9,12,10.9,12,10.9,12z"/>
	<path fill="#FAFAFB" d="M11.6,12C11.6,12,11.6,12,11.6,12C11.6,12,11.6,12,11.6,12C11.6,12,11.6,12,11.6,12
		C11.6,12,11.6,12,11.6,12z"/>
	<path fill="#FAFAFB" d="M13.5,12C13.5,12,13.4,12,13.5,12C13.5,12,13.5,12,13.5,12C13.5,12,13.5,12,13.5,12z"/>
	<path fill="#FAFAFB" d="M14.1,12C14.1,12,14.1,12,14.1,12C14.1,12,14.1,12,14.1,12C14.1,12,14.1,12,14.1,12
		C14.1,12,14.1,12,14.1,12z"/>
	<path fill="#FAFAFB" d="M2.7,10.4C2.7,10.4,2.8,10.4,2.7,10.4C2.8,10.4,2.8,10.4,2.7,10.4C2.7,10.4,2.7,10.4,2.7,10.4
		C2.7,10.4,2.7,10.4,2.7,10.4z"/>
	<path fill="#FAFAFB" d="M4.6,10.4C4.6,10.4,4.6,10.4,4.6,10.4C4.6,10.3,4.6,10.4,4.6,10.4C4.6,10.4,4.6,10.4,4.6,10.4z"/>
	<path fill="#FAFAFB" d="M5.3,10.4C5.3,10.4,5.3,10.4,5.3,10.4C5.3,10.4,5.3,10.4,5.3,10.4C5.3,10.4,5.3,10.4,5.3,10.4
		C5.3,10.4,5.3,10.4,5.3,10.4z"/>
	<path fill="#FAFAFB" d="M7.1,10.4C7.1,10.4,7.1,10.4,7.1,10.4C7.1,10.3,7.1,10.4,7.1,10.4C7.1,10.4,7.1,10.4,7.1,10.4z"/>
	<path fill="#FAFAFB" d="M6.5,8.7C6.5,8.7,6.5,8.7,6.5,8.7C6.6,8.7,6.6,8.7,6.5,8.7C6.5,8.7,6.5,8.7,6.5,8.7
		C6.5,8.7,6.5,8.7,6.5,8.7z"/>
	<path fill="#FAFAFB" d="M2.1,13.6C2.1,13.6,2.1,13.6,2.1,13.6C2.1,13.6,2.1,13.6,2.1,13.6C2.1,13.6,2.1,13.6,2.1,13.6z"/>
	<path fill="#FAFAFB" d="M2.7,13.6C2.7,13.6,2.8,13.6,2.7,13.6C2.8,13.6,2.8,13.6,2.7,13.6C2.7,13.6,2.7,13.6,2.7,13.6
		C2.7,13.6,2.7,13.6,2.7,13.6z"/>
	<path fill="#FAFAFB" d="M4.6,13.6C4.6,13.6,4.6,13.6,4.6,13.6C4.6,13.6,4.6,13.6,4.6,13.6C4.6,13.6,4.6,13.6,4.6,13.6z"/>
	<path fill="#FAFAFB" d="M5.3,13.6C5.3,13.6,5.3,13.6,5.3,13.6C5.3,13.6,5.3,13.6,5.3,13.6C5.3,13.6,5.3,13.6,5.3,13.6
		C5.3,13.6,5.3,13.6,5.3,13.6z"/>
	<path fill="#FAFAFB" d="M7.1,13.6C7.1,13.6,7.1,13.6,7.1,13.6C7.1,13.6,7.1,13.6,7.1,13.6C7.1,13.6,7.1,13.6,7.1,13.6z"/>
	<path fill="#FAFAFB" d="M7.8,13.6C7.8,13.6,7.8,13.6,7.8,13.6C7.8,13.6,7.8,13.6,7.8,13.6C7.8,13.6,7.8,13.6,7.8,13.6
		C7.8,13.6,7.8,13.6,7.8,13.6z"/>
	<path fill="#FAFAFB" d="M9.7,13.6C9.7,13.6,9.7,13.6,9.7,13.6C9.7,13.6,9.7,13.6,9.7,13.6C9.7,13.6,9.7,13.6,9.7,13.6z"/>
	<path fill="#FAFAFB" d="M10.3,13.6C10.3,13.6,10.3,13.6,10.3,13.6C10.4,13.6,10.3,13.6,10.3,13.6C10.3,13.6,10.3,13.6,10.3,13.6
		C10.3,13.6,10.3,13.6,10.3,13.6z"/>
	<path fill="#FAFAFB" d="M12.2,13.6C12.2,13.6,12.2,13.6,12.2,13.6C12.2,13.6,12.2,13.6,12.2,13.6C12.2,13.6,12.2,13.6,12.2,13.6z"
		/>
	<path fill="#FAFAFB" d="M12.9,13.6C12.9,13.6,12.9,13.6,12.9,13.6C12.9,13.6,12.9,13.6,12.9,13.6C12.9,13.6,12.9,13.6,12.9,13.6
		C12.9,13.6,12.9,13.6,12.9,13.6z"/>
	<path fill="#FAFAFB" d="M7.8,10.4C7.8,10.4,7.8,10.4,7.8,10.4C7.8,10.4,7.8,10.4,7.8,10.4C7.8,10.4,7.8,10.4,7.8,10.4
		C7.8,10.4,7.8,10.4,7.8,10.4z"/>
	<path fill="#FAFAFB" d="M9.7,10.4C9.7,10.4,9.7,10.4,9.7,10.4C9.7,10.3,9.7,10.4,9.7,10.4C9.7,10.4,9.7,10.4,9.7,10.4z"/>
	<path fill="#FAFAFB" d="M10.3,10.4C10.3,10.4,10.3,10.4,10.3,10.4C10.4,10.4,10.3,10.4,10.3,10.4C10.3,10.4,10.3,10.4,10.3,10.4
		C10.3,10.4,10.3,10.4,10.3,10.4z"/>
	<path fill="#FAFAFB" d="M12.2,10.4C12.2,10.4,12.2,10.4,12.2,10.4C12.2,10.3,12.2,10.4,12.2,10.4C12.2,10.4,12.2,10.4,12.2,10.4z"
		/>
	<path fill="#FAFAFB" d="M12.9,10.4C12.9,10.4,12.9,10.4,12.9,10.4C12.9,10.4,12.9,10.4,12.9,10.4C12.9,10.4,12.9,10.4,12.9,10.4
		C12.9,10.4,12.9,10.4,12.9,10.4z"/>
	<path fill="#FAFAFB" d="M14.1,8.7C14.1,8.7,14.1,8.7,14.1,8.7C14.1,8.7,14.1,8.7,14.1,8.7C14.1,8.7,14.1,8.7,14.1,8.7
		C14.1,8.7,14.1,8.7,14.1,8.7z"/>
	<path fill="#FAFAFB" d="M5.9,8.7C5.9,8.7,5.9,8.7,5.9,8.7C5.9,8.7,5.9,8.7,5.9,8.7C5.9,8.7,5.9,8.7,5.9,8.7z"/>
	<path fill="#FAFAFB" d="M4,8.7C4,8.7,4,8.7,4,8.7C4,8.7,4,8.7,4,8.7C4,8.7,4,8.7,4,8.7C4,8.7,4,8.7,4,8.7z"/>
	<path fill="#FAFAFB" d="M0.8,15.2C0.8,15.2,0.8,15.2,0.8,15.2C0.8,15.2,0.8,15.2,0.8,15.2C0.8,15.2,0.8,15.2,0.8,15.2z"/>
	<path fill="#FAFAFB" d="M1.5,15.2C1.5,15.2,1.5,15.2,1.5,15.2C1.5,15.2,1.5,15.2,1.5,15.2C1.5,15.2,1.5,15.2,1.5,15.2
		C1.5,15.2,1.5,15.2,1.5,15.2z"/>
	<path fill="#FAFAFB" d="M5.3,7.1C5.3,7.1,5.3,7.1,5.3,7.1C5.3,7.1,5.3,7.1,5.3,7.1C5.3,7.1,5.3,7.1,5.3,7.1
		C5.3,7.1,5.3,7.1,5.3,7.1z"/>
	<path fill="#FAFAFB" d="M4,15.2C4,15.2,4,15.2,4,15.2C4,15.2,4,15.2,4,15.2C4,15.2,4,15.2,4,15.2C4,15.2,4,15.2,4,15.2z"/>
	<path fill="#FAFAFB" d="M5.9,15.2C5.9,15.2,5.9,15.2,5.9,15.2C5.9,15.2,5.9,15.2,5.9,15.2C5.9,15.2,5.9,15.2,5.9,15.2z"/>
	<path fill="#FAFAFB" d="M6.5,15.2C6.5,15.2,6.5,15.2,6.5,15.2C6.6,15.2,6.6,15.2,6.5,15.2C6.5,15.2,6.5,15.2,6.5,15.2
		C6.5,15.2,6.5,15.2,6.5,15.2z"/>
	<path fill="#FAFAFB" d="M8.4,15.2C8.4,15.2,8.4,15.2,8.4,15.2C8.4,15.2,8.4,15.2,8.4,15.2C8.4,15.2,8.4,15.2,8.4,15.2z"/>
	<path fill="#FAFAFB" d="M9.1,15.2C9.1,15.2,9.1,15.2,9.1,15.2C9.1,15.2,9.1,15.2,9.1,15.2C9.1,15.2,9.1,15.2,9.1,15.2
		C9.1,15.2,9.1,15.2,9.1,15.2z"/>
	<path fill="#FAFAFB" d="M10.9,15.2C10.9,15.2,10.9,15.2,10.9,15.2C10.9,15.2,10.9,15.2,10.9,15.2C10.9,15.2,10.9,15.2,10.9,15.2z"
		/>
	<path fill="#FAFAFB" d="M11.6,15.2C11.6,15.2,11.6,15.2,11.6,15.2C11.6,15.2,11.6,15.2,11.6,15.2C11.6,15.2,11.6,15.2,11.6,15.2
		C11.6,15.2,11.6,15.2,11.6,15.2z"/>
	<path fill="#FAFAFB" d="M13.5,15.2C13.5,15.2,13.4,15.2,13.5,15.2C13.5,15.2,13.5,15.2,13.5,15.2C13.5,15.2,13.5,15.2,13.5,15.2z"
		/>
	<path fill="#FAFAFB" d="M14.1,15.2C14.1,15.2,14.1,15.2,14.1,15.2C14.1,15.2,14.1,15.2,14.1,15.2C14.1,15.2,14.1,15.2,14.1,15.2
		C14.1,15.2,14.1,15.2,14.1,15.2z"/>
	<path fill="#FAFAFB" d="M3.3,8.7C3.3,8.7,3.3,8.7,3.3,8.7C3.3,8.7,3.3,8.7,3.3,8.7C3.3,8.7,3.3,8.7,3.3,8.7z"/>
	<path fill="#FAFAFB" d="M1.5,8.7C1.5,8.7,1.5,8.7,1.5,8.7C1.5,8.7,1.5,8.7,1.5,8.7C1.5,8.7,1.5,8.7,1.5,8.7
		C1.5,8.7,1.5,8.7,1.5,8.7z"/>
	<path fill="#FAFAFB" d="M0.8,8.7C0.8,8.7,0.8,8.7,0.8,8.7C0.8,8.7,0.8,8.7,0.8,8.7C0.8,8.7,0.8,8.7,0.8,8.7z"/>
	<path fill="#FAFAFB" d="M12.9,7.1C12.9,7.1,12.9,7.1,12.9,7.1C12.9,7.1,12.9,7.1,12.9,7.1C12.9,7.1,12.9,7.1,12.9,7.1
		C12.9,7.1,12.9,7.1,12.9,7.1z"/>
	<path fill="#FAFAFB" d="M12.2,7.1C12.2,7.1,12.2,7.1,12.2,7.1C12.2,7.1,12.2,7.1,12.2,7.1C12.2,7.1,12.2,7.1,12.2,7.1z"/>
	<path fill="#FAFAFB" d="M10.3,7.1C10.3,7.1,10.3,7.1,10.3,7.1C10.4,7.1,10.3,7.1,10.3,7.1C10.3,7.1,10.3,7.1,10.3,7.1
		C10.3,7.1,10.3,7.1,10.3,7.1z"/>
	<path fill="#FAFAFB" d="M9.7,7.1C9.7,7.1,9.7,7.1,9.7,7.1C9.7,7.1,9.7,7.1,9.7,7.1C9.7,7.1,9.7,7.1,9.7,7.1z"/>
	<path fill="#FAFAFB" d="M7.8,7.1C7.8,7.1,7.8,7.1,7.8,7.1C7.8,7.1,7.8,7.1,7.8,7.1C7.8,7.1,7.8,7.1,7.8,7.1
		C7.8,7.1,7.8,7.1,7.8,7.1z"/>
	<path fill="#FAFAFB" d="M7.1,7.1C7.1,7.1,7.1,7.1,7.1,7.1C7.1,7.1,7.1,7.1,7.1,7.1C7.1,7.1,7.1,7.1,7.1,7.1z"/>
	<path fill="#FAFAFB" d="M4.6,7.1C4.6,7.1,4.6,7.1,4.6,7.1C4.6,7.1,4.6,7.1,4.6,7.1C4.6,7.1,4.6,7.1,4.6,7.1z"/>
	<path fill="#FAFAFB" d="M2.7,7.1C2.7,7.1,2.8,7.1,2.7,7.1C2.8,7.1,2.8,7.1,2.7,7.1C2.7,7.1,2.7,7.1,2.7,7.1
		C2.7,7.1,2.7,7.1,2.7,7.1z"/>
	<path fill="#FAFAFB" d="M3.3,15.2C3.3,15.2,3.3,15.2,3.3,15.2C3.3,15.2,3.3,15.2,3.3,15.2C3.3,15.2,3.3,15.2,3.3,15.2z"/>
</g>
</svg>
