<?xml version="1.0" encoding="utf-8"?>
<!-- Generator: Adobe Illustrator 22.1.0, SVG Export Plug-In . SVG Version: 6.00 Build 0)  -->
<svg version="1.1"
	 id="svg4443" xmlns:cc="http://creativecommons.org/ns#" xmlns:dc="http://purl.org/dc/elements/1.1/" xmlns:rdf="http://www.w3.org/1999/02/22-rdf-syntax-ns#" xmlns:svg="http://www.w3.org/2000/svg"
	 xmlns="http://www.w3.org/2000/svg" xmlns:xlink="http://www.w3.org/1999/xlink" x="0px" y="0px" viewBox="0 0 916 651.2"
	 style="enable-background:new 0 0 916 651.2;" xml:space="preserve">
<style type="text/css">
	.st0{fill:url(#SVGID_1_);}
</style>
<linearGradient id="SVGID_1_" gradientUnits="userSpaceOnUse" x1="0" y1="324.4514" x2="912.9958" y2="324.4514">
	<stop  offset="0" style="stop-color:#9A1033"/>
	<stop  offset="1" style="stop-color:#E40000"/>
</linearGradient>
<path class="st0" d="M569.2,0L0,242.1l173.1,406.8H529l251.9-107.1c1.2,3.4,1.4,10.1,0.5,19.8l-2.5,37.8c-0.6,9.3-1.2,16.5-1.8,21.4
	s-1.1,8.9-1.7,11.9c-0.5,3.7-1.9,6.4-4.2,7.9s-6,2.5-11.3,3v5.1h42.3v-5.1c-6-0.5-10.3-1.4-12.8-2.8s-3.8-4.2-3.9-8.4
	c-0.1-3.5-0.1-7.5-0.1-12.1c0.1-4.6,0.3-10.6,0.6-18l2.7-51.8h0.4l40.7,97h3.6l44.3-99.5h0.7l0.7,74.1c0.3,9.2-0.4,15.1-2.1,17.6
	c-1.7,2.5-6.1,3.8-13.3,4.1v5.1h47.9v-0.1v-5.1c-7.6-0.3-12.3-1.6-14.2-4.1s-2.8-8.3-2.7-17.6l-1.6-65.8c-0.6-8.9,0.1-14.5,2.1-16.7
	c1.9-2.2,6.8-3.5,14.6-3.8v-5.1h-30.9l-42.1,91l-41.4-91"/>
</svg>
