<?xml version="1.0" encoding="UTF-8"?>
<svg enable-background="new 0 0 916 651.2" version="1.1" viewBox="0 0 916 651.2" width="916" height="651.2" xml:space="preserve" xmlns="http://www.w3.org/2000/svg">
<style type="text/css">
	.st0{fill:url(#a);}
</style>
<linearGradient id="a" x2="913" y1="324.45" y2="324.45" gradientUnits="userSpaceOnUse">
	<stop stop-color="#9A1033" offset="0"/>
	<stop stop-color="#E40000" offset="1"/>
</linearGradient>
<path class="st0" d="m569.2 0l-569.2 242.1 173.1 406.8h355.9l251.9-107.1c1.2 3.4 1.4 10.1 0.5 19.8l-2.5 37.8c-0.6 9.3-1.2 16.5-1.8 21.4s-1.1 8.9-1.7 11.9c-0.5 3.7-1.9 6.4-4.2 7.9s-6 2.5-11.3 3v5.1h42.3v-5.1c-6-0.5-10.3-1.4-12.8-2.8s-3.8-4.2-3.9-8.4c-0.1-3.5-0.1-7.5-0.1-12.1 0.1-4.6 0.3-10.6 0.6-18l2.7-51.8h0.4l40.7 97h3.6l44.3-99.5h0.7l0.7 74.1c0.3 9.2-0.4 15.1-2.1 17.6s-6.1 3.8-13.3 4.1v5.1h47.9v-5.2c-7.6-0.3-12.3-1.6-14.2-4.1s-2.8-8.3-2.7-17.6l-1.6-65.8c-0.6-8.9 0.1-14.5 2.1-16.7 1.9-2.2 6.8-3.5 14.6-3.8v-5.1h-30.9l-42.1 91-41.4-91"/>
</svg>
