<svg xmlns="http://www.w3.org/2000/svg" viewBox="0 0 300 200"><defs><style>.cls-1{fill:#b3b3b3;}.cls-2{fill:#ccc;}</style></defs><title>Element 1</title><g id="Ebene_2" data-name="Ebene 2"><g id="Ebene_1-2" data-name="Ebene 1"><path class="cls-1" d="M279,10a11,11,0,0,1,11,11V179a11,11,0,0,1-11,11H21a11,11,0,0,1-11-11V21A11,11,0,0,1,21,10H279m0-10H21A21.06,21.06,0,0,0,0,21V179a21.06,21.06,0,0,0,21,21H279a21.06,21.06,0,0,0,21-21V21A21.06,21.06,0,0,0,279,0Z"/><polygon class="cls-2" points="265.5 172.5 213.5 89.5 183.5 107.5 149.5 35.5 80.5 85.5 68.5 119.5 22.5 172.5 265.5 172.5"/><circle class="cls-2" cx="234" cy="48" r="22.5"/></g></g></svg>