<?xml version="1.0" encoding="utf-8"?>
<!-- Generator: Adobe Illustrator 22.1.0, SVG Export Plug-In . SVG Version: 6.00 Build 0)  -->
<svg version="1.1" id="Ebene_1" xmlns="http://www.w3.org/2000/svg" xmlns:xlink="http://www.w3.org/1999/xlink" x="0px" y="0px"
	 viewBox="0 0 300 200" style="enable-background:new 0 0 300 200;" xml:space="preserve">
<style type="text/css">
	.st0{clip-path:url(#SVGID_2_);}
	.st1{clip-path:url(#SVGID_4_);fill:#808080;}
	.st2{clip-path:url(#SVGID_4_);fill:#333333;}
	.st3{clip-path:url(#SVGID_4_);fill:#E6E6E6;}
	.st4{clip-path:url(#SVGID_4_);fill:#CCCCCC;}
	.st5{fill:#22B573;stroke:#FFFFFF;stroke-width:5;stroke-miterlimit:10;}
	.st6{clip-path:url(#SVGID_6_);}
	.st7{clip-path:url(#SVGID_8_);fill:#808080;}
	.st8{clip-path:url(#SVGID_8_);fill:#333333;}
	.st9{clip-path:url(#SVGID_8_);fill:#E6E6E6;}
	.st10{clip-path:url(#SVGID_8_);fill:#CCCCCC;}
	.st11{fill:#F7931E;stroke:#FFFFFF;stroke-width:2;stroke-miterlimit:10;}
</style>
<g>
	<g>
		<defs>
			<rect id="SVGID_1_" x="125" y="-12" width="202" height="202"/>
		</defs>
		<clipPath id="SVGID_2_">
			<use xlink:href="#SVGID_1_"  style="overflow:visible;"/>
		</clipPath>
		<g class="st0">
			<defs>
				<rect id="SVGID_3_" x="125" y="-12" width="202" height="202"/>
			</defs>
			<clipPath id="SVGID_4_">
				<use xlink:href="#SVGID_3_"  style="overflow:visible;"/>
			</clipPath>
			<path class="st1" d="M261.1,78.3h-71.9c-2.8,0-5.1-2.3-5.1-5.1V38.5c0-2.8,2.3-5.1,5.1-5.1h71.9c2.8,0,5.1,2.3,5.1,5.1v34.7
				C266.2,76,263.9,78.3,261.1,78.3"/>
			<rect x="211.1" y="86.8" class="st1" width="27.9" height="3.6"/>
			<rect x="220.7" y="78.3" class="st1" width="8.5" height="8.5"/>
			<path class="st2" d="M187.5,74.9c-1.7,0-3.1-1.4-3.1-3.1V37.1c0-1.7,1.4-3.1,3.1-3.1h71.9c1.7,0,3.1,1.4,3.1,3.1v34.7
				c0,1.7-1.4,3.1-3.1,3.1H187.5z"/>
			<path class="st3" d="M259.4,36c0.6,0,1.1,0.5,1.1,1.1v34.7c0,0.6-0.5,1.1-1.1,1.1h-71.9c-0.6,0-1.1-0.5-1.1-1.1V37.1
				c0-0.6,0.5-1.1,1.1-1.1H259.4 M259.4,31.9h-71.9c-2.8,0-5.1,2.3-5.1,5.1v34.7c0,2.8,2.3,5.1,5.1,5.1h71.9c2.8,0,5.1-2.3,5.1-5.1
				V37.1C264.6,34.2,262.3,31.9,259.4,31.9"/>
			<rect x="209.4" y="85.4" class="st3" width="27.9" height="3.6"/>
			<rect x="219.1" y="76.9" class="st4" width="8.5" height="8.5"/>
			<polygon class="st1" points="211.1,90.4 209.4,89 211.1,89 			"/>
			<polygon class="st1" points="237.3,85.4 238.9,86.8 237.3,86.8 			"/>
		</g>
	</g>
</g>
<polygon class="st5" points="196.8,64.4 165.5,59 172.8,69.8 173,70.2 110.5,112.4 120,126.5 182.5,84.3 189.5,94.6 "/>
<g>
	<g>
		<defs>
			<rect id="SVGID_5_" x="-64" y="49" width="276" height="276"/>
		</defs>
		<clipPath id="SVGID_6_">
			<use xlink:href="#SVGID_5_"  style="overflow:visible;"/>
		</clipPath>
		<g class="st6">
			<defs>
				<rect id="SVGID_7_" x="-64" y="49" width="276" height="276"/>
			</defs>
			<clipPath id="SVGID_8_">
				<use xlink:href="#SVGID_7_"  style="overflow:visible;"/>
			</clipPath>
			<path class="st7" d="M121.9,172.4H23.6c-3.9,0-7-3.2-7-7V118c0-3.9,3.2-7,7-7h98.3c3.9,0,7,3.2,7,7v47.4
				C128.9,169.2,125.8,172.4,121.9,172.4"/>
			<rect x="53.6" y="184" class="st7" width="38.1" height="5"/>
			<rect x="66.8" y="172.4" class="st7" width="11.6" height="11.6"/>
			<path class="st8" d="M21.4,167.7c-2.3,0-4.3-1.9-4.3-4.3v-47.4c0-2.3,1.9-4.3,4.3-4.3h98.3c2.3,0,4.3,1.9,4.3,4.3v47.4
				c0,2.3-1.9,4.3-4.3,4.3H21.4z"/>
			<path class="st9" d="M119.7,114.6c0.8,0,1.5,0.7,1.5,1.5v47.4c0,0.8-0.7,1.5-1.5,1.5H21.4c-0.8,0-1.5-0.7-1.5-1.5v-47.4
				c0-0.8,0.7-1.5,1.5-1.5H119.7 M119.7,109H21.4c-3.9,0-7,3.2-7,7v47.4c0,3.9,3.2,7,7,7h98.3c3.9,0,7-3.2,7-7v-47.4
				C126.7,112.2,123.6,109,119.7,109"/>
			<rect x="51.4" y="182" class="st9" width="38.1" height="5"/>
			<rect x="64.6" y="170.4" class="st10" width="11.6" height="11.6"/>
			<polygon class="st7" points="53.6,188.9 51.4,187 53.6,187 			"/>
			<polygon class="st7" points="89.5,182 91.7,184 89.5,184 			"/>
		</g>
	</g>
</g>
<path class="st11" d="M-601-663"/>
</svg>
