<?xml version="1.0" encoding="utf-8"?>
<!-- Generator: Adobe Illustrator 22.1.0, SVG Export Plug-In . SVG Version: 6.00 Build 0)  -->
<svg version="1.1" id="Ebene_1" xmlns="http://www.w3.org/2000/svg" xmlns:xlink="http://www.w3.org/1999/xlink" x="0px" y="0px"
	 viewBox="0 0 300 200" enable-background="new 0 0 300 200" xml:space="preserve">
<g>
	<g>
		<path fill="#FFFFFF" d="M150,126.7c-14.7,0-26.7-12-26.7-26.7s12-26.7,26.7-26.7s26.7,12,26.7,26.7S164.7,126.7,150,126.7z"/>
		<path d="M150,75.8c13.4,0,24.2,10.9,24.2,24.2s-10.9,24.2-24.2,24.2s-24.2-10.9-24.2-24.2S136.6,75.8,150,75.8 M150,70.8
			c-16.1,0-29.2,13.1-29.2,29.2s13.1,29.2,29.2,29.2s29.2-13.1,29.2-29.2S166.1,70.8,150,70.8L150,70.8z"/>
	</g>
	<line fill="none" stroke="#000000" stroke-width="5" stroke-miterlimit="10" x1="149.7" y1="71.3" x2="149.7" y2="78.2"/>
	<line fill="none" stroke="#000000" stroke-width="5" stroke-miterlimit="10" x1="150.3" y1="121.8" x2="150.3" y2="128.7"/>
	<line fill="none" stroke="#000000" stroke-width="5" stroke-miterlimit="10" x1="128.2" y1="100.3" x2="121.3" y2="100.3"/>
	<line fill="none" stroke="#000000" stroke-width="5" stroke-miterlimit="10" x1="178.7" y1="100.3" x2="171.8" y2="100.3"/>
	<path fill="#D4145A" d="M167.7,109.7l-18.4-8.1c-0.9-0.4-1.3-1.4-0.9-2.3v0c0.4-0.9,1.4-1.3,2.3-0.9l18.4,8.1
		c0.9,0.4,1.3,1.4,0.9,2.3v0C169.5,109.7,168.5,110.1,167.7,109.7z"/>
</g>
<g>
	<line fill="none" stroke="#29ABE2" stroke-width="12" stroke-miterlimit="10" x1="76" y1="46" x2="248" y2="46"/>
	<polygon fill="#29ABE2" points="52,46 76,25 76,66 	"/>
</g>
<g>
	<line fill="#22B573" stroke="#22B573" stroke-width="12" stroke-miterlimit="10" x1="224" y1="155" x2="52" y2="155"/>
	<polygon fill="#22B573" points="248,155 224,134 224,175 	"/>
</g>
</svg>
